<svg xmlns="http://www.w3.org/2000/svg" viewBox="0 0 1000 1000" width="1000mm" height="1000mm"><style >

.small { font: 10px sans-serif; fill:black}
svg {background-color: white;}
.smallevidence { font: 10px sans-serif; fill:red}
.heavy { font: bold 30px sans-serif; }
.heavyevidence { font: bold 30px sans-serif; fill:red}

.title { font: italic 40px sans-serif; fill:red; }

</style><path stroke="darkgrey" stroke-width="0.1" d="M 375.14 682.81 L 380.61 695.06 L 383.46 694.09 L 384.38 696.12 L 388.85 694.9 L 394.36 707.15 L 390.43 708.62 L 394.63 717.92 L 404.81 714.87 L 410.24 716.91 L 412.21 717.62 L 416.29 726.92 L 420.37 736.21 L 417.02 742.36 L 407.39 745.51 L 411.59 755.0699999999999 L 415.67 753.8 L 421.18 766.19 L 416.71 767.62 L 417.6 769.65 L 414.98 770.41 L 420.37 782.76 L 423.07 782.1 L 424.11 784.49 L 440.33 779.51 L 443.69 786.5699999999999 L 447.16 793.94 L 460.18 789.41 L 458.87 786.3199999999999 L 478.91 779.51 L 480.26 782.5 L 493.82 777.88 L 489.47 769.6 L 506.92 763.45 L 508.65 766.8 L 518.87 763.2 L 517.13 759.84 L 536.51 753.03 L 538.21 756.39 L 547.38 753.19 L 545.65 749.83 L 565.84 742.72 L 567.57 746.0699999999999 L 576.28 743.02 L 574.55 739.67 L 593.81 732.91 L 595.51 736.27 L 604.49 733.11 L 602.75 729.76 L 622.41 722.85 L 624.14 726.2 L 634.12 722.7 L 632.39 719.34 L 652.46 712.28 L 654.0 715.64 L 657.93 714.52 L 661.94 722.29 L 664.56 721.4300000000001 L 671.61 718.99 L 670.42 716.6 L 677.09 714.42 L 675.97 712.03 L 681.02 710.3 L 678.55 705.0699999999999 L 694.58 699.63 L 697.16 704.81 L 702.59 702.98 L 703.87 705.63 L 709.76 703.69 L 710.84 705.73 L 718.97 702.98 L 721.63 702.0699999999999 L 717.82 694.4 L 722.02 692.87 L 721.05 690.89 L 738.74 684.54 L 739.9 686.77 L 747.37 684.0799999999999 L 746.72 682.6600000000001 L 750.18 681.3399999999999 L 749.37 679.56 L 757.81 676.4100000000001 L 756.97 674.88 L 761.98 673.05 L 771.42 669.65 L 795.96 660.96 L 797.89 664.6700000000001 L 807.87 661.06 L 805.98 657.46 L 808.68 652.63 L 813.11 654.31 L 818.08 645.1600000000001 L 813.61 643.48 L 819.24 633.0699999999999 L 823.9 634.79 L 828.18 626.76 L 823.55 625.0899999999999 L 828.02 616.75 L 833.84 614.8199999999999 L 830.26 607.4100000000001 L 829.06 604.86 L 822.97 606.85 L 817.85 595.6700000000001 L 812.69 584.54 L 818.47 582.61 L 813.96 573.36 L 808.06 575.0899999999999 L 799.85 572.29 L 801.82 567.47 L 792.19 564.1600000000001 L 790.22 568.99 L 774.65 563.6600000000001 L 777.12 558.3199999999999 L 767.56 555.02 L 765.1 560.4 L 756.08 557.3 L 754.35 553.6 L 745.71 556.3399999999999 L 746.95 558.98 L 747.45 560.05 L 707.99 572.75 L 707.53 571.6800000000001 L 707.3 571.13 L 698.39 573.77 L 697.55 571.89 L 694.04 573.11 L 693.35 571.48 L 685.72 574.0699999999999 L 686.03 574.6800000000001 L 686.8 576.26 L 668.72 582.15 L 667.88 580.53 L 667.61 580.02 L 663.41 581.3399999999999 L 659.78 573.46 L 648.92 576.97 L 649.92 579.26 L 644.18 581.29 L 645.3 583.98 L 639.67 585.86 L 642.14 591.25 L 634.08 593.89 L 625.99 596.5799999999999 L 623.64 591.2 L 618.36 592.9200000000001 L 617.36 590.54 L 610.73 592.8199999999999 L 609.61 590.38 L 599.94 593.4300000000001 L 603.52 601.51 L 599.44 602.63 L 600.29 604.31 L 601.56 606.9 L 580.64 613.6 L 579.44 610.96 L 579.13 610.25 L 569.19 613.45 L 569.5 614.11 L 570.66 616.75 L 550.5799999999999 623.21 L 549.38 620.5699999999999 L 549.0799999999999 619.85 L 540.1800000000001 622.7 L 540.48 623.4100000000001 L 541.6800000000001 626.05 L 521.87 632.35 L 520.72 629.71 L 520.4100000000001 629.05 L 511.74 631.8 L 512.05 632.51 L 513.2 635.1 L 492.86 641.6 L 491.7 638.96 L 491.39 638.3 L 482.18 641.25 L 482.49 641.9100000000001 L 483.65 644.55 L 463.84 650.85 L 462.68 648.26 L 462.38 647.55 L 452.16 650.8 L 452.47 651.51 L 453.63 654.15 L 437.21 659.39 L 435.94 656.79 L 433.28 651.36 L 422.96 654.46 L 423.84 657.0 L 401.11 664.4200000000001 L 399.76 661.3199999999999 L 395.44 662.79 L 388.66 665.0799999999999 L 392.51 674.1700000000001 L 376.68 679.2 L 377.83 681.69 L 375.14 682.81" stroke-linecap="round" fill="grey"/><path stroke="darkgrey" stroke-width="0.1" d="M 720.63 450.95 L 767.52 437.9 L 745.98 474.48 L 742.05 473.11 L 730.18 468.94000000000005 L 720.63 450.95" stroke-linecap="round" fill="grey"/><path stroke="darkgrey" stroke-width="0.1" d="M 855.65 320.32000000000005 L 903.59 283.22 L 923.97 263.80999999999995 L 950.0 284.51 L 950.0 396.53 L 855.65 320.32000000000005" stroke-linecap="round" fill="grey"/><path stroke="darkgrey" stroke-width="0.1" d="M 621.94 264.78 L 673.77 238.10000000000002 L 679.28 246.13 L 687.22 242.51999999999998 L 695.62 256.79999999999995 L 688.84 259.53999999999996 L 691.15 263.51 L 693.46 267.47 L 637.74 294.96000000000004 L 633.7 287.24 L 628.15 276.62 L 621.94 264.78" stroke-linecap="round" fill="grey"/><path stroke="darkgrey" stroke-width="0.1" d="M 759.97 479.36 L 745.98 474.48 L 767.52 437.9 L 779.28 432.15 L 781.74 434.53999999999996 L 795.11 418.17999999999995 L 808.52 410.15 L 887.21 490.53999999999996 L 831.99 501.05999999999995 L 819.16 500.24 L 759.97 479.36" stroke-linecap="round" fill="grey"/><path stroke="darkgrey" stroke-width="0.1" d="M 723.67 157.10000000000002 L 709.53 166.55999999999995 L 664.6 197.09000000000003 L 606.76 236.26999999999998 L 593.12 210.55999999999995 L 589.61 203.95000000000005 L 585.45 196.08000000000004 L 614.01 183.83000000000004 L 637.09 167.26999999999998 L 647.14 158.48000000000002 L 625.49 138.51 L 638.24 130.01999999999998 L 636.47 127.23000000000002 L 666.99 104.76999999999998 L 713.04 70.57000000000005 L 755.58 111.37 L 770.57 125.39999999999998 L 723.67 157.10000000000002" stroke-linecap="round" fill="grey"/><path stroke="darkgrey" stroke-width="0.1" d="M 575.13 176.30999999999995 L 617.78 146.08000000000004 L 616.51 144.5 L 625.49 138.51 L 647.14 158.48000000000002 L 637.09 167.26999999999998 L 612.89 181.85000000000002 L 614.01 183.83000000000004 L 585.45 196.08000000000004 L 583.64 192.62 L 575.13 176.30999999999995" stroke-linecap="round" fill="grey"/><path stroke="darkgrey" stroke-width="0.1" d="M 621.56 107.36000000000001 L 707.03 63.710000000000036 L 713.04 70.57000000000005 L 666.99 104.76999999999998 L 636.47 127.23000000000002 L 638.24 130.01999999999998 L 625.49 138.51 L 616.51 144.5 L 617.78 146.08000000000004 L 575.13 176.30999999999995 L 565.84 158.67999999999995 L 556.51 141.04999999999995 L 589.04 124.17999999999995 L 621.56 107.36000000000001" stroke-linecap="round" fill="grey"/><path stroke="darkgrey" stroke-width="0.1" d="M 654.04 326.77 L 741.09 286.12 L 774.27 261.78 L 804.05 287.74 L 795.38 292.72 L 786.68 298.62 L 790.72 303.14 L 787.68 304.77 L 805.87 328.39 L 790.91 336.73 L 689.42 392.32000000000005 L 686.83 387.49 L 669.8 355.99 L 654.04 326.77" stroke-linecap="round" fill="grey"/><path stroke="darkgrey" stroke-width="0.1" d="M 637.74 294.96000000000004 L 693.46 267.47 L 763.21 223.62 L 811.38 192.11 L 838.97 219.86 L 774.27 261.78 L 741.09 286.12 L 654.04 326.77 L 651.04 320.87 L 643.75 306.70000000000005 L 637.74 294.96000000000004" stroke-linecap="round" fill="grey"/><path stroke="darkgrey" stroke-width="0.1" d="M 508.31 50.39999999999998 L 508.93 50.0 L 579.37 50.0 L 586.69 60.860000000000014 L 529.6600000000001 90.59000000000003 L 525.73 83.22000000000003 L 508.31 50.39999999999998" stroke-linecap="round" fill="grey"/><path stroke="darkgrey" stroke-width="0.1" d="M 689.42 392.32000000000005 L 790.91 336.73 L 809.83 361.73 L 780.97 378.9 L 767.79 387.34000000000003 L 795.11 418.17999999999995 L 781.74 434.53999999999996 L 779.28 432.15 L 767.52 437.9 L 720.63 450.95 L 716.16 442.57 L 709.99 430.98 L 697.2 406.95000000000005 L 689.42 392.32000000000005" stroke-linecap="round" fill="grey"/><path stroke="darkgrey" stroke-width="0.1" d="M 808.52 410.15 L 879.35 365.89 L 929.06 415.64 L 933.14 412.84000000000003 L 947.05 424.99 L 950.0 428.01 L 950.0 478.89 L 887.21 490.53999999999996 L 808.52 410.15" stroke-linecap="round" fill="grey"/><path stroke="darkgrey" stroke-width="0.1" d="M 780.97 378.9 L 809.83 361.73 L 790.91 336.73 L 805.87 328.39 L 820.58 320.21000000000004 L 833.69 312.95000000000005 L 841.05 308.83000000000004 L 855.65 320.32000000000005 L 950.0 396.53 L 950.0 422.92999999999995 L 947.05 424.99 L 933.14 412.84000000000003 L 929.06 415.64 L 879.35 365.89 L 808.52 410.15 L 780.97 378.9" stroke-linecap="round" fill="grey"/><path stroke="darkgrey" stroke-width="0.1" d="M 795.38 292.72 L 804.05 287.74 L 833.69 312.95000000000005 L 820.58 320.21000000000004 L 795.38 292.72" stroke-linecap="round" fill="grey"/><path stroke="darkgrey" stroke-width="0.1" d="M 737.24 195.37 L 800.2 153.09000000000003 L 828.14 179.15999999999997 L 811.38 192.11 L 763.21 223.62 L 737.24 195.37" stroke-linecap="round" fill="grey"/><path stroke="darkgrey" stroke-width="0.1" d="M 606.76 236.26999999999998 L 664.6 197.09000000000003 L 709.53 166.55999999999995 L 723.67 157.10000000000002 L 770.57 125.39999999999998 L 800.2 153.09000000000003 L 737.24 195.37 L 673.77 238.10000000000002 L 621.94 264.78 L 618.94 259.14 L 609.69 241.80999999999995 L 606.76 236.26999999999998" stroke-linecap="round" fill="grey"/><path stroke="darkgrey" stroke-width="0.1" d="M 812.38 287.08000000000004 L 860.93 244.86 L 903.59 283.22 L 855.65 320.32000000000005 L 841.05 308.83000000000004 L 812.38 287.08000000000004" stroke-linecap="round" fill="grey"/><path stroke="darkgrey" stroke-width="0.1" d="M 338.88 464.01 L 346.27 461.62 L 348.7 465.89 L 406.66 447.91 L 418.41 471.63 L 386.89 481.19000000000005 L 370.82 486.12 L 380.95 503.9 L 383.69 509.44000000000005 L 369.66 514.27 L 352.48 482.30999999999995 L 346.62 484.5899999999999 L 339.03 470.05999999999995 L 341.84 468.99 L 338.88 464.01" stroke-linecap="round" fill="grey"/><path stroke="darkgrey" stroke-width="0.1" d="M 260.31 556.64 L 279.61 546.02 L 291.4 565.79 L 296.40999999999997 574.23 L 327.51 626.6600000000001 L 304.46000000000004 637.49 L 275.26 590.03 L 260.31 556.64" stroke-linecap="round" fill="grey"/><path stroke="darkgrey" stroke-width="0.1" d="M 296.40999999999997 574.23 L 331.55 559.69 L 325.89 549.4300000000001 L 314.83 529.36 L 330.78 522.75 L 346.97 552.99 L 349.05 552.3199999999999 L 354.67 562.69 L 351.71 563.9100000000001 L 374.6 606.0799999999999 L 327.51 626.6600000000001 L 296.40999999999997 574.23" stroke-linecap="round" fill="grey"/><path stroke="darkgrey" stroke-width="0.1" d="M 50.0 578.04 L 56.62 574.8299999999999 L 62.17 581.19 L 72.11 576.4100000000001 L 67.25 569.65 L 98.39 556.24 L 109.1 573.77 L 80.43 588.1 L 50.0 603.27" stroke-linecap="round" fill="grey"/><path stroke="darkgrey" stroke-width="0.1" d="M 354.67 562.69 L 378.26 553.95 L 404.27 595.8199999999999 L 374.6 606.0799999999999 L 351.71 563.9100000000001 L 354.67 562.69" stroke-linecap="round" fill="grey"/><path stroke="darkgrey" stroke-width="0.1" d="M 369.66 514.27 L 383.69 509.44000000000005 L 396.44 523.9200000000001 L 409.32 546.63 L 417.52 561.27 L 431.47 585.9100000000001 L 404.27 595.8199999999999 L 378.26 553.95 L 356.45 518.79 L 369.66 514.27" stroke-linecap="round" fill="grey"/><path stroke="darkgrey" stroke-width="0.1" d="M 50.0 554.0699999999999 L 105.97999999999999 529.4100000000001 L 128.44 564.1600000000001 L 109.1 573.77 L 98.39 556.24 L 67.25 569.65 L 72.11 576.4100000000001 L 62.17 581.19 L 56.62 574.8299999999999 L 50.0 578.04" stroke-linecap="round" fill="grey"/><path stroke="darkgrey" stroke-width="0.1" d="M 315.6 438.81 L 330.51 431.39 L 387.58 409.34000000000003 L 395.56 425.9 L 322.77 450.5 L 315.6 438.81" stroke-linecap="round" fill="grey"/><path stroke="darkgrey" stroke-width="0.1" d="M 319.96 416.86 L 380.45 394.6 L 387.58 409.34000000000003 L 330.51 431.39 L 319.96 416.86" stroke-linecap="round" fill="grey"/><path stroke="darkgrey" stroke-width="0.1" d="M 301.73 393.33000000000004 L 367.31 365.08000000000004 L 380.45 394.6 L 319.96 416.86 L 301.73 393.33000000000004" stroke-linecap="round" fill="grey"/><path stroke="darkgrey" stroke-width="0.1" d="M 417.52 561.27 L 431.32 556.54 L 423.69 541.1 L 449.7 531.5899999999999 L 470.04 571.53 L 431.47 585.9100000000001 L 417.52 561.27" stroke-linecap="round" fill="grey"/><path stroke="darkgrey" stroke-width="0.1" d="M 75.84 669.14 L 68.95 660.6600000000001 L 90.45 651.4100000000001 L 86.56 645.8199999999999 L 78.31 633.98 L 87.97999999999999 629.4100000000001 L 89.02000000000001 630.98 L 98.96000000000001 626.31 L 121.39 656.85 L 119.35 657.9100000000001 L 154.45 704.41 L 104.47999999999999 728.49 L 87.17 705.02 L 80.03999999999999 694.4 L 98.31 686.1600000000001 L 100.97 690.28 L 113.72 684.1800000000001 L 106.86 673.0 L 87.14 683.1700000000001 L 81.39 675.95 L 75.84 669.14" stroke-linecap="round" fill="grey"/><path stroke="darkgrey" stroke-width="0.1" d="M 229.98 405.88 L 276.72 387.78999999999996 L 262.69 364.78 L 307.74 343.38 L 348.39 326.57000000000005 L 367.31 365.08000000000004 L 301.73 393.33000000000004 L 240.27 421.58000000000004 L 229.98 405.88" stroke-linecap="round" fill="grey"/><path stroke="darkgrey" stroke-width="0.1" d="M 57.16 472.54999999999995 L 128.67000000000002 440.13 L 224.31 396.94000000000005 L 229.98 405.88 L 240.27 421.58000000000004 L 257.69 448.26 L 113.11 514.88 L 93.22 486.01 L 72.34 496.53 L 57.16 472.54999999999995" stroke-linecap="round" fill="grey"/><path stroke="darkgrey" stroke-width="0.1" d="M 238.5 322.79999999999995 L 325.85 280.22 L 344.39 318.38 L 348.39 326.57000000000005 L 307.74 343.38 L 303.31 335.46000000000004 L 298.91999999999996 327.53 L 250.17 348.11 L 235.84 324.33000000000004 L 238.5 322.79999999999995" stroke-linecap="round" fill="grey"/><path stroke="darkgrey" stroke-width="0.1" d="M 222.85 301.77 L 246.63 289.41999999999996 L 245.62 287.49 L 250.4 284.75 L 255.6 282.1 L 254.8 280.63 L 312.25 253.39 L 325.85 280.22 L 238.5 322.79999999999995 L 222.85 301.77" stroke-linecap="round" fill="grey"/><path stroke="darkgrey" stroke-width="0.1" d="M 234.49 265.64 L 299.19 226.57000000000005 L 312.25 253.39 L 254.8 280.63 L 255.6 282.1 L 250.4 284.75 L 234.49 265.64" stroke-linecap="round" fill="grey"/><path stroke="darkgrey" stroke-width="0.1" d="M 98.96000000000001 626.31 L 97.65 624.53 L 103.7 621.4300000000001 L 115.42 615.4300000000001 L 143.97 658.1700000000001 L 152.3 654.25 L 179.81 692.8199999999999 L 154.45 704.41 L 119.35 657.9100000000001 L 121.39 656.85 L 98.96000000000001 626.31" stroke-linecap="round" fill="grey"/><path stroke="darkgrey" stroke-width="0.1" d="M 299.19 226.57000000000005 L 234.49 265.64 L 210.71 278.95000000000005 L 204.62 271.23 L 203.2 272.03999999999996 L 195.95 263.29999999999995 L 203.08 258.67999999999995 L 201.85 257.40999999999997 L 203.24 256.39 L 223.43 242.98000000000002 L 223.85 242.66999999999996 L 236.95 234.03999999999996 L 231.37 228.19000000000005 L 239.96 222.45000000000005 L 223.35 205.77999999999997 L 235.18 198.15999999999997 L 194.34 166.10000000000002 L 244.51 134.39 L 252.41 135.97000000000003 L 299.19 226.57000000000005" stroke-linecap="round" fill="grey"/><path stroke="darkgrey" stroke-width="0.1" d="M 163.35 619.14 L 205.39 680.88 L 179.81 692.8199999999999 L 152.3 654.25 L 148.98000000000002 649.63 L 158.54000000000002 645.31 L 145.51 627.6800000000001 L 163.35 619.14" stroke-linecap="round" fill="grey"/><path stroke="darkgrey" stroke-width="0.1" d="M 162.16 617.4200000000001 L 195.18 603.7 L 234.41 667.8199999999999 L 205.39 680.88 L 163.35 619.14 L 162.16 617.4200000000001" stroke-linecap="round" fill="grey"/><path stroke="darkgrey" stroke-width="0.1" d="M 380.95 503.9 L 394.83 500.0899999999999 L 427.85 490.0799999999999 L 438.29 510.51 L 396.44 523.9200000000001 L 383.69 509.44000000000005 L 380.95 503.9" stroke-linecap="round" fill="grey"/><path stroke="darkgrey" stroke-width="0.1" d="M 195.18 603.7 L 218.38 595.52 L 257.8 657.6600000000001 L 234.41 667.8199999999999 L 195.18 603.7" stroke-linecap="round" fill="grey"/><path stroke="darkgrey" stroke-width="0.1" d="M 386.89 481.19000000000005 L 418.41 471.63 L 427.85 490.0799999999999 L 394.83 500.0899999999999 L 386.89 481.19000000000005" stroke-linecap="round" fill="grey"/><path stroke="darkgrey" stroke-width="0.1" d="M 205.86 574.6800000000001 L 237.03 564.5699999999999 L 274.76 635.3 L 270.32 637.49 L 278.49 649.12 L 257.8 657.6600000000001 L 218.38 595.52 L 205.86 574.6800000000001" stroke-linecap="round" fill="grey"/><path stroke="darkgrey" stroke-width="0.1" d="M 237.03 564.5699999999999 L 260.31 556.64 L 275.26 590.03 L 304.46000000000004 637.49 L 278.49 649.12 L 270.32 637.49 L 274.76 635.3 L 237.03 564.5699999999999" stroke-linecap="round" fill="grey"/><path stroke="darkgrey" stroke-width="0.1" d="M 50.0 603.27 L 80.43 588.1 L 103.7 621.4300000000001 L 97.65 624.53 L 98.96000000000001 626.31 L 89.02000000000001 630.98 L 87.97999999999999 629.4100000000001 L 78.31 633.98 L 50.0 646.4100000000001" stroke-linecap="round" fill="grey"/><path stroke="darkgrey" stroke-width="0.1" d="M 322.77 450.5 L 395.56 425.9 L 406.66 447.91 L 348.7 465.89 L 346.27 461.62 L 338.88 464.01 L 331.48 466.71000000000004 L 322.77 450.5" stroke-linecap="round" fill="grey"/><path stroke="darkgrey" stroke-width="0.1" d="M 396.44 523.9200000000001 L 438.29 510.51 L 449.7 531.5899999999999 L 423.69 541.1 L 409.32 546.63 L 396.44 523.9200000000001" stroke-linecap="round" fill="grey"/><path stroke="darkgrey" stroke-width="0.1" d="M 196.88 213.35000000000002 L 207.9 205.16999999999996 L 205.9 203.24 L 214.49 196.84000000000003 L 223.35 205.77999999999997 L 239.96 222.45000000000005 L 231.37 228.19000000000005 L 236.95 234.03999999999996 L 223.85 242.66999999999996 L 217.76 236.16999999999996 L 196.88 213.35000000000002" stroke-linecap="round" fill="grey"/><path stroke="darkgrey" stroke-width="0.1" d="M 175.88 286.12 L 203.2 272.03999999999996 L 204.62 271.23 L 210.71 278.95000000000005 L 234.49 265.64 L 250.4 284.75 L 245.62 287.49 L 246.63 289.41999999999996 L 222.85 301.77 L 212.56 287.9 L 188.21 301.21000000000004 L 175.88 286.12" stroke-linecap="round" fill="grey"/><path stroke="darkgrey" stroke-width="0.1" d="M 123.43 215.08000000000004 L 147.29000000000002 198.62 L 196.22 248.87 L 203.24 256.39 L 201.85 257.40999999999997 L 203.08 258.67999999999995 L 195.95 263.29999999999995 L 203.2 272.03999999999996 L 175.88 286.12 L 167.75 276.26 L 178.0 269.76 L 123.43 215.08000000000004" stroke-linecap="round" fill="grey"/><path stroke="darkgrey" stroke-width="0.1" d="M 199.27 486.27 L 235.45 471.53 L 260.53999999999996 513.76 L 241.54 522.04 L 245.78 529.76 L 236.53 533.12 L 246.86 549.4300000000001 L 274.68 537.69 L 279.61 546.02 L 260.31 556.64 L 237.03 564.5699999999999 L 199.27 486.27" stroke-linecap="round" fill="grey"/><path stroke="darkgrey" stroke-width="0.1" d="M 290.9 448.82 L 315.6 438.81 L 322.77 450.5 L 331.48 466.71000000000004 L 338.88 464.01 L 341.84 468.99 L 339.03 470.05999999999995 L 346.62 484.5899999999999 L 352.48 482.30999999999995 L 369.66 514.27 L 356.45 518.79 L 378.26 553.95 L 354.67 562.69 L 349.05 552.3199999999999 L 346.97 552.99 L 330.78 522.75 L 290.9 448.82" stroke-linecap="round" fill="grey"/><path stroke="darkgrey" stroke-width="0.1" d="M 50.0 371.44000000000005 L 106.21000000000001 343.89 L 109.72 348.87 L 111.72 348.05999999999995 L 136.54000000000002 384.95000000000005 L 102.7 400.65 L 117.88 423.72 L 128.67000000000002 440.13 L 57.16 472.54999999999995 L 50.0 461.53" stroke-linecap="round" fill="grey"/><path stroke="darkgrey" stroke-width="0.1" d="M 135.34 309.03 L 175.88 286.12 L 188.21 301.21000000000004 L 215.3 335.86 L 172.76 356.49 L 135.34 309.03" stroke-linecap="round" fill="grey"/><path stroke="darkgrey" stroke-width="0.1" d="M 147.29000000000002 198.62 L 168.29000000000002 184.09000000000003 L 196.88 213.35000000000002 L 217.76 236.16999999999996 L 196.22 248.87 L 147.29000000000002 198.62" stroke-linecap="round" fill="grey"/><path stroke="darkgrey" stroke-width="0.1" d="M 123.43 215.08000000000004 L 178.0 269.76 L 167.75 276.26 L 175.88 286.12 L 135.34 309.03 L 124.74 297.5 L 83.05 255.67999999999995 L 75.0 247.45000000000005 L 123.43 215.08000000000004" stroke-linecap="round" fill="grey"/><path stroke="darkgrey" stroke-width="0.1" d="M 115.42 615.4300000000001 L 131.06 608.22 L 145.51 627.6800000000001 L 158.54000000000002 645.31 L 148.98000000000002 649.63 L 152.3 654.25 L 143.97 658.1700000000001 L 115.42 615.4300000000001" stroke-linecap="round" fill="grey"/><path stroke="darkgrey" stroke-width="0.1" d="M 296.40999999999997 574.23 L 291.4 565.79 L 307.82 558.98 L 306.82 557.36 L 325.89 549.4300000000001 L 331.55 559.69 L 296.40999999999997 574.23" stroke-linecap="round" fill="grey"/><path stroke="darkgrey" stroke-width="0.1" d="M 146.63 592.37 L 202.7 570.26 L 205.86 574.6800000000001 L 218.38 595.52 L 195.18 603.7 L 162.16 617.4200000000001 L 150.75 598.97 L 146.63 592.37" stroke-linecap="round" fill="grey"/><path stroke="darkgrey" stroke-width="0.1" d="M 240.27 421.58000000000004 L 301.73 393.33000000000004 L 319.96 416.86 L 330.51 431.39 L 315.6 438.81 L 290.9 448.82 L 264.7 459.54 L 257.69 448.26 L 240.27 421.58000000000004" stroke-linecap="round" fill="grey"/><path stroke="darkgrey" stroke-width="0.1" d="M 168.29000000000002 184.09000000000003 L 194.34 166.10000000000002 L 235.18 198.15999999999997 L 223.35 205.77999999999997 L 214.49 196.84000000000003 L 205.9 203.24 L 207.9 205.16999999999996 L 196.88 213.35000000000002 L 168.29000000000002 184.09000000000003" stroke-linecap="round" fill="grey"/><path stroke="darkgrey" stroke-width="0.1" d="M 67.78999999999999 500.39 L 73.34 497.70000000000005 L 72.34 496.53 L 93.22 486.01 L 113.11 514.88 L 111.87 515.44 L 112.45 516.4 L 86.02000000000001 528.6 L 67.78999999999999 500.39" stroke-linecap="round" fill="grey"/><path stroke="darkgrey" stroke-width="0.1" d="M 80.43 588.1 L 109.1 573.77 L 128.44 564.1600000000001 L 146.63 592.37 L 150.75 598.97 L 131.06 608.22 L 115.42 615.4300000000001 L 103.7 621.4300000000001 L 80.43 588.1" stroke-linecap="round" fill="grey"/><path stroke="darkgrey" stroke-width="0.1" d="M 235.45 471.53 L 264.7 459.54 L 290.9 448.82 L 330.78 522.75 L 314.83 529.36 L 308.09 517.47 L 271.9 532.97 L 260.53999999999996 513.76 L 235.45 471.53" stroke-linecap="round" fill="grey"/><path stroke="darkgrey" stroke-width="0.1" d="M 459.29 868.22 L 471.59 867.56 L 471.66 872.39 L 483.15 882.04 L 494.63 891.75 L 499.79 891.8 L 500.22 901.81 L 495.05 901.66 L 482.84 911.41 L 470.58 921.22 L 470.43 927.62 L 458.18 926.05 L 458.33 922.08 L 447.85 912.89 L 437.37 903.74 L 431.59 903.79 L 431.59 891.34 L 436.87 891.45 L 448.23 882.2 L 459.6 872.95 L 459.29 868.22" stroke-linecap="round" fill="grey"/><path stroke="darkgrey" stroke-width="0.1" d="M 719.51 766.04 L 723.36 764.8199999999999 L 724.14 766.75 L 835.81 731.59 L 835.0 729.66 L 839.58 728.19 L 841.16 731.84 L 849.02 729.86 L 847.25 725.75 L 871.56 718.0699999999999 L 929.67 888.29 L 910.29 911.11 L 756.43 872.39 L 777.12 813.35 L 738.59 813.75 L 719.51 766.04" stroke-linecap="round" fill="grey"/><path stroke="darkgrey" stroke-width="0.1" d="M 282.08000000000004 906.49 L 384.5 871.9300000000001 L 386.0 878.74 L 474.22 950.0 L 335.57 950.0 L 314.37 932.45 L 282.08000000000004 906.49" stroke-linecap="round" fill="grey"/><path stroke="darkgrey" stroke-width="0.1" d="M 719.51 766.04 L 738.59 813.75 L 777.12 813.35 L 756.43 872.39 L 589.5 830.72 L 587.92 807.5 L 719.51 766.04" stroke-linecap="round" fill="grey"/><path stroke="darkgrey" stroke-width="0.1" d="M 660.67 905.72 L 643.77 950.0 L 515.76 950.0 L 542.37 875.9 L 547.96 877.3199999999999 L 579.06 885.14 L 601.52 890.78 L 622.14 896.02 L 656.32 904.61 L 660.67 905.72" stroke-linecap="round" fill="grey"/><path stroke="#408040" stroke-width="17.307692307692307" d="M 893.99 935.3 L 826.13 917.71 L 567.53 852.22 L 561.95 847.8 L 558.25 842.16 L 550.7 820.21 L 540.52 794.29" stroke-linecap="round" fill="none"/><path stroke="#408040" stroke-width="17.307692307692307" d="M 870.64 545.31 L 898.38 625.14" stroke-linecap="round" fill="none"/><path stroke="#408040" stroke-width="17.307692307692307" d="M 506.19 132.36 L 543.4100000000001 116.45000000000005 L 673.77 50.0" stroke-linecap="round" fill="none"/><path stroke="#408040" stroke-width="17.307692307692307" d="M 506.19 132.36 L 461.52 50.0" stroke-linecap="round" fill="none"/><path stroke="#408040" stroke-width="17.307692307692307" d="M 950.0 530.6 L 870.64 545.31" stroke-linecap="round" fill="none"/><path stroke="#408040" stroke-width="17.307692307692307" d="M 870.64 545.31 L 853.18 543.0799999999999 L 837.62 538.81 L 759.12 517.01 L 741.55 513.61 L 721.21 516.65" stroke-linecap="round" fill="none"/><path stroke="#408040" stroke-width="17.307692307692307" d="M 278.49 103.5 L 384.04 302.12 L 515.48 553.24" stroke-linecap="round" fill="none"/><path stroke="#408040" stroke-width="13.846153846153847" d="M 145.94 922.03 L 182.93 909.69 L 413.32 835.35 L 497.67 808.11 L 540.52 794.29" stroke-linecap="round" fill="none"/><path stroke="#00ff00" stroke-width="6.923076923076923" d="M 384.04 302.12 L 344.39 318.38" stroke-linecap="round" fill="none"/><path stroke="#408040" stroke-width="17.307692307692307" d="M 532.47 584.9 L 615.62 554.2 L 678.82 530.88 L 721.21 516.65" stroke-linecap="round" fill="none"/><path stroke="#408040" stroke-width="17.307692307692307" d="M 532.47 584.9 L 489.73 600.04 L 330.55 661.06 L 82.24000000000001 771.88 L 68.83 777.88 L 50.0 786.99" stroke-linecap="round" fill="none"/><path stroke="#00ff00" stroke-width="6.923076923076923" d="M 303.31 335.46000000000004 L 117.88 423.72" stroke-linecap="round" fill="none"/><path stroke="#00ff00" stroke-width="6.923076923076923" d="M 344.39 318.38 L 303.31 335.46000000000004" stroke-linecap="round" fill="none"/><path stroke="#00ff00" stroke-width="6.923076923076923" d="M 117.88 423.72 L 50.0 456.06" stroke-linecap="round" fill="none"/><path stroke="#00ff00" stroke-width="6.923076923076923" d="M 245.66 461.02 L 50.0 550.5" stroke-linecap="round" fill="none"/><path stroke="#00ff00" stroke-width="8.653846153846153" d="M 455.21 187.44000000000005 L 490.81 255.26999999999998" stroke-linecap="round" fill="none"/><path stroke="#00ff00" stroke-width="8.653846153846153" d="M 396.6 211.41999999999996 L 431.9 276.66999999999996" stroke-linecap="round" fill="none"/><path stroke="#408040" stroke-width="13.846153846153847" d="M 401.43 50.0 L 419.87 83.12 L 506.19 132.36" stroke-linecap="round" fill="none"/><path stroke="#408040" stroke-width="13.846153846153847" d="M 506.19 132.36 L 376.33 118.84000000000003 L 332.21 118.74000000000001 L 278.49 103.5" stroke-linecap="round" fill="none"/><path stroke="#408040" stroke-width="13.846153846153847" d="M 506.19 132.36 L 510.54 205.48000000000002 L 490.81 255.26999999999998 L 462.76 264.41999999999996 L 431.9 276.66999999999996 L 384.04 302.12" stroke-linecap="round" fill="none"/><path stroke="#00ff00" stroke-width="6.923076923076923" d="M 680.44 506.39 L 707.33 497.65 L 732.57 489.4200000000001" stroke-linecap="round" fill="none"/><path stroke="#00ff00" stroke-width="6.923076923076923" d="M 501.03 557.0 L 515.48 553.24" stroke-linecap="round" fill="none"/><path stroke="#408040" stroke-width="13.846153846153847" d="M 503.61 327.58000000000004 L 460.41 348.01 L 560.9100000000001 540.4300000000001 L 526.65 550.3399999999999" stroke-linecap="round" fill="none"/><path stroke="#408040" stroke-width="13.846153846153847" d="M 338.57 50.0 L 376.33 118.84000000000003 L 439.68 228.95000000000005 L 462.76 264.41999999999996 L 503.61 327.58000000000004 L 533.89 322.45000000000005 L 594.08 432.91999999999996 L 673.81 500.75 L 680.44 506.39" stroke-linecap="round" fill="none"/><path stroke="#408040" stroke-width="13.846153846153847" d="M 346.04 693.6800000000001 L 258.07 810.1 L 182.93 909.69" stroke-linecap="round" fill="none"/><path stroke="#408040" stroke-width="13.846153846153847" d="M 71.07 757.15 L 82.24000000000001 771.88 L 92.99000000000001 786.06 L 258.07 810.1 L 413.32 835.35" stroke-linecap="round" fill="none"/><path stroke="#00ff00" stroke-width="6.923076923076923" d="M 392.36 203.54999999999995 L 396.6 211.41999999999996" stroke-linecap="round" fill="none"/><path stroke="#00ff00" stroke-width="6.923076923076923" d="M 451.12 179.66999999999996 L 455.21 187.44000000000005" stroke-linecap="round" fill="none"/><path stroke="#408040" stroke-width="17.307692307692307" d="M 540.52 794.29 L 890.41 678.54" stroke-linecap="round" fill="none"/><path stroke="#408040" stroke-width="17.307692307692307" d="M 721.21 516.65 L 707.33 497.65 L 682.29 472.45000000000005 L 593.85 301.62 L 506.19 132.36" stroke-linecap="round" fill="none"/><path stroke="#408040" stroke-width="13.846153846153847" d="M 501.03 557.0 L 492.59 560.1 L 474.05 577.3199999999999 L 367.47 615.99 L 95.5 745.11 L 71.07 757.15 L 56.08 764.52 L 50.0 767.6" stroke-linecap="round" fill="none"/><path stroke="#408040" stroke-width="13.846153846153847" d="M 497.67 808.11 L 533.4300000000001 825.54" stroke-linecap="round" fill="none"/><path stroke="#00ff00" stroke-width="6.923076923076923" d="M 533.4300000000001 825.54 L 550.7 820.21 L 571.85 814.41" stroke-linecap="round" fill="none"/><path stroke="#408040" stroke-width="13.846153846153847" d="M 571.85 814.41 L 579.48 812.4300000000001 L 584.22 800.09 L 871.64 709.69" stroke-linecap="round" fill="none"/><path stroke="#408040" stroke-width="13.846153846153847" d="M 560.9100000000001 540.4300000000001 L 673.81 500.75" stroke-linecap="round" fill="none"/><path stroke="#408040" stroke-width="13.846153846153847" d="M 950.0 500.69000000000005 L 924.78 504.55999999999995 L 833.99 513.96 L 759.7 491.1 L 738.2 484.0799999999999 L 732.57 489.4200000000001" stroke-linecap="round" fill="none"/><path stroke="#408040" stroke-width="17.307692307692307" d="M 515.48 553.24 L 532.47 584.9" stroke-linecap="round" fill="none"/><path stroke="#00ff00" stroke-width="6.923076923076923" d="M 515.48 553.24 L 526.65 550.3399999999999" stroke-linecap="round" fill="none"/><path stroke="#408040" stroke-width="24.230769230769234" d="M 691.15 263.51 L 633.7 287.24" stroke-linecap="round" fill="none"/><path stroke="#408040" stroke-width="24.230769230769234" d="M 633.7 287.24 L 593.85 301.62" stroke-linecap="round" fill="none"/><path stroke="#408040" stroke-width="24.230769230769234" d="M 745.71 214.57000000000005 L 717.89 231.44000000000005 L 706.49 254.40999999999997 L 691.15 263.51" stroke-linecap="round" fill="none"/><path stroke="#408040" stroke-width="13.846153846153847" d="M 330.55 661.06 L 335.06 670.5699999999999 L 346.04 693.6800000000001 L 368.97 741.96 L 408.39 824.98 L 413.32 835.35" stroke-linecap="round" fill="none"/><path stroke="#00ff00" stroke-width="8.653846153846153" d="M 407.5 729.61 L 416.29 726.92" stroke-linecap="round" fill="none"/><path stroke="#00ff00" stroke-width="8.653846153846153" d="M 383.04 737.23 L 386.93 735.91" stroke-linecap="round" fill="none"/><path stroke="#00ff00" stroke-width="8.653846153846153" d="M 629.3 583.6800000000001 L 634.08 593.89" stroke-linecap="round" fill="none"/><path stroke="#408040" stroke-width="13.846153846153847" d="M 615.62 554.2 L 629.3 583.6800000000001" stroke-linecap="round" fill="none"/><path stroke="#00ff00" stroke-width="6.923076923076923" d="M 386.93 735.91 L 407.5 729.61" stroke-linecap="round" fill="none"/><path stroke="#408040" stroke-width="13.846153846153847" d="M 368.97 741.96 L 383.04 737.23" stroke-linecap="round" fill="none"/></svg>