<svg xmlns="http://www.w3.org/2000/svg" viewBox="0 0 1000 1000" width="1000mm" height="1000mm"><style >

.small { font: 10px sans-serif; fill:black}
svg {background-color: white;}
.smallevidence { font: 10px sans-serif; fill:red}
.heavy { font: bold 30px sans-serif; }
.heavyevidence { font: bold 30px sans-serif; fill:red}

.title { font: italic 40px sans-serif; fill:red; }

</style><path stroke="darkgrey" stroke-width="0.1" d="M 329.31 651.1700000000001 L 379.03 666.61 L 381.68 667.44 L 392.35 670.75 L 395.14 671.62 L 380.65 718.23 L 314.82 697.78 L 323.02 671.38 L 322.32 671.1800000000001 L 319.92 674.0699999999999 L 316.42 676.29 L 312.41 677.3199999999999 L 308.28 677.06 L 304.43 675.53 L 301.24 672.88 L 299.02 669.38 L 297.99 665.37 L 298.25 661.24 L 299.77 657.39 L 302.41999999999996 654.2 L 305.91999999999996 651.98 L 309.93 650.96 L 314.06 651.22 L 317.92 652.75 L 327.89 655.72 L 329.31 651.1700000000001" stroke-linecap="round" fill="grey"/><path stroke="darkgrey" stroke-width="0.1" d="M 427.63 566.52 L 427.66 572.35 L 421.83 572.38 L 421.94 591.51 L 473.78 591.21 L 473.64 566.26 L 427.63 566.52" stroke-linecap="round" fill="grey"/><path stroke="darkgrey" stroke-width="0.1" d="M 500.12 608.1 L 501.34 528.4300000000001 L 516.64 528.85 L 526.15 520.99 L 556.61 521.0 L 599.74 521.4 L 611.73 533.4 L 586.09 557.78 L 570.7 557.95 L 555.9100000000001 557.78 L 538.96 573.9100000000001 L 538.9 604.9100000000001 L 503.74 604.65 L 500.12 608.1" stroke-linecap="round" fill="grey"/><path stroke="darkgrey" stroke-width="0.1" d="M 381.82 561.0799999999999 L 381.91 598.3299999999999 L 407.75 598.27 L 407.65 561.01 L 381.82 561.0799999999999" stroke-linecap="round" fill="grey"/><path stroke="darkgrey" stroke-width="0.1" d="M 308.96 528.76 L 309.36 562.04 L 381.82 561.0799999999999 L 407.65 561.01 L 473.16 560.13 L 472.77 526.86 L 408.04 527.61 L 384.89 527.88 L 308.96 528.76" stroke-linecap="round" fill="grey"/><path stroke="darkgrey" stroke-width="0.1" d="M 325.39 455.84 L 325.18 487.72 L 385.47 488.12 L 408.62 488.27 L 557.36 489.26 L 619.59 489.68000000000006 L 619.8 457.53 L 562.88 457.15 L 539.73 456.99 L 539.9300000000001 427.23 L 481.39 426.82000000000005 L 481.19 456.87 L 459.84 456.73 L 410.72 456.41 L 380.86 456.21 L 325.39 455.84" stroke-linecap="round" fill="grey"/><path stroke="darkgrey" stroke-width="0.1" d="M 500.03 627.51 L 499.66 650.99 L 510.03 662.78 L 570.37 662.98 L 573.46 659.73 L 581.96 650.79 L 578.96 647.6600000000001 L 572.45 640.88 L 513.14 641.0 L 500.03 627.51" stroke-linecap="round" fill="grey"/><path stroke="darkgrey" stroke-width="0.1" d="M 309.9 598.45 L 309.81 627.23 L 309.79 630.9200000000001 L 379.37 631.13 L 381.87 631.15 L 392.1 631.1800000000001 L 406.07 631.23 L 459.16 631.4 L 470.6 631.4300000000001 L 470.69 598.96 L 407.75 598.27 L 381.91 598.3299999999999 L 309.9 598.45" stroke-linecap="round" fill="grey"/><path stroke="darkgrey" stroke-width="0.1" d="M 503.74 604.65 L 500.12 608.1 L 490.35 617.54 L 500.03 627.51 L 513.14 641.0 L 572.45 640.88 L 578.96 647.6600000000001 L 581.96 650.79 L 573.46 659.73 L 577.48 659.75 L 625.86 659.76 L 633.66 659.73 L 662.58 629.3 L 658.14 623.52 L 653.07 616.9 L 635.54 616.29 L 628.37 616.03 L 616.91 616.0699999999999 L 586.09 615.24 L 577.71 604.85 L 570.96 604.9100000000001 L 538.9 604.9100000000001 L 503.74 604.65" stroke-linecap="round" fill="grey"/><path stroke="darkgrey" stroke-width="0.1" d="M 385.47 488.12 L 384.89 527.88 L 408.04 527.61 L 408.62 488.27 L 385.47 488.12" stroke-linecap="round" fill="grey"/><path stroke="darkgrey" stroke-width="0.1" d="M 570.7 557.95 L 570.96 604.9100000000001 L 577.71 604.85 L 586.09 615.24 L 616.91 616.0699999999999 L 605.73 599.96 L 605.95 547.45 L 611.73 533.4 L 586.09 557.78 L 570.7 557.95" stroke-linecap="round" fill="grey"/><path stroke="darkgrey" stroke-width="0.1" d="M 299.06 384.0 L 298.03 487.64 L 325.18 487.72 L 325.39 455.84 L 325.81 419.84000000000003 L 381.22 420.4 L 380.86 456.21 L 410.72 456.41 L 411.09 418.38 L 460.21 418.87 L 459.84 456.73 L 481.19 456.87 L 481.39 426.82000000000005 L 481.53 418.17999999999995 L 540.05 418.75 L 539.9300000000001 427.23 L 539.73 456.99 L 562.88 457.15 L 563.25 418.96000000000004 L 620.24 419.53 L 619.8 457.53 L 619.59 489.68000000000006 L 642.2 489.95000000000005 L 642.52 456.82 L 643.25 384.22 L 630.35 384.08000000000004 L 630.53 366.28999999999996 L 619.99 366.17999999999995 L 603.2 366.02 L 603.16 371.23 L 577.65 370.97 L 577.85 350.78 L 581.18 350.80999999999995 L 587.36 350.87 L 587.67 319.17999999999995 L 581.59 319.11 L 578.16 319.08000000000004 L 578.2 314.61 L 573.09 314.57000000000005 L 461.28 314.84000000000003 L 436.78 314.24 L 430.7 314.03999999999996 L 422.82 313.49 L 375.59 313.01 L 375.02 370.73 L 374.48 384.74 L 299.06 384.0" stroke-linecap="round" fill="grey"/><path stroke="darkgrey" stroke-width="0.1" d="M 279.71000000000004 143.01999999999998 L 309.33 153.98000000000002 L 306.63 161.27999999999997 L 332.17 170.72000000000003 L 315.7 215.26999999999998 L 307.65 237.03999999999996 L 302.35 235.10000000000002 L 254.04 217.46000000000004 L 252.41 216.87 L 279.71000000000004 143.01999999999998" stroke-linecap="round" fill="grey"/><path stroke="darkgrey" stroke-width="0.1" d="M 272.16999999999996 248.49 L 261.3 244.51999999999998 L 263.28999999999996 239.09000000000003 L 241.06 230.95000000000005 L 239.32 235.73000000000002 L 222.49 229.58000000000004 L 213.34 226.14 L 211.69 230.66999999999996 L 206.14 228.66999999999996 L 203.19 236.80999999999995 L 201.16 236.07000000000005 L 193.27 257.82000000000005 L 198.75 259.72 L 205.88 262.32000000000005 L 208.85 254.14 L 248.89 268.23 L 263.03999999999996 273.40999999999997 L 272.16999999999996 248.49" stroke-linecap="round" fill="grey"/><path stroke="darkgrey" stroke-width="0.1" d="M 247.54 389.17999999999995 L 254.26 369.85 L 259.31 355.28 L 196.32 332.0 L 176.62 324.77 L 173.94 331.72 L 165.06 328.21000000000004 L 160.3 341.85 L 157.82 340.6 L 151.42000000000002 358.78999999999996 L 171.26 366.44000000000005 L 174.15 369.53999999999996 L 154.51999999999998 385.46000000000004 L 143.36 381.12 L 139.84 390.83000000000004 L 152.87 395.59000000000003 L 183.45 368.91999999999996 L 183.86 366.44000000000005 L 247.54 389.17999999999995" stroke-linecap="round" fill="grey"/><path stroke="darkgrey" stroke-width="0.1" d="M 282.74 246.47000000000003 L 268.03999999999996 286.57000000000005 L 245.24 278.20000000000005 L 236.22 303.55999999999995 L 250.84 309.19000000000005 L 240.93 337.09000000000003 L 273.16999999999996 348.66999999999996 L 278.53 333.57000000000005 L 315.96 346.82000000000005 L 327.12 320.35 L 327.38 296.82000000000005 L 327.73 284.17999999999995 L 323.8 276.95000000000005 L 316.57 274.04999999999995 L 317.61 268.27 L 312.23 266.61 L 315.13 258.34000000000003 L 302.39 253.66999999999996 L 297.59000000000003 251.91999999999996 L 282.74 246.47000000000003" stroke-linecap="round" fill="grey"/><path stroke="darkgrey" stroke-width="0.1" d="M 53.85 426.17999999999995 L 128.67000000000002 453.46 L 125.37 462.3399999999999 L 143.36 468.96000000000004 L 146.66 459.46 L 161.13 464.62 L 153.9 485.29999999999995 L 171.06 491.70000000000005 L 165.48000000000002 509.27 L 170.42000000000002 510.72 L 171.5 507.77 L 172.91 503.89 L 184.08 507.81999999999994 L 199.99 501.4100000000001 L 221.49 440.65 L 185.54 428.07000000000005 L 108.63 401.16999999999996 L 115.24 383.17999999999995 L 124.75 386.28 L 126.4 390.83000000000004 L 130.95 389.38 L 135.3 385.04999999999995 L 138.81 380.08000000000004 L 139.43 371.20000000000005 L 138.39 367.89 L 104.9 355.9 L 97.44 353.48 L 87.55 381.12 L 85.68 380.5 L 67.77 373.9 L 65.21000000000001 381.53 L 68.31 382.77 L 53.85 426.17999999999995" stroke-linecap="round" fill="grey"/><path stroke="darkgrey" stroke-width="0.1" d="M 758.94 755.46 L 748.17 743.75 L 744.58 739.85 L 779.58 707.69 L 793.95 723.3199999999999 L 758.94 755.46" stroke-linecap="round" fill="grey"/><path stroke="darkgrey" stroke-width="0.1" d="M 712.95 454.3 L 727.14 447.44 L 679.69 365.98 L 687.92 360.72 L 703.99 385.85 L 700.34 388.17999999999995 L 734.66 447.1 L 735.96 449.32 L 714.83 459.12 L 713.87 456.67 L 712.95 454.3" stroke-linecap="round" fill="grey"/><path stroke="darkgrey" stroke-width="0.1" d="M 768.54 396.80999999999995 L 765.41 399.25 L 762.49 401.29999999999995 L 758.02 395.27 L 760.39 393.51 L 734.19 358.15999999999997 L 731.27 360.32000000000005 L 717.12 341.20000000000005 L 720.48 338.71000000000004 L 687.7 294.46000000000004 L 690.94 292.05999999999995 L 768.54 396.80999999999995" stroke-linecap="round" fill="grey"/><path stroke="darkgrey" stroke-width="0.1" d="M 747.06 473.8399999999999 L 739.52 476.97 L 729.98 480.95000000000005 L 720.48 484.9100000000001 L 713.24 489.5799999999999 L 664.8 521.14 L 635.82 540.5 L 635.54 616.29 L 653.07 616.9 L 666.35 610.46 L 761.21 608.8399999999999 L 773.0 608.5 L 771.12 598.73 L 767.51 580.03 L 765.72 570.73 L 764.47 564.26 L 762.62 554.7 L 761.42 548.44 L 759.88 540.4300000000001 L 758.26 532.01 L 756.91 524.95 L 756.83 524.5799999999999 L 756.61 523.47 L 755.43 517.29 L 754.76 513.8299999999999 L 754.42 512.0799999999999 L 754.07 510.26 L 753.96 509.6700000000001 L 753.81 508.87 L 752.79 503.63 L 752.68 503.05999999999995 L 752.54 502.3299999999999 L 751.53 497.0799999999999 L 751.31 495.9 L 749.59 486.99 L 747.06 473.8399999999999" stroke-linecap="round" fill="grey"/><path stroke="darkgrey" stroke-width="0.1" d="M 677.97 625.89 L 677.53 658.64 L 708.37 659.05 L 708.82 626.31 L 704.59 626.25 L 677.97 625.89" stroke-linecap="round" fill="grey"/><path stroke="darkgrey" stroke-width="0.1" d="M 676.8 671.03 L 676.49 695.63 L 695.13 695.86 L 695.44 671.26 L 676.8 671.03" stroke-linecap="round" fill="grey"/><path stroke="darkgrey" stroke-width="0.1" d="M 488.11 127.88 L 503.42 127.25 L 527.0899999999999 136.34000000000003 L 547.44 158.65999999999997 L 586.71 203.72000000000003 L 615.66 255.60000000000002 L 623.72 271.11 L 593.22 276.32000000000005 L 581.93 276.13 L 546.73 275.58000000000004 L 487.49 274.62 L 488.11 127.88" stroke-linecap="round" fill="grey"/><path stroke="darkgrey" stroke-width="0.1" d="M 655.96 467.77 L 658.41 468.53999999999996 L 671.05 472.53 L 674.78 481.21000000000004 L 658.45 488.24 L 653.07 478.53 L 655.96 467.77" stroke-linecap="round" fill="grey"/><path stroke="darkgrey" stroke-width="0.1" d="M 400.41 109.49000000000001 L 413.82 109.59000000000003 L 413.59 139.92999999999995 L 423.67 140.01 L 423.9 109.61000000000001 L 444.18 109.75999999999999 L 444.09 121.57000000000005 L 483.96 121.88 L 482.92 209.12 L 483.01 248.57000000000005 L 482.79 251.96000000000004 L 482.81 276.26 L 462.34 276.1 L 462.52 250.55999999999995 L 459.26 250.52999999999997 L 459.12 269.17999999999995 L 399.21 268.73 L 400.41 109.49000000000001" stroke-linecap="round" fill="grey"/><path stroke="darkgrey" stroke-width="0.1" d="M 175.23000000000002 621.04 L 191.77 613.6 L 197.14 625.49 L 180.6 632.94 L 175.23000000000002 621.04" stroke-linecap="round" fill="grey"/><path stroke="darkgrey" stroke-width="0.1" d="M 183.43 642.23 L 199.14 636.02 L 204.27 649.03 L 188.57 655.23 L 183.43 642.23" stroke-linecap="round" fill="grey"/><path stroke="darkgrey" stroke-width="0.1" d="M 403.54 672.96 L 459.5 681.96 L 471.62 683.9 L 465.05 724.71 L 396.97 713.75 L 403.54 672.96" stroke-linecap="round" fill="grey"/><path stroke="darkgrey" stroke-width="0.1" d="M 588.71 708.77 L 610.8 732.03 L 611.11 754.55 L 581.16 776.46 L 498.07 778.6 L 476.23 756.42 L 475.92 733.9 L 498.79 709.89 L 578.19 708.91 L 588.71 708.77" stroke-linecap="round" fill="grey"/><path stroke="darkgrey" stroke-width="0.1" d="M 643.25 384.22 L 664.6 432.70000000000005 L 675.22 456.84 L 685.06 482.01 L 674.78 481.21000000000004 L 671.05 472.53 L 658.41 468.53999999999996 L 655.96 467.77 L 652.34 464.8299999999999 L 642.52 456.82 L 643.25 384.22" stroke-linecap="round" fill="grey"/><path stroke="darkgrey" stroke-width="0.1" d="M 714.83 459.12 L 718.65 468.88 L 705.41 474.05999999999995 L 701.0 475.78999999999996 L 694.3 478.4100000000001 L 685.06 482.01 L 675.22 456.84 L 708.8 443.71 L 712.95 454.3 L 713.87 456.67 L 714.83 459.12" stroke-linecap="round" fill="grey"/><path stroke="darkgrey" stroke-width="0.1" d="M 184.93 601.1 L 188.43 610.85 L 178.01 616.3 L 174.0 605.87 L 184.93 601.1" stroke-linecap="round" fill="grey"/><path stroke="darkgrey" stroke-width="0.1" d="M 695.35 267.24 L 691.6 269.64 L 676.56 246.28999999999996 L 680.3 243.88 L 695.35 267.24" stroke-linecap="round" fill="grey"/><path stroke="darkgrey" stroke-width="0.1" d="M 697.52 271.32000000000005 L 693.06 274.29999999999995 L 697.3 280.62 L 701.74 277.64 L 697.52 271.32000000000005" stroke-linecap="round" fill="grey"/><path stroke="darkgrey" stroke-width="0.1" d="M 207.82 692.01 L 202.38 699.04 L 212.52 706.9 L 217.96 699.86 L 207.82 692.01" stroke-linecap="round" fill="grey"/><path stroke="darkgrey" stroke-width="0.1" d="M 724.54 752.5 L 735.17 742.28 L 738.32 745.55 L 727.68 755.77 L 724.54 752.5" stroke-linecap="round" fill="grey"/><path stroke="darkgrey" stroke-width="0.1" d="M 722.2 696.9 L 731.97 685.8399999999999 L 735.36 688.85 L 725.6 699.9 L 722.2 696.9" stroke-linecap="round" fill="grey"/><path stroke="darkgrey" stroke-width="0.1" d="M 218.47 596.5899999999999 L 228.16 627.31 L 214.14 631.73 L 204.44 601.01 L 218.47 596.5899999999999" stroke-linecap="round" fill="grey"/><path stroke="darkgrey" stroke-width="0.1" d="M 302.35 235.10000000000002 L 297.59000000000003 251.91999999999996 L 302.39 253.66999999999996 L 307.65 237.03999999999996 L 302.35 235.10000000000002" stroke-linecap="round" fill="grey"/><path stroke="darkgrey" stroke-width="0.1" d="M 392.35 670.75 L 392.1 631.1800000000001 L 379.37 631.13 L 379.03 666.61 L 392.35 670.75" stroke-linecap="round" fill="grey"/><path stroke="darkgrey" stroke-width="0.1" d="M 270.55 385.16999999999996 L 281.0 385.63 L 294.7 386.23 L 291.53999999999996 511.72 L 257.68 510.87 L 258.2 426.47 L 270.55 385.16999999999996" stroke-linecap="round" fill="grey"/><path stroke="#408040" stroke-width="6.923076923076923" d="M 50.0 447.35 L 74.71000000000001 478.28 L 95.47999999999999 500.3399999999999 L 113.75 517.3199999999999 L 138.24 535.69 L 161.18 553.9300000000001 L 170.13 563.46 L 178.1 573.0899999999999 L 184.36 583.9300000000001 L 188.0 592.78 L 189.78 597.11 L 197.68 619.28" stroke-linecap="round" fill="none"/><path stroke="#408040" stroke-width="9.692307692307692" d="M 745.27 641.51 L 733.8 663.88 L 702.37 691.75 L 694.02 699.15 L 684.68 705.28 L 670.16 709.69 L 632.95 720.79" stroke-linecap="round" fill="none"/><path stroke="#408040" stroke-width="12.461538461538462" d="M 858.79 572.0899999999999 L 871.66 533.97 L 871.77 524.78 L 869.89 511.9100000000001 L 861.22 494.28999999999996 L 789.54 384.11 L 732.57 296.29999999999995" stroke-linecap="round" fill="none"/><path stroke="#408040" stroke-width="9.692307692307692" d="M 562.27 870.59 L 575.15 859.5699999999999 L 611.19 825.41" stroke-linecap="round" fill="none"/><path stroke="#408040" stroke-width="12.461538461538462" d="M 662.31 777.0 L 667.97 771.77 L 670.02 769.94 L 701.46 741.28 L 755.38 688.0" stroke-linecap="round" fill="none"/><path stroke="#408040" stroke-width="12.461538461538462" d="M 850.2 663.04 L 834.04 656.8199999999999 L 825.22 658.0799999999999 L 814.88 659.88 L 789.03 676.9200000000001" stroke-linecap="round" fill="none"/><path stroke="#408040" stroke-width="9.692307692307692" d="M 373.36 289.14 L 376.66 286.15 L 380.82 284.54999999999995 L 385.29 284.57000000000005 L 389.45 286.20000000000005 L 392.73 289.22 L 394.71 293.23 L 395.09 297.66999999999996 L 394.12 301.37 L 392.05 304.58000000000004 L 389.09 306.98 L 385.52 308.35 L 381.71 308.53999999999996 L 378.03 307.53999999999996 L 374.84 305.44000000000005" stroke-linecap="round" fill="none"/><path stroke="#00ff00" stroke-width="2.769230769230769" d="M 578.19 708.91 L 577.48 659.75" stroke-linecap="round" fill="none"/><path stroke="#00ff00" stroke-width="2.769230769230769" d="M 557.36 489.26 L 556.61 521.0" stroke-linecap="round" fill="none"/><path stroke="#408040" stroke-width="9.692307692307692" d="M 616.69 563.47 L 617.72 539.99 L 624.75 528.62 L 634.28 520.0899999999999" stroke-linecap="round" fill="none"/><path stroke="#408040" stroke-width="9.692307692307692" d="M 539.99 296.45000000000005 L 478.74 297.45000000000005 L 419.03 297.80999999999995" stroke-linecap="round" fill="none"/><path stroke="#408040" stroke-width="9.692307692307692" d="M 355.66 124.54999999999995 L 357.64 136.05999999999995 L 356.42 144.71000000000004 L 354.06 155.14999999999998 L 351.5 170.02999999999997 L 350.79 183.03999999999996 L 351.09 198.53999999999996 L 349.84 213.84000000000003 L 346.54 229.54999999999995 L 345.68 238.77999999999997 L 345.37 242.01999999999998" stroke-linecap="round" fill="none"/><path stroke="#408040" stroke-width="9.692307692307692" d="M 250.36 407.54999999999995 L 246.74 414.58000000000004" stroke-linecap="round" fill="none"/><path stroke="#408040" stroke-width="9.692307692307692" d="M 628.85 609.9100000000001 L 624.89 596.4200000000001 L 622.16 579.69 L 616.69 563.47" stroke-linecap="round" fill="none"/><path stroke="#408040" stroke-width="9.692307692307692" d="M 574.87 504.11 L 576.49 504.54999999999995 L 578.37 506.0799999999999 L 578.91 507.93000000000006 L 579.27 512.4300000000001 L 578.74 514.5899999999999 L 578.2 515.98 L 576.66 517.5 L 574.87 518.01 L 534.86 517.05" stroke-linecap="round" fill="none"/><path stroke="#408040" stroke-width="9.692307692307692" d="M 629.24 687.49 L 626.76 665.8299999999999" stroke-linecap="round" fill="none"/><path stroke="#408040" stroke-width="6.923076923076923" d="M 821.97 612.9 L 814.11 604.19 L 802.27 594.01 L 791.69 579.63" stroke-linecap="round" fill="none"/><path stroke="#408040" stroke-width="9.692307692307692" d="M 788.01 651.5899999999999 L 794.56 629.88 L 797.21 619.29 L 797.64 612.56 L 798.11 605.1600000000001 L 797.21 594.27 L 791.69 579.63" stroke-linecap="round" fill="none"/><path stroke="#408040" stroke-width="9.692307692307692" d="M 377.01 254.20000000000005 L 376.46 264.23" stroke-linecap="round" fill="none"/><path stroke="#408040" stroke-width="9.692307692307692" d="M 546.73 275.58000000000004 L 548.7 274.78999999999996 L 564.95 274.88 L 579.91 274.98 L 581.93 276.13" stroke-linecap="round" fill="none"/><path stroke="#408040" stroke-width="9.692307692307692" d="M 483.95 276.9 L 461.74 276.54999999999995 L 417.83 274.15999999999997 L 407.96 273.14 L 397.79 269.21000000000004 L 389.17 264.83000000000004 L 377.01 254.20000000000005" stroke-linecap="round" fill="none"/><path stroke="#408040" stroke-width="6.923076923076923" d="M 671.78 277.01 L 669.54 282.24 L 665.83 286.54999999999995 L 660.99 289.54999999999995 L 655.47 290.92999999999995" stroke-linecap="round" fill="none"/><path stroke="#408040" stroke-width="9.692307692307692" d="M 390.88 60.82000000000005 L 389.74 70.41999999999996 L 386.46 84.89999999999998 L 381.76 102.51999999999998 L 377.64 129.37 L 376.76 142.42999999999995 L 375.75 172.65999999999997 L 376.76 238.66999999999996" stroke-linecap="round" fill="none"/><path stroke="#408040" stroke-width="9.692307692307692" d="M 342.75 258.96000000000004 L 335.84 254.98000000000002 L 328.61 251.67999999999995 L 323.8 249.65999999999997 L 322.05 247.75 L 322.22 244.75 L 322.99 241.96000000000004 L 324.48 238.35000000000002 L 326.75 236.78999999999996 L 330.22 236.44000000000005 L 332.54 237.04999999999995 L 335.18 238.17999999999995 L 340.13 240.65999999999997 L 345.37 242.01999999999998" stroke-linecap="round" fill="none"/><path stroke="#408040" stroke-width="9.692307692307692" d="M 157.0 406.34000000000003 L 162.3 395.36 L 162.99 393.92999999999995 L 167.95999999999998 387.11 L 175.8 381.73 L 185.31 379.66999999999996 L 194.82 381.12 L 202.24 383.78 L 215.49 388.55999999999995 L 227.69 393.30999999999995 L 242.16 398.69000000000005 L 248.77 398.89 L 256.65 397.17999999999995" stroke-linecap="round" fill="none"/><path stroke="#408040" stroke-width="9.692307692307692" d="M 312.49 770.49 L 288.43 757.7" stroke-linecap="round" fill="none"/><path stroke="#408040" stroke-width="9.692307692307692" d="M 341.56 768.61 L 366.44 781.33 L 367.04 781.95 L 367.3 783.06 L 367.04 784.04 L 366.51 785.26 L 360.73 794.87 L 360.16 795.28 L 359.39 795.28 L 358.36 795.02 L 356.91 794.4" stroke-linecap="round" fill="none"/><path stroke="#408040" stroke-width="9.692307692307692" d="M 323.4 737.75 L 380.88 752.06 L 403.55 752.41 L 413.45 751.87 L 426.04 753.49 L 439.54 759.0699999999999 L 450.7 766.81 L 463.82 777.86 L 476.21 789.02 L 481.19 795.62 L 484.2 799.61 L 485.83 801.33 L 492.12 802.8199999999999 L 500.4 804.78" stroke-linecap="round" fill="none"/><path stroke="#408040" stroke-width="6.923076923076923" d="M 508.35 815.75 L 523.8399999999999 836.6" stroke-linecap="round" fill="none"/><path stroke="#408040" stroke-width="6.923076923076923" d="M 779.46 545.0799999999999 L 776.87 524.3 L 773.49 490.53999999999996 L 772.89 484.8399999999999" stroke-linecap="round" fill="none"/><path stroke="#408040" stroke-width="12.461538461538462" d="M 788.01 651.5899999999999 L 814.83 621.3399999999999 L 821.97 612.9" stroke-linecap="round" fill="none"/><path stroke="#408040" stroke-width="12.461538461538462" d="M 836.79 626.9200000000001 L 828.56 635.3 L 789.03 676.9200000000001 L 712.69 752.26 L 700.8 763.71" stroke-linecap="round" fill="none"/><path stroke="#408040" stroke-width="9.692307692307692" d="M 700.8 763.71 L 693.09 782.35 L 692.8 789.83 L 695.42 804.76 L 697.92 813.8" stroke-linecap="round" fill="none"/><path stroke="#408040" stroke-width="12.461538461538462" d="M 700.8 763.71 L 678.99 783.0 L 672.98 788.9" stroke-linecap="round" fill="none"/><path stroke="#408040" stroke-width="9.692307692307692" d="M 666.24 795.47 L 658.75 802.0 L 632.32 827.89" stroke-linecap="round" fill="none"/><path stroke="#00ff00" stroke-width="2.769230769230769" d="M 660.02 196.74 L 730.97 135.0" stroke-linecap="round" fill="none"/><path stroke="#00ff00" stroke-width="2.769230769230769" d="M 765.41 399.25 L 780.98 422.69000000000005 L 734.66 447.1 L 713.87 456.67 L 697.81 464.06999999999994 L 701.0 475.78999999999996" stroke-linecap="round" fill="none"/><path stroke="#00ff00" stroke-width="2.769230769230769" d="M 673.38 234.36 L 635.59 176.36 L 639.98 172.49 L 660.02 196.74" stroke-linecap="round" fill="none"/><path stroke="#00ff00" stroke-width="2.769230769230769" d="M 693.06 283.58000000000004 L 706.37 277.91999999999996 L 673.38 234.36" stroke-linecap="round" fill="none"/><path stroke="#408040" stroke-width="12.461538461538462" d="M 732.57 296.29999999999995 L 723.49 282.32000000000005 L 716.92 272.19000000000005 L 704.98 253.77999999999997" stroke-linecap="round" fill="none"/><path stroke="#00ff00" stroke-width="2.769230769230769" d="M 611.3 315.35 L 606.59 315.40999999999997 L 600.14 315.49 L 593.35 315.57000000000005 L 581.64 315.20000000000005 L 578.2 314.61" stroke-linecap="round" fill="none"/><path stroke="#00ff00" stroke-width="2.769230769230769" d="M 230.66 217.01 L 302.47 244.38 L 311.43 247.77999999999997" stroke-linecap="round" fill="none"/><path stroke="#00ff00" stroke-width="2.769230769230769" d="M 254.26 369.85 L 259.38 370.92999999999995 L 266.62 358.53 L 280.2 363.66999999999996" stroke-linecap="round" fill="none"/><path stroke="#00ff00" stroke-width="2.769230769230769" d="M 171.5 507.77 L 206.04 519.46" stroke-linecap="round" fill="none"/><path stroke="#00ff00" stroke-width="3.4615384615384617" d="M 279.26 645.12 L 260.82 660.1 L 239.21 677.21 L 235.56 682.62" stroke-linecap="round" fill="none"/><path stroke="#408040" stroke-width="9.692307692307692" d="M 593.68 306.24 L 593.62 308.20000000000005 L 593.35 315.57000000000005 L 592.41 355.25 L 591.63 356.66999999999996 L 590.61 357.13 L 589.29 357.29999999999995 L 584.11 357.21000000000004 L 582.7 356.82000000000005 L 581.45 355.88 L 581.13 354.4 L 581.18 350.80999999999995" stroke-linecap="round" fill="none"/><path stroke="#408040" stroke-width="9.692307692307692" d="M 605.7 311.51 L 605.25 308.15 L 604.24 297.08000000000004" stroke-linecap="round" fill="none"/><path stroke="#408040" stroke-width="9.692307692307692" d="M 631.06 324.62 L 642.25 332.0 L 652.17 339.74 L 663.99 355.88 L 675.77 372.01 L 705.13 425.11 L 707.31 431.4 L 704.92 436.69000000000005 L 702.2 440.07 L 692.52 443.43" stroke-linecap="round" fill="none"/><path stroke="#408040" stroke-width="9.692307692307692" d="M 692.52 443.43 L 686.31 443.92 L 679.9 438.76 L 670.04 418.44000000000005 L 660.74 399.21000000000004 L 656.97 391.4 L 651.2 378.88" stroke-linecap="round" fill="none"/><path stroke="#408040" stroke-width="9.692307692307692" d="M 659.23 684.1 L 659.6 689.6800000000001 L 657.87 694.99 L 654.3 699.27 L 649.38 701.94 L 643.85 702.59 L 638.45 701.12 L 634.57 698.38 L 631.75 694.52 L 629.24 687.49" stroke-linecap="round" fill="none"/><path stroke="#408040" stroke-width="9.692307692307692" d="M 540.9200000000001 803.99 L 559.6600000000001 805.44 L 585.48 804.41 L 598.39 795.7 L 604.93 789.01 L 605.64 786.25" stroke-linecap="round" fill="none"/><path stroke="#408040" stroke-width="12.461538461538462" d="M 696.67 826.41 L 671.55 800.71 L 666.24 795.47" stroke-linecap="round" fill="none"/><path stroke="#00ff00" stroke-width="3.4615384615384617" d="M 653.79 493.71000000000004 L 648.35 475.26" stroke-linecap="round" fill="none"/><path stroke="#00ff00" stroke-width="2.769230769230769" d="M 652.34 464.8299999999999 L 664.6 432.70000000000005" stroke-linecap="round" fill="none"/><path stroke="#00ff00" stroke-width="2.769230769230769" d="M 701.0 475.78999999999996 L 698.18 502.35 L 697.75 514.37 L 697.35 525.5" stroke-linecap="round" fill="none"/><path stroke="#00ff00" stroke-width="2.769230769230769" d="M 710.14 502.8399999999999 L 721.1 497.03999999999996" stroke-linecap="round" fill="none"/><path stroke="#00ff00" stroke-width="3.4615384615384617" d="M 734.37 633.88 L 746.16 646.5" stroke-linecap="round" fill="none"/><path stroke="#00ff00" stroke-width="3.4615384615384617" d="M 695.81 567.6700000000001 L 697.35 525.5" stroke-linecap="round" fill="none"/><path stroke="#00ff00" stroke-width="2.769230769230769" d="M 746.16 646.5 L 763.66 665.22 L 800.05 704.19" stroke-linecap="round" fill="none"/><path stroke="#00ff00" stroke-width="2.769230769230769" d="M 706.5 602.72 L 701.13 602.49 L 691.31 602.06 L 691.43 599.99" stroke-linecap="round" fill="none"/><path stroke="#00ff00" stroke-width="2.769230769230769" d="M 698.18 502.35 L 710.14 502.8399999999999 L 706.5 602.72 L 712.7 610.6800000000001 L 734.37 633.88" stroke-linecap="round" fill="none"/><path stroke="#00ff00" stroke-width="2.769230769230769" d="M 712.7 610.6800000000001 L 715.85 607.64 L 734.93 593.6600000000001 L 733.79 576.75 L 731.81 547.6700000000001 L 728.31 496.0 L 721.1 497.03999999999996" stroke-linecap="round" fill="none"/><path stroke="#00ff00" stroke-width="3.4615384615384617" d="M 742.65 498.65 L 743.93 506.88" stroke-linecap="round" fill="none"/><path stroke="#408040" stroke-width="9.692307692307692" d="M 658.14 623.52 L 715.23 625.0 L 714.32 659.75 L 707.63 665.05 L 626.76 665.8299999999999" stroke-linecap="round" fill="none"/><path stroke="#408040" stroke-width="9.692307692307692" d="M 489.78 629.51 L 489.25 526.55 L 489.74 522.28 L 490.69 519.55 L 492.83 517.3 L 494.49 516.7 L 498.28 516.35" stroke-linecap="round" fill="none"/><path stroke="#408040" stroke-width="9.692307692307692" d="M 652.7 675.28 L 661.54 659.39 L 667.0 644.24 L 666.35 610.46" stroke-linecap="round" fill="none"/><path stroke="#408040" stroke-width="9.692307692307692" d="M 211.32 426.41999999999996 L 157.0 406.34000000000003" stroke-linecap="round" fill="none"/><path stroke="#408040" stroke-width="12.461538461538462" d="M 673.35 205.04999999999995 L 654.1 177.03999999999996" stroke-linecap="round" fill="none"/><path stroke="#408040" stroke-width="6.923076923076923" d="M 808.53 579.3399999999999 L 822.83 594.74 L 831.25 603.0899999999999" stroke-linecap="round" fill="none"/><path stroke="#408040" stroke-width="6.923076923076923" d="M 790.89 486.06999999999994 L 791.54 502.5899999999999 L 792.76 517.19 L 794.19 536.54 L 795.9 550.86 L 799.4 564.6600000000001 L 800.9 567.96 L 802.53 571.38 L 808.53 579.3399999999999" stroke-linecap="round" fill="none"/><path stroke="#408040" stroke-width="6.923076923076923" d="M 767.94 419.13 L 778.82 440.01" stroke-linecap="round" fill="none"/><path stroke="#408040" stroke-width="12.461538461538462" d="M 672.98 788.9 L 678.05 794.11 L 697.92 813.8" stroke-linecap="round" fill="none"/><path stroke="#408040" stroke-width="9.692307692307692" d="M 655.49 784.01 L 649.52 777.4 L 645.24 773.73 L 641.54 761.4300000000001" stroke-linecap="round" fill="none"/><path stroke="#408040" stroke-width="9.692307692307692" d="M 641.54 761.4300000000001 L 652.06 766.9 L 656.15 771.6800000000001 L 662.31 777.0" stroke-linecap="round" fill="none"/><path stroke="#408040" stroke-width="9.692307692307692" d="M 641.54 761.4300000000001 L 634.65 734.31" stroke-linecap="round" fill="none"/><path stroke="#408040" stroke-width="12.461538461538462" d="M 755.38 688.0 L 769.85 672.4 L 788.01 651.5899999999999" stroke-linecap="round" fill="none"/><path stroke="#408040" stroke-width="9.692307692307692" d="M 659.52 521.46 L 654.14 521.29 L 649.37 518.81 L 646.15 514.51 L 645.11 509.22 L 646.47 504.03 L 649.94 499.9100000000001 L 654.85 497.74 L 660.23 497.89 L 662.36 499.0 L 665.01 500.37 L 668.23 504.69000000000005 L 669.28 509.96000000000004 L 668.76 513.0 L 666.06 516.9300000000001 L 664.44 519.27 L 659.52 521.46" stroke-linecap="round" fill="none"/><path stroke="#408040" stroke-width="9.692307692307692" d="M 713.29 486.70000000000005 L 684.08 501.5" stroke-linecap="round" fill="none"/><path stroke="#408040" stroke-width="9.692307692307692" d="M 772.89 484.8399999999999 L 769.55 479.46000000000004 L 766.34 476.25 L 761.81 473.77 L 754.69 470.8399999999999" stroke-linecap="round" fill="none"/><path stroke="#408040" stroke-width="9.692307692307692" d="M 267.56 747.3199999999999 L 274.15999999999997 737.29 L 276.68 736.76 L 298.41999999999996 742.25" stroke-linecap="round" fill="none"/><path stroke="#408040" stroke-width="9.692307692307692" d="M 252.25 724.38 L 238.0 711.99 L 224.77 695.03 L 222.71 687.5899999999999 L 226.82 681.25" stroke-linecap="round" fill="none"/><path stroke="#408040" stroke-width="9.692307692307692" d="M 356.91 794.4 L 348.22 808.6800000000001 L 345.49 811.3 L 342.99 812.59 L 339.49 813.3 L 335.81 812.84 L 326.47 808.29" stroke-linecap="round" fill="none"/><path stroke="#408040" stroke-width="9.692307692307692" d="M 287.35 416.4 L 287.46000000000004 391.16999999999996" stroke-linecap="round" fill="none"/><path stroke="#408040" stroke-width="9.692307692307692" d="M 284.71000000000004 485.65 L 284.48 500.99 L 281.78999999999996 506.1600000000001 L 279.72 507.80999999999995 L 275.59000000000003 508.4200000000001 L 271.47 507.1600000000001 L 265.08000000000004 501.6700000000001 L 262.81 497.38 L 261.83000000000004 492.74" stroke-linecap="round" fill="none"/><path stroke="#408040" stroke-width="9.692307692307692" d="M 266.41999999999996 412.24 L 287.35 416.4" stroke-linecap="round" fill="none"/><path stroke="#408040" stroke-width="9.692307692307692" d="M 250.36 407.54999999999995 L 255.57 409.08000000000004 L 266.41999999999996 412.24" stroke-linecap="round" fill="none"/><path stroke="#408040" stroke-width="12.461538461538462" d="M 704.98 253.77999999999997 L 696.75 241.11 L 673.35 205.04999999999995" stroke-linecap="round" fill="none"/><path stroke="#408040" stroke-width="12.461538461538462" d="M 655.49 784.01 L 662.31 777.0" stroke-linecap="round" fill="none"/><path stroke="#408040" stroke-width="6.923076923076923" d="M 836.79 626.9200000000001 L 821.97 612.9" stroke-linecap="round" fill="none"/><path stroke="#408040" stroke-width="15.23076923076923" d="M 821.97 612.9 L 831.25 603.0899999999999" stroke-linecap="round" fill="none"/><path stroke="#408040" stroke-width="12.461538461538462" d="M 672.98 788.9 L 666.24 795.47" stroke-linecap="round" fill="none"/><path stroke="#408040" stroke-width="12.461538461538462" d="M 662.31 777.0 L 672.98 788.9" stroke-linecap="round" fill="none"/><path stroke="#408040" stroke-width="12.461538461538462" d="M 666.24 795.47 L 655.49 784.01" stroke-linecap="round" fill="none"/><path stroke="#408040" stroke-width="9.692307692307692" d="M 374.84 305.44000000000005 L 368.95 312.96000000000004 L 365.93 322.97" stroke-linecap="round" fill="none"/><path stroke="#408040" stroke-width="9.692307692307692" d="M 339.74 346.21000000000004 L 348.57 344.83000000000004 L 358.27 343.49 L 365.36 342.80999999999995" stroke-linecap="round" fill="none"/><path stroke="#408040" stroke-width="9.692307692307692" d="M 376.46 264.23 L 381.79 277.64 L 389.45 286.20000000000005" stroke-linecap="round" fill="none"/><path stroke="#408040" stroke-width="9.692307692307692" d="M 373.36 289.14 L 375.69 279.36 L 376.46 264.23" stroke-linecap="round" fill="none"/><path stroke="#408040" stroke-width="9.692307692307692" d="M 392.73 289.22 L 408.58 287.08000000000004 L 507.76 286.52" stroke-linecap="round" fill="none"/><path stroke="#408040" stroke-width="9.692307692307692" d="M 419.03 297.80999999999995 L 403.44 298.91999999999996 L 394.12 301.37" stroke-linecap="round" fill="none"/><path stroke="#408040" stroke-width="9.692307692307692" d="M 632.35 714.64 L 630.36 693.0699999999999" stroke-linecap="round" fill="none"/><path stroke="#408040" stroke-width="9.692307692307692" d="M 634.28 520.0899999999999 L 640.52 512.2 L 646.47 504.03" stroke-linecap="round" fill="none"/><path stroke="#408040" stroke-width="9.692307692307692" d="M 684.08 501.5 L 677.48 506.19000000000005 L 668.76 513.0" stroke-linecap="round" fill="none"/><path stroke="#408040" stroke-width="9.692307692307692" d="M 662.36 499.0 L 712.28 479.70000000000005" stroke-linecap="round" fill="none"/><path stroke="#408040" stroke-width="9.692307692307692" d="M 649.37 518.81 L 643.25 518.72 L 634.28 520.0899999999999" stroke-linecap="round" fill="none"/><path stroke="#408040" stroke-width="9.692307692307692" d="M 628.37 616.03 L 628.85 609.9100000000001" stroke-linecap="round" fill="none"/><path stroke="#408040" stroke-width="9.692307692307692" d="M 625.86 659.76 L 627.99 622.73 L 628.37 616.03" stroke-linecap="round" fill="none"/><path stroke="#408040" stroke-width="9.692307692307692" d="M 581.59 319.11 L 581.64 315.20000000000005 L 581.95 308.34000000000003 L 582.03 306.44000000000005" stroke-linecap="round" fill="none"/><path stroke="#408040" stroke-width="9.692307692307692" d="M 581.18 350.80999999999995 L 581.39 334.38 L 581.59 319.11" stroke-linecap="round" fill="none"/><path stroke="#408040" stroke-width="6.923076923076923" d="M 742.79 425.29999999999995 L 723.89 398.23 L 715.81 387.51 L 685.13 341.13 L 670.68 317.94000000000005 L 664.15 305.78999999999996" stroke-linecap="round" fill="none"/><path stroke="#408040" stroke-width="9.692307692307692" d="M 778.82 440.01 L 778.24 449.49 L 775.23 458.06 L 767.87 465.56999999999994" stroke-linecap="round" fill="none"/><path stroke="#408040" stroke-width="9.692307692307692" d="M 647.99 290.1 L 637.42 295.14 L 630.33 296.33000000000004" stroke-linecap="round" fill="none"/><path stroke="#408040" stroke-width="6.923076923076923" d="M 586.22 180.96000000000004 L 577.85 169.73000000000002 L 569.34 156.64 L 549.81 136.71000000000004 L 536.85 122.62 L 528.4200000000001 114.96000000000004 L 500.13 93.14999999999998 L 471.94 76.79999999999995" stroke-linecap="round" fill="none"/><path stroke="#408040" stroke-width="6.923076923076923" d="M 671.78 277.01 L 678.39 290.65999999999997 L 719.42 354.4" stroke-linecap="round" fill="none"/><path stroke="#408040" stroke-width="9.692307692307692" d="M 664.8 521.14 L 664.44 519.27" stroke-linecap="round" fill="none"/><path stroke="#408040" stroke-width="9.692307692307692" d="M 713.29 486.70000000000005 L 713.24 489.5799999999999" stroke-linecap="round" fill="none"/><path stroke="#408040" stroke-width="9.692307692307692" d="M 713.24 489.5799999999999 L 713.33 491.6 L 713.44 550.35 L 706.41 553.45 L 675.82 552.62 L 669.2 544.77 L 664.8 521.14" stroke-linecap="round" fill="none"/><path stroke="#408040" stroke-width="6.923076923076923" d="M 461.18 838.6 L 503.31 818.19 L 508.35 815.75" stroke-linecap="round" fill="none"/><path stroke="#408040" stroke-width="9.692307692307692" d="M 508.35 815.75 L 513.53 813.21 L 526.78 806.69 L 540.9200000000001 803.99" stroke-linecap="round" fill="none"/><path stroke="#408040" stroke-width="6.923076923076923" d="M 523.8399999999999 836.6 L 554.6800000000001 863.79 L 562.27 870.59" stroke-linecap="round" fill="none"/><path stroke="#408040" stroke-width="6.923076923076923" d="M 415.87 740.34 L 425.99 742.25 L 441.67 746.63 L 464.99 759.3199999999999 L 480.74 773.16 L 490.32 786.16 L 491.64 787.94 L 500.4 804.78" stroke-linecap="round" fill="none"/><path stroke="#408040" stroke-width="6.923076923076923" d="M 719.42 354.4 L 764.06 413.30999999999995 L 767.94 419.13" stroke-linecap="round" fill="none"/><path stroke="#408040" stroke-width="9.692307692307692" d="M 767.87 465.56999999999994 L 764.41 466.95000000000005 L 754.69 470.8399999999999" stroke-linecap="round" fill="none"/><path stroke="#408040" stroke-width="6.923076923076923" d="M 772.89 484.8399999999999 L 772.18 478.06999999999994 L 770.25 472.03999999999996 L 767.87 465.56999999999994" stroke-linecap="round" fill="none"/><path stroke="#408040" stroke-width="9.692307692307692" d="M 288.43 757.7 L 293.59000000000003 748.03 L 298.41999999999996 742.25" stroke-linecap="round" fill="none"/><path stroke="#408040" stroke-width="6.923076923076923" d="M 212.8 660.9200000000001 L 217.17 670.3 L 226.82 681.25" stroke-linecap="round" fill="none"/><path stroke="#408040" stroke-width="6.923076923076923" d="M 500.4 804.78 L 508.35 815.75" stroke-linecap="round" fill="none"/><path stroke="#408040" stroke-width="9.692307692307692" d="M 586.22 180.96000000000004 L 581.35 180.94000000000005 L 571.11 180.91999999999996" stroke-linecap="round" fill="none"/><path stroke="#408040" stroke-width="9.692307692307692" d="M 632.95 720.79 L 632.35 714.64" stroke-linecap="round" fill="none"/><path stroke="#408040" stroke-width="9.692307692307692" d="M 275.34000000000003 778.96 L 288.43 757.7" stroke-linecap="round" fill="none"/><path stroke="#408040" stroke-width="9.692307692307692" d="M 754.69 470.8399999999999 L 737.08 477.03" stroke-linecap="round" fill="none"/><path stroke="#408040" stroke-width="9.692307692307692" d="M 345.37 242.01999999999998 L 342.75 258.96000000000004" stroke-linecap="round" fill="none"/><path stroke="#408040" stroke-width="9.692307692307692" d="M 342.75 258.96000000000004 L 341.59 264.79999999999995 L 341.24 266.55999999999995 L 339.66 279.05999999999995 L 339.4 290.02 L 338.58 304.45000000000005" stroke-linecap="round" fill="none"/><path stroke="#408040" stroke-width="9.692307692307692" d="M 588.02 297.25 L 582.35 297.19000000000005" stroke-linecap="round" fill="none"/><path stroke="#408040" stroke-width="9.692307692307692" d="M 256.65 397.17999999999995 L 250.36 407.54999999999995" stroke-linecap="round" fill="none"/><path stroke="#408040" stroke-width="9.692307692307692" d="M 339.74 346.21000000000004 L 301.1 361.34000000000003 L 286.6 364.73 L 283.1 367.03 L 281.05 368.37 L 274.6 372.58000000000004 L 263.44 386.64 L 256.65 397.17999999999995" stroke-linecap="round" fill="none"/><path stroke="#408040" stroke-width="9.692307692307692" d="M 616.91 616.0699999999999 L 616.69 600.1 L 616.69 563.47" stroke-linecap="round" fill="none"/><path stroke="#408040" stroke-width="6.923076923076923" d="M 791.69 579.63 L 780.15 550.14 L 779.46 545.0799999999999" stroke-linecap="round" fill="none"/><path stroke="#408040" stroke-width="9.692307692307692" d="M 634.65 734.31 L 632.95 720.79" stroke-linecap="round" fill="none"/><path stroke="#408040" stroke-width="9.692307692307692" d="M 611.19 825.41 L 647.99 790.41 L 655.49 784.01" stroke-linecap="round" fill="none"/><path stroke="#00ff00" stroke-width="2.769230769230769" d="M 751.11 731.89 L 759.02 740.23" stroke-linecap="round" fill="none"/><path stroke="#408040" stroke-width="6.923076923076923" d="M 197.68 619.28 L 211.47 658.0799999999999 L 212.8 660.9200000000001" stroke-linecap="round" fill="none"/><path stroke="#408040" stroke-width="6.923076923076923" d="M 226.82 681.25 L 233.39 685.8299999999999 L 236.86 688.25" stroke-linecap="round" fill="none"/><path stroke="#408040" stroke-width="9.692307692307692" d="M 593.97 297.25 L 588.02 297.25" stroke-linecap="round" fill="none"/><path stroke="#408040" stroke-width="9.692307692307692" d="M 604.24 297.08000000000004 L 593.97 297.25" stroke-linecap="round" fill="none"/><path stroke="#408040" stroke-width="6.923076923076923" d="M 343.56 892.25 L 405.66 864.41 L 461.18 838.6" stroke-linecap="round" fill="none"/><path stroke="#408040" stroke-width="9.692307692307692" d="M 298.41999999999996 742.25 L 305.03 739.1800000000001 L 314.11 737.44 L 323.4 737.75" stroke-linecap="round" fill="none"/><path stroke="#408040" stroke-width="6.923076923076923" d="M 236.86 688.25 L 248.57 693.04 L 312.17 713.55" stroke-linecap="round" fill="none"/><path stroke="#408040" stroke-width="9.692307692307692" d="M 733.48 471.70000000000005 L 761.36 460.57 L 765.0 459.12" stroke-linecap="round" fill="none"/><path stroke="#408040" stroke-width="9.692307692307692" d="M 737.08 477.03 L 713.29 486.70000000000005" stroke-linecap="round" fill="none"/><path stroke="#408040" stroke-width="9.692307692307692" d="M 712.28 479.70000000000005 L 733.48 471.70000000000005" stroke-linecap="round" fill="none"/><path stroke="#408040" stroke-width="9.692307692307692" d="M 712.28 479.70000000000005 L 713.29 486.70000000000005" stroke-linecap="round" fill="none"/><path stroke="#408040" stroke-width="6.923076923076923" d="M 664.15 305.78999999999996 L 653.98 301.09000000000003 L 647.63 298.98 L 640.74 297.72 L 630.33 296.33000000000004" stroke-linecap="round" fill="none"/><path stroke="#00ff00" stroke-width="2.769230769230769" d="M 678.39 290.65999999999997 L 661.64 301.12 L 642.83 314.5" stroke-linecap="round" fill="none"/><path stroke="#408040" stroke-width="9.692307692307692" d="M 581.93 276.13 L 586.29 281.51 L 588.55 284.90999999999997" stroke-linecap="round" fill="none"/><path stroke="#408040" stroke-width="9.692307692307692" d="M 535.05 286.37 L 537.85 283.19000000000005 L 542.5799999999999 278.65999999999997 L 546.73 275.58000000000004" stroke-linecap="round" fill="none"/><path stroke="#408040" stroke-width="9.692307692307692" d="M 576.35 297.08000000000004 L 576.54 285.74" stroke-linecap="round" fill="none"/><path stroke="#408040" stroke-width="6.923076923076923" d="M 647.99 290.1 L 641.46 286.39 L 636.93 280.37 L 635.16 273.07000000000005 L 636.42 265.65" stroke-linecap="round" fill="none"/><path stroke="#408040" stroke-width="6.923076923076923" d="M 655.82 253.92999999999995 L 661.9 255.69000000000005 L 667.03 259.39 L 670.62 264.6 L 672.27 270.71000000000004 L 671.78 277.01" stroke-linecap="round" fill="none"/><path stroke="#408040" stroke-width="6.923076923076923" d="M 636.42 265.65 L 640.9 258.96000000000004 L 647.81 254.77999999999997 L 655.82 253.92999999999995" stroke-linecap="round" fill="none"/><path stroke="#408040" stroke-width="9.692307692307692" d="M 535.05 286.37 L 576.54 285.74" stroke-linecap="round" fill="none"/><path stroke="#408040" stroke-width="9.692307692307692" d="M 605.7 311.51 L 613.85 309.83000000000004 L 619.82 312.84000000000003 L 631.06 324.62" stroke-linecap="round" fill="none"/><path stroke="#408040" stroke-width="6.923076923076923" d="M 664.15 305.78999999999996 L 655.47 290.92999999999995" stroke-linecap="round" fill="none"/><path stroke="#408040" stroke-width="6.923076923076923" d="M 767.87 465.56999999999994 L 765.0 459.12" stroke-linecap="round" fill="none"/><path stroke="#408040" stroke-width="6.923076923076923" d="M 765.0 459.12 L 742.79 425.29999999999995" stroke-linecap="round" fill="none"/><path stroke="#408040" stroke-width="9.692307692307692" d="M 630.33 296.33000000000004 L 615.84 296.64 L 604.24 297.08000000000004" stroke-linecap="round" fill="none"/><path stroke="#408040" stroke-width="6.923076923076923" d="M 655.47 290.92999999999995 L 647.99 290.1" stroke-linecap="round" fill="none"/><path stroke="#408040" stroke-width="9.692307692307692" d="M 610.48 330.37 L 609.66 328.78 L 606.59 315.40999999999997 L 605.7 311.51" stroke-linecap="round" fill="none"/><path stroke="#408040" stroke-width="9.692307692307692" d="M 539.99 296.45000000000005 L 535.8199999999999 303.97 L 532.56 305.73 L 528.12 306.15 L 419.38 308.20000000000005 L 413.97 307.74 L 409.15 306.03999999999996 L 403.44 298.91999999999996" stroke-linecap="round" fill="none"/><path stroke="#408040" stroke-width="9.692307692307692" d="M 356.91 794.4 L 327.89 778.99 L 312.49 770.49" stroke-linecap="round" fill="none"/><path stroke="#408040" stroke-width="6.923076923076923" d="M 636.42 265.65 L 599.52 198.64 L 590.27 186.34000000000003 L 586.22 180.96000000000004" stroke-linecap="round" fill="none"/><path stroke="#408040" stroke-width="9.692307692307692" d="M 298.77 629.9 L 303.12 635.5 L 314.71 640.04 L 326.69 642.9300000000001 L 351.5 641.69 L 364.59 642.86 L 377.95 646.6600000000001 L 408.69 650.8199999999999 L 423.04 649.03 L 440.13 652.38 L 459.18 657.26 L 475.06 661.95 L 490.11 669.55" stroke-linecap="round" fill="none"/><path stroke="#408040" stroke-width="9.692307692307692" d="M 317.95 797.58 L 327.89 778.99" stroke-linecap="round" fill="none"/><path stroke="#408040" stroke-width="9.692307692307692" d="M 318.61 759.67 L 319.8 758.25 L 320.84 757.8199999999999 L 321.98 757.91 L 322.76 758.02 L 341.56 768.61" stroke-linecap="round" fill="none"/><path stroke="#408040" stroke-width="9.692307692307692" d="M 312.49 770.49 L 318.61 759.67" stroke-linecap="round" fill="none"/><path stroke="#408040" stroke-width="9.692307692307692" d="M 212.8 660.9200000000001 L 200.94 666.3299999999999 L 194.76 674.28" stroke-linecap="round" fill="none"/><path stroke="#408040" stroke-width="9.692307692307692" d="M 263.43 471.39 L 265.16999999999996 431.77" stroke-linecap="round" fill="none"/><path stroke="#408040" stroke-width="9.692307692307692" d="M 261.83000000000004 492.74 L 263.43 471.39" stroke-linecap="round" fill="none"/><path stroke="#408040" stroke-width="9.692307692307692" d="M 285.75 452.79 L 284.71000000000004 485.65" stroke-linecap="round" fill="none"/><path stroke="#408040" stroke-width="9.692307692307692" d="M 287.35 416.4 L 285.75 452.79" stroke-linecap="round" fill="none"/><path stroke="#408040" stroke-width="9.692307692307692" d="M 265.49 417.85 L 254.23 415.89 L 246.74 414.58000000000004" stroke-linecap="round" fill="none"/><path stroke="#408040" stroke-width="9.692307692307692" d="M 265.49 417.85 L 266.41999999999996 412.24" stroke-linecap="round" fill="none"/><path stroke="#408040" stroke-width="9.692307692307692" d="M 265.16999999999996 431.77 L 265.28 420.33000000000004 L 265.49 417.85" stroke-linecap="round" fill="none"/><path stroke="#408040" stroke-width="9.692307692307692" d="M 490.11 669.55 L 489.78 629.51" stroke-linecap="round" fill="none"/><path stroke="#408040" stroke-width="9.692307692307692" d="M 498.28 516.35 L 534.86 517.05" stroke-linecap="round" fill="none"/><path stroke="#408040" stroke-width="9.692307692307692" d="M 534.86 517.05 L 551.8299999999999 504.72 L 557.76 503.53 L 562.88 503.4100000000001" stroke-linecap="round" fill="none"/><path stroke="#408040" stroke-width="9.692307692307692" d="M 338.58 304.45000000000005 L 339.74 346.21000000000004" stroke-linecap="round" fill="none"/><path stroke="#408040" stroke-width="6.923076923076923" d="M 575.98 143.41999999999996 L 583.29 151.01999999999998 L 592.74 162.92999999999995 L 604.99 181.99 L 623.43 212.88 L 642.54 236.78999999999996" stroke-linecap="round" fill="none"/><path stroke="#408040" stroke-width="9.692307692307692" d="M 588.55 284.90999999999997 L 593.82 284.29999999999995 L 603.34 283.58000000000004 L 610.54 282.29999999999995 L 627.54 278.01 L 635.16 273.07000000000005" stroke-linecap="round" fill="none"/><path stroke="#408040" stroke-width="9.692307692307692" d="M 507.76 286.52 L 535.05 286.37" stroke-linecap="round" fill="none"/><path stroke="#408040" stroke-width="9.692307692307692" d="M 593.97 297.25 L 593.68 306.24" stroke-linecap="round" fill="none"/><path stroke="#408040" stroke-width="9.692307692307692" d="M 582.03 306.44000000000005 L 582.35 297.19000000000005" stroke-linecap="round" fill="none"/><path stroke="#408040" stroke-width="9.692307692307692" d="M 376.76 238.66999999999996 L 377.01 254.20000000000005" stroke-linecap="round" fill="none"/><path stroke="#408040" stroke-width="9.692307692307692" d="M 240.74 426.21000000000004 L 234.5 438.31 L 231.18 449.89 L 230.34 454.68 L 227.89 468.48 L 229.12 480.47 L 236.56 495.35 L 245.66 510.24 L 263.03 529.6600000000001 L 285.76 564.8" stroke-linecap="round" fill="none"/><path stroke="#408040" stroke-width="9.692307692307692" d="M 285.76 564.8 L 289.48 577.21 L 291.14 594.15 L 293.62 612.3399999999999 L 297.34000000000003 628.05 L 298.77 629.9" stroke-linecap="round" fill="none"/><path stroke="#408040" stroke-width="9.692307692307692" d="M 246.74 414.58000000000004 L 240.74 426.21000000000004" stroke-linecap="round" fill="none"/><path stroke="#408040" stroke-width="9.692307692307692" d="M 571.11 180.91999999999996 L 560.6800000000001 174.71000000000004 L 555.54 167.73000000000002 L 553.2 161.51999999999998 L 542.77 154.80999999999995 L 532.24 155.35000000000002 L 521.8199999999999 155.97000000000003 L 511.4 155.39999999999998 L 504.91 139.19000000000005 L 508.19 127.38" stroke-linecap="round" fill="none"/><path stroke="#408040" stroke-width="9.692307692307692" d="M 651.2 378.88 L 645.7 368.4 L 635.11 355.53 L 631.33 350.95000000000005 L 615.43 336.84000000000003 L 611.65 332.03 L 610.48 330.37" stroke-linecap="round" fill="none"/><path stroke="#408040" stroke-width="9.692307692307692" d="M 562.88 503.4100000000001 L 574.87 504.11" stroke-linecap="round" fill="none"/><path stroke="#408040" stroke-width="6.923076923076923" d="M 778.82 440.01 L 789.61 470.1600000000001 L 790.89 486.06999999999994" stroke-linecap="round" fill="none"/><path stroke="#408040" stroke-width="9.692307692307692" d="M 582.35 297.19000000000005 L 576.35 297.08000000000004" stroke-linecap="round" fill="none"/><path stroke="#408040" stroke-width="9.692307692307692" d="M 576.35 297.08000000000004 L 539.99 296.45000000000005" stroke-linecap="round" fill="none"/><path stroke="#408040" stroke-width="9.692307692307692" d="M 365.36 342.80999999999995 L 365.93 322.97" stroke-linecap="round" fill="none"/><path stroke="#408040" stroke-width="9.692307692307692" d="M 365.36 342.80999999999995 L 365.84 384.52" stroke-linecap="round" fill="none"/><path stroke="#408040" stroke-width="9.692307692307692" d="M 576.54 285.74 L 588.55 284.90999999999997" stroke-linecap="round" fill="none"/><path stroke="#408040" stroke-width="6.923076923076923" d="M 642.54 236.78999999999996 L 655.82 253.92999999999995" stroke-linecap="round" fill="none"/><path stroke="#00ff00" stroke-width="2.769230769230769" d="M 642.54 236.78999999999996 L 652.25 238.24 L 658.03 240.11 L 666.31 246.51999999999998 L 675.82 257.88 L 679.11 266.55999999999995 L 679.11 275.86 L 679.11 283.72 L 681.18 288.27 L 724.34 344.95000000000005 L 742.22 367.84000000000003 L 765.41 399.25" stroke-linecap="round" fill="none"/><path stroke="#00ff00" stroke-width="2.769230769230769" d="M 625.78 259.33000000000004 L 581.35 180.94000000000005 L 523.02 117.95000000000005 L 469.4 84.47000000000003 L 463.43 80.86000000000001 L 446.99 68.96000000000004 L 430.03 60.120000000000005 L 406.94 54.110000000000014 L 392.78 52.90999999999997 L 383.62 52.22000000000003 L 383.96 50.0" stroke-linecap="round" fill="none"/><path stroke="#00ff00" stroke-width="2.769230769230769" d="M 586.29 281.51 L 603.5 279.15999999999997 L 620.71 275.61 L 623.87 273.20000000000005 L 625.85 269.46000000000004 L 627.13 265.33000000000004 L 625.78 259.33000000000004" stroke-linecap="round" fill="none"/><path stroke="#00ff00" stroke-width="2.769230769230769" d="M 682.63 345.1 L 666.92 323.82000000000005 L 657.21 313.27 L 648.52 304.80999999999995 L 642.32 302.11 L 633.03 301.08000000000004 L 627.03 302.73 L 605.25 308.15 L 598.61 308.17999999999995 L 593.62 308.20000000000005 L 581.95 308.34000000000003" stroke-linecap="round" fill="none"/><path stroke="#00ff00" stroke-width="2.769230769230769" d="M 656.15 771.6800000000001 L 662.65 765.96 L 693.62 737.27 L 724.21 706.62 L 763.66 665.22 L 783.03 641.75 L 789.43 620.22 L 791.06 612.0 L 790.05 597.9300000000001 L 776.76 563.15 L 771.1 549.81 L 769.08 519.81 L 769.87 489.5799999999999 L 769.67 483.37 L 769.55 479.46000000000004 L 764.41 466.95000000000005 L 761.36 460.57 L 759.79 458.23 L 743.62 434.19000000000005 L 709.29 383.75 L 686.98 350.89 L 682.63 345.1" stroke-linecap="round" fill="none"/><path stroke="#00ff00" stroke-width="2.769230769230769" d="M 547.55 870.4 L 538.76 858.9300000000001 L 517.06 836.83 L 508.4 825.08 L 503.31 818.19" stroke-linecap="round" fill="none"/><path stroke="#00ff00" stroke-width="2.769230769230769" d="M 513.53 813.21 L 522.95 827.52 L 527.9100000000001 834.13 L 539.1800000000001 843.13 L 546.0 848.71 L 558.74 860.3199999999999" stroke-linecap="round" fill="none"/><path stroke="#00ff00" stroke-width="2.769230769230769" d="M 829.18 588.38 L 838.06 579.5799999999999 L 848.22 569.21 L 855.07 561.05 L 864.31 537.97 L 863.4 525.97 L 863.31 513.35 L 861.86 508.5 L 849.42 486.53 L 832.49 460.65 L 817.87 436.03999999999996 L 790.74 393.41999999999996 L 758.96 345.72 L 706.37 277.91999999999996" stroke-linecap="round" fill="none"/><path stroke="#00ff00" stroke-width="2.769230769230769" d="M 857.91 618.15 L 844.29 633.14 L 836.42 641.51 L 828.56 635.3 L 814.83 621.3399999999999 L 806.35 613.19" stroke-linecap="round" fill="none"/><path stroke="#00ff00" stroke-width="2.769230769230769" d="M 684.82 788.9300000000001 L 678.05 794.11 L 671.55 800.71 L 663.59 807.2" stroke-linecap="round" fill="none"/><path stroke="#00ff00" stroke-width="2.769230769230769" d="M 791.06 612.0 L 797.64 612.56 L 806.35 613.19 L 814.11 604.19 L 822.83 594.74 L 829.18 588.38" stroke-linecap="round" fill="none"/><path stroke="#00ff00" stroke-width="2.769230769230769" d="M 667.29 425.62 L 654.51 397.80999999999995 L 643.97 374.65999999999997 L 630.9 357.67999999999995 L 617.72 347.16999999999996 L 609.25 338.69000000000005 L 603.47 331.46000000000004 L 600.14 315.49" stroke-linecap="round" fill="none"/><path stroke="#00ff00" stroke-width="2.769230769230769" d="M 684.82 788.9300000000001 L 678.99 783.0 L 667.97 771.77 L 662.65 765.96" stroke-linecap="round" fill="none"/><path stroke="#00ff00" stroke-width="2.769230769230769" d="M 663.59 807.2 L 658.75 802.0 L 647.99 790.41 L 641.94 783.81 L 649.52 777.4 L 656.15 771.6800000000001" stroke-linecap="round" fill="none"/><path stroke="#00ff00" stroke-width="2.769230769230769" d="M 704.65 789.36 L 692.8 789.83 L 684.82 788.9300000000001" stroke-linecap="round" fill="none"/><path stroke="#00ff00" stroke-width="2.769230769230769" d="M 769.67 483.37 L 760.14 476.87 L 753.53 474.38 L 734.83 482.25 L 717.36 489.69000000000005 L 713.33 491.6 L 688.62 502.80999999999995 L 673.03 512.94 L 666.06 516.9300000000001" stroke-linecap="round" fill="none"/><path stroke="#00ff00" stroke-width="2.769230769230769" d="M 617.72 539.99 L 614.93 533.2 L 627.65 517.29 L 638.19 507.97 L 642.85 501.78 L 647.59 497.23 L 653.79 493.71000000000004 L 662.48 493.21000000000004 L 667.34 494.44000000000005 L 685.53 486.5899999999999 L 709.2 476.87 L 739.47 465.9200000000001 L 759.79 458.23" stroke-linecap="round" fill="none"/><path stroke="#00ff00" stroke-width="2.769230769230769" d="M 350.85 247.77999999999997 L 346.42 304.19000000000005 L 345.91 318.03 L 348.57 344.83000000000004" stroke-linecap="round" fill="none"/><path stroke="#408040" stroke-width="9.692307692307692" d="M 374.84 305.44000000000005 L 372.16 301.88 L 370.94 297.58000000000004 L 371.35 293.14 L 373.36 289.14" stroke-linecap="round" fill="none"/><path stroke="#00ff00" stroke-width="2.769230769230769" d="M 508.4 825.08 L 488.11 833.9300000000001 L 466.21 846.54 L 388.69 879.19 L 346.21 898.43 L 334.93 903.55 L 322.96 908.96 L 281.4 928.6 L 263.83000000000004 933.76 L 241.53 938.73 L 189.78 950.0 L 165.82999999999998 950.0 L 140.65 944.93 L 130.32 941.07 L 106.95 926.93 L 90.0 908.34 L 75.32 882.29 L 68.08 858.53 L 67.69 854.8199999999999 L 64.78 826.7 L 56.92 808.51 L 52.48 801.79 L 50.0 798.39" stroke-linecap="round" fill="none"/><path stroke="#00ff00" stroke-width="2.769230769230769" d="M 161.18 553.9300000000001 L 164.04000000000002 551.29 L 173.0 561.36 L 181.04 571.77 L 187.44 583.25 L 193.85 590.85 L 205.03 629.9300000000001 L 212.98 652.25 L 222.18 670.03 L 235.56 682.62 L 256.28999999999996 691.63 L 317.79 711.77 L 370.51 732.03 L 383.93 735.02 L 400.16 736.27 L 416.39 736.47 L 428.69 739.78 L 451.53 748.66 L 477.37 764.9 L 490.81 780.19 L 493.06 784.09 L 501.04 797.96 L 505.88 801.53 L 513.13 801.37 L 535.35 800.75 L 540.9200000000001 803.99" stroke-linecap="round" fill="none"/><path stroke="#00ff00" stroke-width="2.769230769230769" d="M 493.06 784.09 L 490.32 786.16 L 482.79 790.01 L 485.07 793.15 L 492.12 802.8199999999999 L 503.31 818.19" stroke-linecap="round" fill="none"/><path stroke="#00ff00" stroke-width="2.769230769230769" d="M 286.38 370.51 L 299.06 384.0" stroke-linecap="round" fill="none"/><path stroke="#00ff00" stroke-width="2.769230769230769" d="M 280.2 363.66999999999996 L 283.1 367.03 L 286.38 370.51" stroke-linecap="round" fill="none"/><path stroke="#00ff00" stroke-width="2.769230769230769" d="M 568.32 852.12 L 641.94 783.81" stroke-linecap="round" fill="none"/><path stroke="#408040" stroke-width="9.692307692307692" d="M 626.76 665.8299999999999 L 625.86 659.76" stroke-linecap="round" fill="none"/><path stroke="#408040" stroke-width="9.692307692307692" d="M 490.11 669.55 L 491.19 673.51 L 493.35 676.02 L 497.76 677.47 L 561.9100000000001 678.49 L 566.15 677.87 L 568.94 676.4300000000001 L 571.94 673.96 L 588.48 667.75 L 594.26 666.51 L 601.6 665.9 L 620.51 666.2 L 626.76 665.8299999999999" stroke-linecap="round" fill="none"/><path stroke="#408040" stroke-width="9.692307692307692" d="M 627.99 622.73 L 658.14 623.52" stroke-linecap="round" fill="none"/><path stroke="#00ff00" stroke-width="2.769230769230769" d="M 459.16 631.4 L 459.5 681.96" stroke-linecap="round" fill="none"/><path stroke="#408040" stroke-width="9.692307692307692" d="M 616.69 563.47 L 626.32 576.98 L 628.62 588.88 L 628.85 609.9100000000001" stroke-linecap="round" fill="none"/><path stroke="#408040" stroke-width="9.692307692307692" d="M 628.85 609.9100000000001 L 622.08 605.4300000000001 L 616.69 600.1 L 611.6 591.19 L 609.68 573.62 L 610.45 553.0 L 617.72 539.99" stroke-linecap="round" fill="none"/><path stroke="#408040" stroke-width="9.692307692307692" d="M 630.36 693.0699999999999 L 630.41 685.21 L 632.0 680.73 L 634.94 676.98 L 638.93 674.36 L 643.54 673.1600000000001 L 648.29 673.47 L 652.7 675.28 L 656.81 679.06 L 659.23 684.1" stroke-linecap="round" fill="none"/><path stroke="#00ff00" stroke-width="2.769230769230769" d="M 664.6 432.70000000000005 L 667.29 425.62 L 670.04 418.44000000000005" stroke-linecap="round" fill="none"/><path stroke="#00ff00" stroke-width="2.769230769230769" d="M 648.35 475.26 L 652.34 464.8299999999999" stroke-linecap="round" fill="none"/><path stroke="#408040" stroke-width="9.692307692307692" d="M 605.64 786.25 L 607.5 778.97 L 607.61 758.9300000000001" stroke-linecap="round" fill="none"/><path stroke="#408040" stroke-width="9.692307692307692" d="M 184.36 583.9300000000001 L 177.36 583.5 L 168.65 582.96 L 150.9 567.96 L 126.87 554.1600000000001 L 101.17 532.3199999999999 L 82.69 514.28" stroke-linecap="round" fill="none"/><path stroke="#00ff00" stroke-width="3.4615384615384617" d="M 206.6 465.97 L 209.74 457.87" stroke-linecap="round" fill="none"/><path stroke="#00ff00" stroke-width="2.769230769230769" d="M 209.74 457.87 L 218.42 460.48 L 221.32 453.11 L 230.34 454.68" stroke-linecap="round" fill="none"/><path stroke="#00ff00" stroke-width="2.769230769230769" d="M 188.0 592.78 L 193.85 590.85" stroke-linecap="round" fill="none"/><path stroke="#00ff00" stroke-width="2.769230769230769" d="M 215.72 469.36 L 206.6 465.97" stroke-linecap="round" fill="none"/><path stroke="#00ff00" stroke-width="3.4615384615384617" d="M 206.04 519.46 L 207.39 498.30999999999995 L 215.72 469.36" stroke-linecap="round" fill="none"/><path stroke="#00ff00" stroke-width="2.769230769230769" d="M 177.36 583.5 L 166.91 593.55" stroke-linecap="round" fill="none"/><path stroke="#00ff00" stroke-width="3.4615384615384617" d="M 193.85 590.85 L 199.48 583.39 L 211.84 569.76 L 206.88 544.56 L 209.14 534.01 L 206.04 519.46" stroke-linecap="round" fill="none"/><path stroke="#408040" stroke-width="5.538461538461538" d="M 233.26 209.88 L 254.04 217.46000000000004 L 302.35 235.10000000000002 L 307.65 237.03999999999996 L 311.43 247.77999999999997 L 315.13 258.34000000000003 L 302.39 253.66999999999996 L 297.59000000000003 251.91999999999996 L 282.74 246.47000000000003 L 272.16999999999996 248.49 L 261.3 244.51999999999998 L 263.28999999999996 239.09000000000003 L 241.06 230.95000000000005 L 239.32 235.73000000000002 L 222.49 229.58000000000004 L 224.26 224.75 L 227.41 225.90999999999997 L 230.66 217.01 L 233.26 209.88" stroke-linecap="round" fill="none"/><path stroke="#00ff00" stroke-width="2.769230769230769" d="M 751.11 731.89 L 734.59 747.6800000000001 L 721.38 760.46 L 706.29 775.21 L 704.65 789.36" stroke-linecap="round" fill="none"/><path stroke="#00ff00" stroke-width="2.769230769230769" d="M 642.83 314.5 L 642.94 319.61" stroke-linecap="round" fill="none"/><path stroke="#00ff00" stroke-width="2.769230769230769" d="M 688.95 285.85 L 693.23 293.08000000000004" stroke-linecap="round" fill="none"/><path stroke="#408040" stroke-width="9.692307692307692" d="M 723.49 282.32000000000005 L 703.65 267.36 L 696.44 255.42999999999995 L 696.75 241.11" stroke-linecap="round" fill="none"/><path stroke="#00ff00" stroke-width="3.4615384615384617" d="M 485.07 793.15 L 483.04 794.39" stroke-linecap="round" fill="none"/><path stroke="#00ff00" stroke-width="2.769230769230769" d="M 483.04 794.39 L 481.19 795.62 L 476.4 798.84" stroke-linecap="round" fill="none"/><path stroke="#408040" stroke-width="6.923076923076923" d="M 312.17 713.55 L 364.6 733.83 L 375.61 737.03 L 386.91 739.04 L 415.87 740.34" stroke-linecap="round" fill="none"/><path stroke="#00ff00" stroke-width="2.769230769230769" d="M 309.81 627.23 L 298.77 629.9 L 279.26 645.12" stroke-linecap="round" fill="none"/><path stroke="#00ff00" stroke-width="2.769230769230769" d="M 742.06 492.06999999999994 L 744.54 484.73 L 743.62 481.63" stroke-linecap="round" fill="none"/><path stroke="#00ff00" stroke-width="2.769230769230769" d="M 752.07 546.0799999999999 L 731.81 547.6700000000001" stroke-linecap="round" fill="none"/><path stroke="#00ff00" stroke-width="2.769230769230769" d="M 728.31 496.0 L 742.06 492.06999999999994 L 748.23 525.4100000000001 L 752.07 546.0799999999999 L 757.66 576.39 L 733.79 576.75" stroke-linecap="round" fill="none"/><path stroke="#00ff00" stroke-width="3.4615384615384617" d="M 673.38 234.36 L 674.31 225.28999999999996 L 660.02 196.74" stroke-linecap="round" fill="none"/><path stroke="#00ff00" stroke-width="2.769230769230769" d="M 430.7 314.03999999999996 L 430.53 333.0 L 422.62 332.92999999999995 L 413.4 332.85 L 413.56 315.65999999999997 L 380.54 315.35" stroke-linecap="round" fill="none"/><path stroke="#408040" stroke-width="9.692307692307692" d="M 590.61 357.13 L 623.18 361.65 L 630.9 357.67999999999995 L 635.11 355.53" stroke-linecap="round" fill="none"/><path stroke="#00ff00" stroke-width="2.769230769230769" d="M 642.83 314.5 L 611.3 315.35" stroke-linecap="round" fill="none"/><path stroke="#00ff00" stroke-width="2.769230769230769" d="M 600.14 315.49 L 598.61 308.17999999999995" stroke-linecap="round" fill="none"/><path stroke="#00ff00" stroke-width="2.769230769230769" d="M 325.34 229.59000000000003 L 345.68 238.77999999999997 L 350.85 247.77999999999997 L 361.98 283.65999999999997 L 359.84 309.53999999999996 L 368.95 312.96000000000004 L 375.56 315.80999999999995" stroke-linecap="round" fill="none"/><path stroke="#00ff00" stroke-width="3.4615384615384617" d="M 311.43 247.77999999999997 L 322.05 247.75" stroke-linecap="round" fill="none"/><path stroke="#00ff00" stroke-width="3.4615384615384617" d="M 327.38 296.82000000000005 L 333.28 296.37" stroke-linecap="round" fill="none"/><path stroke="#00ff00" stroke-width="2.769230769230769" d="M 333.28 296.37 L 332.99 304.64 L 338.58 304.45000000000005 L 346.42 304.19000000000005" stroke-linecap="round" fill="none"/><path stroke="#00ff00" stroke-width="3.4615384615384617" d="M 325.34 229.59000000000003 L 315.7 215.26999999999998" stroke-linecap="round" fill="none"/><path stroke="#408040" stroke-width="5.538461538461538" d="M 430.53 333.0 L 429.89 402.28 L 472.97 402.66999999999996" stroke-linecap="round" fill="none"/><path stroke="#408040" stroke-width="5.538461538461538" d="M 429.89 402.28 L 422.03 402.41999999999996" stroke-linecap="round" fill="none"/><path stroke="#00ff00" stroke-width="2.769230769230769" d="M 678.39 290.65999999999997 L 688.95 285.85" stroke-linecap="round" fill="none"/><path stroke="#00ff00" stroke-width="3.4615384615384617" d="M 688.22 283.09000000000003 L 688.05 282.25 L 688.16 281.40999999999997 L 688.55 280.64 L 689.13 280.04999999999995 L 689.9 279.67999999999995 L 690.74 279.57000000000005 L 691.55 279.76 L 692.28 280.16999999999996 L 692.83 280.82000000000005 L 693.14 281.59000000000003 L 693.09 282.58000000000004 L 692.43 283.70000000000005" stroke-linecap="round" fill="none"/><path stroke="#00ff00" stroke-width="3.4615384615384617" d="M 693.06 283.58000000000004 L 692.49 284.0 L 691.78 284.46000000000004 L 690.97 284.70000000000005 L 690.12 284.66999999999996 L 689.32 284.38 L 688.67 283.83000000000004 L 688.22 283.09000000000003" stroke-linecap="round" fill="none"/><path stroke="#00ff00" stroke-width="3.4615384615384617" d="M 690.63 285.15 L 688.95 285.85" stroke-linecap="round" fill="none"/><path stroke="#00ff00" stroke-width="3.4615384615384617" d="M 692.43 283.70000000000005 L 690.63 285.15" stroke-linecap="round" fill="none"/><path stroke="#00ff00" stroke-width="2.769230769230769" d="M 122.38 288.19000000000005 L 129.26999999999998 261.24 L 156.91 271.08000000000004 L 197.89 285.67999999999995 L 186.61 319.19000000000005 L 177.20999999999998 350.21000000000004 L 238.94 369.32000000000005 L 254.26 369.85" stroke-linecap="round" fill="none"/><path stroke="#00ff00" stroke-width="2.769230769230769" d="M 187.24 241.51 L 206.92 246.13 L 213.74 247.72000000000003 L 260.55 258.73" stroke-linecap="round" fill="none"/><path stroke="#00ff00" stroke-width="2.769230769230769" d="M 260.55 258.73 L 296.89 274.72 L 266.19 335.49" stroke-linecap="round" fill="none"/><path stroke="#00ff00" stroke-width="2.769230769230769" d="M 298.46000000000004 171.01 L 305.05 233.35000000000002 L 302.47 244.38" stroke-linecap="round" fill="none"/><path stroke="#408040" stroke-width="9.692307692307692" d="M 702.37 691.75 L 702.53 661.3299999999999" stroke-linecap="round" fill="none"/><path stroke="#00ff00" stroke-width="2.769230769230769" d="M 704.18 647.8399999999999 L 704.59 626.25 L 712.7 610.6800000000001" stroke-linecap="round" fill="none"/><path stroke="#00ff00" stroke-width="3.4615384615384617" d="M 203.99 456.25 L 209.74 457.87" stroke-linecap="round" fill="none"/><path stroke="#408040" stroke-width="9.692307692307692" d="M 219.32 437.08000000000004 L 219.86 434.49 L 219.5 431.88 L 218.28 429.52 L 216.37 427.70000000000005 L 213.95 426.64 L 211.32 426.41999999999996 L 208.88 427.03999999999996 L 206.75 428.40999999999997 L 205.18 430.4 L 204.3 432.78 L 204.24 435.29999999999995 L 204.98 437.71000000000004 L 206.46 439.76 L 208.51 441.24 L 210.92 441.99 L 213.44 441.95 L 215.92 441.02 L 217.96 439.34 L 219.32 437.08000000000004" stroke-linecap="round" fill="none"/><path stroke="#00ff00" stroke-width="3.4615384615384617" d="M 208.51 441.24 L 203.99 456.25" stroke-linecap="round" fill="none"/><path stroke="#408040" stroke-width="9.692307692307692" d="M 198.0 395.03999999999996 L 185.54 428.07000000000005 L 180.47 440.71" stroke-linecap="round" fill="none"/><path stroke="#408040" stroke-width="9.692307692307692" d="M 202.24 383.78 L 198.0 395.03999999999996" stroke-linecap="round" fill="none"/><path stroke="#00ff00" stroke-width="2.769230769230769" d="M 828.46 669.52 L 822.77 671.45 L 811.21 675.39 L 802.61 682.3299999999999 L 786.08 698.67 L 751.11 731.89" stroke-linecap="round" fill="none"/><path stroke="#408040" stroke-width="9.692307692307692" d="M 281.0 385.63 L 280.03999999999996 405.53999999999996 L 279.72 442.7" stroke-linecap="round" fill="none"/><path stroke="#408040" stroke-width="9.692307692307692" d="M 281.05 368.37 L 281.0 385.63" stroke-linecap="round" fill="none"/></svg>