<svg xmlns="http://www.w3.org/2000/svg" viewBox="0 0 1000 1000" width="1000mm" height="1000mm"><style >

.small { font: 10px sans-serif; fill:black}
svg {background-color: white;}
.smallevidence { font: 10px sans-serif; fill:red}
.heavy { font: bold 30px sans-serif; }
.heavyevidence { font: bold 30px sans-serif; fill:red}

.title { font: italic 40px sans-serif; fill:red; }

</style><path stroke="darkgrey" stroke-width="0.1" d="M 655.49 142.03999999999996 L 677.35 134.73000000000002 L 677.69 135.76 L 712.16 124.24000000000001 L 716.4 122.84000000000003 L 740.91 114.74000000000001 L 760.53 108.25999999999999 L 766.49 106.27999999999997 L 804.26 93.80999999999995 L 810.58 91.74000000000001 L 818.9 120.02999999999997 L 821.7 129.47000000000003 L 824.48 138.88 L 831.1 161.39999999999998 L 832.8 167.16999999999996 L 838.14 185.51 L 840.97 194.91999999999996 L 808.75 205.25 L 754.65 222.70000000000005 L 755.17 223.52999999999997 L 752.75 224.39 L 752.34 223.55999999999995 L 735.26 228.89 L 739.73 242.0 L 719.61 247.39 L 710.31 219.96000000000004 L 719.25 217.65999999999997 L 712.75 200.69000000000005 L 712.47 199.92999999999995 L 705.84 201.94000000000005 L 705.38 201.03999999999996 L 693.2 204.01 L 688.86 192.26999999999998 L 679.79 194.91999999999996 L 678.33 191.70000000000005 L 674.45 183.27999999999997 L 667.64 168.48000000000002 L 657.68 146.78999999999996 L 655.49 142.03999999999996" stroke-linecap="round" fill="grey"/><path stroke="darkgrey" stroke-width="0.1" d="M 160.18 202.66999999999996 L 153.70999999999998 191.73000000000002 L 139.24 168.57000000000005 L 159.23000000000002 164.64999999999998 L 173.28 163.22000000000003 L 172.82 159.92999999999995 L 177.44 159.79999999999995 L 177.55 162.58000000000004 L 202.1 163.22000000000003 L 198.38 160.19000000000005 L 183.38 148.15999999999997 L 179.5 145.03999999999996 L 166.22 158.52999999999997 L 160.8 148.07000000000005 L 133.64 165.76999999999998 L 127.97 169.47000000000003 L 139.73000000000002 188.40999999999997 L 124.68 196.66999999999996 L 103.47999999999999 208.27999999999997 L 85.25 220.95000000000005 L 81.34 215.84000000000003 L 77.33 218.51999999999998 L 82.03 223.47000000000003 L 97.22 239.32000000000005 L 107.0 250.48000000000002 L 83.86 267.07000000000005 L 50.0 235.26 L 50.0 189.66999999999996 L 54.980000000000004 185.79999999999995 L 84.22 165.19000000000005 L 115.04 143.47000000000003 L 140.57999999999998 125.61000000000001 L 154.25 115.88 L 156.07 114.63999999999999 L 170.87 104.52999999999997 L 188.46 119.49000000000001 L 202.1 131.45000000000005 L 217.42 144.69000000000005 L 228.1 148.76999999999998 L 232.88 143.38 L 209.73 126.40999999999997 L 205.37 123.15999999999997 L 175.65 99.29999999999995 L 207.01 68.64999999999998 L 209.76 65.97000000000003 L 217.08 59.370000000000005 L 226.64 50.0 L 282.2 50.0 L 285.93 52.610000000000014 L 271.75 87.37 L 263.19 106.99000000000001 L 249.45 138.34000000000003 L 246.21 152.47000000000003 L 245.55 157.35000000000002 L 244.31 163.85000000000002 L 247.01 184.01 L 249.22 205.0 L 255.28 215.29999999999995 L 256.98 218.20000000000005 L 258.72 221.23000000000002 L 270.93 241.33000000000004 L 230.11 269.36 L 227.18 264.96000000000004 L 223.58 259.57000000000005 L 205.62 270.86 L 189.23 280.97 L 175.95 289.29999999999995 L 176.29000000000002 289.74 L 159.8 299.95000000000005 L 153.14 304.05999999999995 L 149.93 300.04999999999995 L 120.62 263.53 L 109.14 247.61 L 87.92 224.16999999999996 L 105.46000000000001 210.33000000000004 L 118.69 202.61 L 126.04 198.62 L 140.91 190.41999999999996 L 146.51 199.39 L 149.34 197.85000000000002 L 153.48000000000002 204.54999999999995 L 154.12 205.51 L 160.18 202.66999999999996" stroke-linecap="round" fill="grey"/><path stroke="darkgrey" stroke-width="0.1" d="M 426.01 95.22000000000003 L 437.26 116.71000000000004 L 425.63 122.03999999999996 L 430.48 130.11 L 420.67 134.61 L 412.4 120.83000000000004 L 415.27 119.51999999999998 L 412.58 115.05999999999995 L 405.28 118.39999999999998 L 408.34 123.50999999999999 L 396.39 128.96000000000004 L 392.23 121.90999999999997 L 385.99 110.77999999999997 L 379.8 99.77999999999997 L 378.08 96.72000000000003 L 417.35 78.98000000000002 L 426.01 95.22000000000003" stroke-linecap="round" fill="grey"/><path stroke="darkgrey" stroke-width="0.1" d="M 290.16999999999996 248.22000000000003 L 272.8 215.08000000000004 L 271.11 212.14 L 269.36 209.11 L 262.03999999999996 193.45000000000005 L 270.8 190.03999999999996 L 279.58000000000004 186.60000000000002 L 288.34000000000003 183.17999999999995 L 297.13 179.76999999999998 L 305.89 176.36 L 314.65 172.90999999999997 L 323.43 169.5 L 332.19 166.09000000000003 L 353.18 155.98000000000002 L 373.07 146.5 L 377.2 153.39 L 381.31 160.27999999999997 L 385.76 168.0 L 390.23 175.75 L 394.67 183.47000000000003 L 398.42 189.90999999999997 L 401.48 195.24 L 361.66 216.58000000000004 L 357.63 210.96000000000004 L 319.97 231.5 L 290.16999999999996 248.22000000000003" stroke-linecap="round" fill="grey"/><path stroke="darkgrey" stroke-width="0.1" d="M 719.25 217.65999999999997 L 710.31 219.96000000000004 L 719.61 247.39 L 739.73 242.0 L 756.48 237.55999999999995 L 789.0 229.37 L 789.44 230.58000000000004 L 791.36 230.07000000000005 L 792.98 234.98000000000002 L 807.29 231.63 L 809.04 236.99 L 819.8 234.01999999999998 L 827.81 259.51 L 792.72 269.80999999999995 L 796.01 278.84000000000003 L 795.75 286.14 L 792.7 293.40999999999997 L 799.4 314.65 L 800.58 318.58000000000004 L 749.59 331.27 L 754.5 346.32000000000005 L 757.43 345.59000000000003 L 758.17 347.91999999999996 L 756.81 348.52 L 756.07 349.26 L 755.86 350.17999999999995 L 756.07 351.46000000000004 L 756.6 353.09000000000003 L 757.27 354.52 L 758.12 355.22 L 759.35 355.66999999999996 L 760.51 355.61 L 761.41 355.35 L 762.8 360.01 L 761.18 360.52 L 760.05 361.15999999999997 L 759.76 362.11 L 759.97 363.36 L 760.56 365.04999999999995 L 761.15 366.32000000000005 L 762.26 367.09000000000003 L 763.95 367.25 L 765.21 367.12 L 768.06 375.25 L 765.8 375.78999999999996 L 742.73 381.38 L 704.35 390.65999999999997 L 664.43 400.32000000000005 L 665.07 402.33000000000004 L 646.17 406.89 L 642.83 396.55999999999995 L 638.92 384.5 L 633.73 385.80999999999995 L 634.09 386.79999999999995 L 626.77 388.67999999999995 L 626.39 387.5 L 611.51 390.94000000000005 L 611.72 391.74 L 578.81 399.80999999999995 L 578.42 398.82000000000005 L 570.72 400.66999999999996 L 569.15 395.38 L 571.98 394.54999999999995 L 573.78 393.85 L 575.62 392.86 L 576.52 391.49 L 577.06 390.12 L 576.99 388.29999999999995 L 576.45 386.66999999999996 L 574.24 380.20000000000005 L 573.29 378.73 L 571.26 377.28999999999996 L 569.28 376.69000000000005 L 567.35 376.53 L 565.17 376.82000000000005 L 563.14 377.41999999999996 L 562.19 374.26 L 571.67 371.80999999999995 L 565.45 353.63 L 555.6600000000001 356.08000000000004 L 553.53 349.71000000000004 L 555.6600000000001 349.23 L 557.64 348.46000000000004 L 559.13 347.57000000000005 L 559.98 346.79999999999995 L 561.03 345.49 L 561.39 344.38 L 561.6800000000001 343.1 L 561.6 341.76 L 561.03 339.95000000000005 L 560.3399999999999 338.25 L 556.64 327.95000000000005 L 555.77 325.90999999999997 L 554.69 324.13 L 552.81 322.69000000000005 L 551.45 322.02 L 549.5 321.53999999999996 L 547.7 321.32000000000005 L 545.36 321.61 L 543.38 322.17999999999995 L 540.9200000000001 315.41999999999996 L 550.76 312.77 L 544.46 295.28999999999996 L 534.65 297.80999999999995 L 533.44 294.88 L 535.76 294.21000000000004 L 537.01 293.83000000000004 L 538.3 293.12 L 539.3 292.33000000000004 L 540.23 291.4 L 540.79 290.6 L 541.1800000000001 289.36 L 541.61 288.4 L 541.3 286.62 L 540.9200000000001 285.17999999999995 L 540.4300000000001 284.07000000000005 L 539.27 280.94000000000005 L 538.71 279.47 L 537.8399999999999 277.4 L 536.45 275.92999999999995 L 534.88 275.07000000000005 L 532.7 274.42999999999995 L 530.8199999999999 274.30999999999995 L 528.54 274.78 L 526.5799999999999 275.41999999999996 L 524.3 269.67999999999995 L 532.1800000000001 267.64 L 530.46 262.40999999999997 L 535.22 261.20000000000005 L 536.53 264.39 L 555.69 259.44000000000005 L 554.46 255.74 L 559.62 254.30999999999995 L 560.88 258.03999999999996 L 576.58 253.96000000000004 L 575.37 249.90999999999997 L 579.86 248.76 L 581.33 252.80999999999995 L 596.3 249.01 L 594.63 244.54999999999995 L 599.85 243.17999999999995 L 601.21 247.71000000000004 L 622.71 242.22000000000003 L 621.04 237.17999999999995 L 627.52 235.33000000000004 L 624.07 223.11 L 622.92 221.87 L 640.16 217.65999999999997 L 637.95 211.05999999999995 L 644.93 209.11 L 646.37 213.96000000000004 L 648.61 213.45000000000005 L 649.22 215.11 L 675.61 208.48000000000002 L 675.71 208.35000000000002 L 675.14 206.55999999999995 L 677.17 205.99 L 675.58 201.39 L 681.98 199.74 L 684.47 199.02999999999997 L 686.68 205.70000000000005 L 693.2 204.01 L 705.38 201.03999999999996 L 705.84 201.94000000000005 L 712.47 199.92999999999995 L 712.75 200.69000000000005 L 719.25 217.65999999999997" stroke-linecap="round" fill="grey"/><path stroke="darkgrey" stroke-width="0.1" d="M 325.9 138.69000000000005 L 341.16 151.61 L 332.76 155.12 L 324.39 158.62 L 313.6 162.79999999999995 L 314.29 163.78999999999996 L 304.07 167.01 L 293.84000000000003 170.26999999999998 L 283.62 173.49 L 273.39 176.74 L 263.16999999999996 179.96000000000004 L 259.19 167.75 L 262.83000000000004 166.85000000000002 L 263.01 147.49 L 268.53999999999996 134.83000000000004 L 272.15999999999997 126.70000000000005 L 276.5 116.11000000000001 L 278.78999999999996 110.55999999999995 L 282.1 104.42999999999995 L 287.15999999999997 95.14999999999998 L 294.51 105.23000000000002 L 291.97 110.08000000000004 L 293.3 110.59000000000003 L 290.14 117.19000000000005 L 288.28999999999996 121.01999999999998 L 286.96000000000004 123.78999999999996 L 283.8 130.39999999999998 L 279.97 137.99 L 277.32 144.24 L 286.72 140.57000000000005 L 296.13 136.89999999999998 L 306.27 133.59000000000003 L 315.19 130.67999999999995 L 316.4 130.26999999999998 L 319.56 133.08000000000004 L 322.74 135.88 L 325.9 138.69000000000005" stroke-linecap="round" fill="grey"/><path stroke="darkgrey" stroke-width="0.1" d="M 414.76 694.74 L 418.43 704.12 L 408.39 707.11 L 404.72 697.74 L 414.76 694.74" stroke-linecap="round" fill="grey"/><path stroke="darkgrey" stroke-width="0.1" d="M 708.57 91.25999999999999 L 711.57 99.26999999999998 L 707.95 100.15999999999997 L 713.24 112.85000000000002 L 708.18 114.54999999999995 L 703.09 116.24000000000001 L 679.49 124.21000000000004 L 673.58 126.22000000000003 L 667.67 128.20000000000005 L 661.76 130.21000000000004 L 653.95 132.78999999999996 L 639.64 101.52999999999997 L 647.43 99.13999999999999 L 657.06 96.21000000000004 L 700.91 82.77999999999997 L 705.71 91.92999999999995 L 708.57 91.25999999999999" stroke-linecap="round" fill="grey"/><path stroke="darkgrey" stroke-width="0.1" d="M 58.81 675.89 L 55.55 668.04 L 52.21 660.13 L 53.34 659.75 L 52.95 658.89 L 53.62 658.06 L 54.88 657.77 L 55.42 658.4100000000001 L 56.32 658.03 L 56.78 658.73 L 62.69 656.75 L 62.33 655.99 L 62.9 655.64 L 63.85 655.29 L 64.67 655.99 L 75.46000000000001 652.45 L 75.28 651.4300000000001 L 75.87 650.98 L 77.05 650.88 L 77.87 651.81 L 87.81 648.3 L 87.35 647.6600000000001 L 87.33 646.9300000000001 L 88.56 646.52 L 89.3 646.64 L 89.92 647.5 L 100.02000000000001 644.03 L 99.61 643.3299999999999 L 99.84 642.62 L 101.03999999999999 642.24 L 101.81 642.69 L 102.22999999999999 643.2 L 110.88 640.23 L 110.45 639.4 L 110.75 638.86 L 111.99000000000001 638.61 L 112.86 639.69 L 121.78 636.63 L 121.75 635.8299999999999 L 121.88 635.26 L 123.01 634.9100000000001 L 123.78 635.77 L 135.06 631.94 L 134.59 631.3 L 134.75 630.5699999999999 L 135.8 630.19 L 136.78 630.54 L 137.16 631.3299999999999 L 146.74 628.0799999999999 L 146.28 627.4100000000001 L 146.92000000000002 626.64 L 148.13 626.64 L 148.93 627.35 L 158.1 624.1600000000001 L 157.82 623.46 L 158.1 622.79 L 159.32999999999998 622.37 L 160.59 623.39 L 169.2 620.23 L 168.73000000000002 619.4 L 169.94 618.7 L 171.1 619.02 L 171.45999999999998 619.53 L 180.04 616.6 L 179.86 615.77 L 180.73 615.1600000000001 L 181.86 615.35 L 182.4 615.8299999999999 L 191.5 612.61 L 191.29 611.9100000000001 L 191.55 611.4 L 192.91 611.05 L 193.65 611.5 L 193.88 611.75 L 203.65 608.5 L 203.36 607.64 L 203.8 607.0899999999999 L 204.88 606.77 L 205.65 607.19 L 205.91 607.6 L 216.59 604.06 L 216.16 603.4300000000001 L 216.13 602.63 L 217.49 602.1800000000001 L 218.67 602.63 L 218.88 603.23 L 226.89 600.3299999999999 L 226.61 599.76 L 226.72 598.96 L 228.13 598.51 L 229.05 598.9 L 229.28 599.47 L 238.15 596.5699999999999 L 237.97 595.4200000000001 L 238.99 594.88 L 240.18 595.29 L 240.77 595.6800000000001 L 249.84 592.71 L 249.4 591.88 L 249.94 591.4 L 251.15 590.96 L 251.89 591.37 L 252.15 591.75 L 261.83000000000004 588.53 L 261.47 587.64 L 262.16999999999996 587.06 L 263.48 586.94 L 264.32 587.77 L 274.55 584.23 L 274.19 583.4 L 274.98 582.73 L 276.47 582.69 L 276.83000000000004 583.4 L 285.08000000000004 580.53 L 284.72 579.7 L 285.36 579.25 L 286.6 578.9300000000001 L 287.52 579.76 L 296.91999999999996 576.48 L 296.74 575.71 L 296.87 575.52 L 298.0 575.23 L 298.85 575.9300000000001 L 308.1 572.71 L 307.92 572.11 L 307.97 571.24 L 309.36 570.89 L 310.13 571.47 L 310.28 571.9100000000001 L 320.2 568.5699999999999 L 319.84 567.8 L 320.43 567.1600000000001 L 321.84 566.94 L 322.54 567.7 L 332.14 564.48 L 332.07 563.88 L 332.37 562.98 L 333.86 563.14 L 334.02 563.72 L 343.78 560.4 L 343.68 559.79 L 344.14 559.12 L 345.37 559.22 L 345.71 559.89 L 355.11 556.64 L 355.08 556.0 L 355.42 555.36 L 356.45 555.1700000000001 L 356.96 555.4200000000001 L 357.22 555.81 L 366.67 552.49 L 366.59 551.76 L 366.9 551.12 L 368.13 550.96 L 368.7 551.4100000000001 L 368.98 551.6600000000001 L 379.59 548.15 L 379.33 547.26 L 379.8 546.53 L 381.24 546.56 L 381.59 547.36 L 390.71 544.3299999999999 L 390.25 543.56 L 391.15 542.8299999999999 L 392.38 543.02 L 392.87 543.53 L 401.74 540.56 L 401.43 539.8 L 401.66 539.06 L 403.12 538.8399999999999 L 403.66 539.1600000000001 L 403.89 539.86 L 413.09 536.73 L 412.63 535.75 L 412.83 535.24 L 414.17 534.69 L 414.79 535.11 L 415.2 535.87 L 424.68 532.65 L 424.29 531.8199999999999 L 424.7 531.0899999999999 L 426.22 531.06 L 426.63 531.38 L 426.76 531.79 L 437.39 528.35 L 437.03 527.36 L 437.34 526.75 L 439.04 526.56 L 439.5 527.49 L 448.26 524.46 L 447.8 523.69 L 447.77 522.96 L 449.49 522.48 L 449.98 522.96 L 450.34 523.75 L 459.84 520.44 L 459.69 519.77 L 459.77 519.1 L 460.87 518.75 L 461.72 519.22 L 462.03 519.77 L 469.99 516.96 L 473.64 524.5799999999999 L 482.48 544.36 L 490.18 561.52 L 54.85 709.41 L 66.47 737.0 L 108.13 723.16 L 96.5 695.47 L 122.55 686.6700000000001 L 134.51999999999998 714.3199999999999 L 165.91 703.89 L 154.14 675.9200000000001 L 180.19 667.05 L 192.03 695.19 L 224.43 684.3399999999999 L 212.35 656.24 L 236.76 647.89 L 249.04 676.0799999999999 L 281.95 664.98 L 269.85 636.76 L 294.56 628.27 L 306.66 656.85 L 339.67 645.75 L 327.24 617.01 L 353.29 608.1800000000001 L 365.92 636.98 L 420.95 618.29 L 408.52 589.52 L 444.56 577.24 L 457.27 606.01 L 503.34 590.6700000000001 L 508.17 601.4200000000001 L 417.28 633.25 L 429.17 660.29 L 429.02 660.36 L 104.05 751.51 L 50.0 766.86 L 50.0 678.77 L 58.81 675.89" stroke-linecap="round" fill="grey"/><path stroke="darkgrey" stroke-width="0.1" d="M 653.8 425.71000000000004 L 662.25 423.40999999999997 L 671.11 421.28 L 667.8 410.88 L 665.07 402.33000000000004 L 664.43 400.32000000000005 L 704.35 390.65999999999997 L 742.73 381.38 L 765.8 375.78999999999996 L 764.88 376.15 L 764.7 376.78 L 764.77 377.64 L 764.98 378.35 L 769.86 392.91999999999996 L 770.19 394.26 L 770.86 395.28 L 771.71 395.51 L 773.02 395.40999999999997 L 774.38 395.12 L 776.67 402.24 L 751.34 408.36 L 750.39 405.41999999999996 L 712.01 414.71000000000004 L 754.73 552.4300000000001 L 865.19 524.8399999999999 L 833.08 420.22 L 821.68 386.53999999999996 L 813.63 388.49 L 811.45 381.70000000000005 L 781.86 388.94000000000005 L 777.95 376.78 L 807.55 369.53999999999996 L 804.13 358.99 L 812.17 357.01 L 806.29 336.09000000000003 L 758.17 347.91999999999996 L 757.43 345.59000000000003 L 754.5 346.32000000000005 L 749.59 331.27 L 800.58 318.58000000000004 L 799.4 314.65 L 792.7 293.40999999999997 L 840.97 281.79999999999995 L 833.34 257.94000000000005 L 827.81 259.51 L 819.8 234.01999999999998 L 809.04 236.99 L 807.29 231.63 L 800.74 213.15999999999997 L 843.05 201.59000000000003 L 840.97 194.91999999999996 L 838.14 185.51 L 843.0 185.19000000000005 L 847.88 184.87 L 852.6 199.0 L 865.94 248.5 L 878.47 296.91999999999996 L 906.96 402.90999999999997 L 922.4 458.63 L 925.84 470.20000000000005 L 942.34 523.5899999999999 L 936.87 524.87 L 950.0 565.3 L 950.0 582.78 L 912.18 592.1 L 839.86 609.9300000000001 L 722.16 638.99 L 710.98 607.6700000000001 L 660.96 448.39 L 653.8 425.71000000000004" stroke-linecap="round" fill="grey"/><path stroke="darkgrey" stroke-width="0.1" d="M 375.53 133.29999999999995 L 389.84 127.01999999999998 L 396.34 137.96000000000004 L 400.25 144.24 L 404.12 150.51999999999998 L 408.0 156.20000000000005 L 411.88 161.90999999999997 L 415.76 167.59000000000003 L 402.71 175.08000000000004 L 398.32 169.21000000000004 L 393.9 163.30999999999995 L 389.51 157.44000000000005 L 385.65 150.97000000000003 L 381.8 144.49 L 378.67 138.88 L 375.53 133.29999999999995" stroke-linecap="round" fill="grey"/><path stroke="darkgrey" stroke-width="0.1" d="M 63.9 290.05999999999995 L 73.94 282.89 L 104.41 261.74 L 121.29 283.49 L 139.35 307.19000000000005 L 145.69 316.09000000000003 L 104.78999999999999 336.85 L 80.96000000000001 309.58000000000004 L 77.1 305.21000000000004 L 63.9 290.05999999999995" stroke-linecap="round" fill="grey"/><path stroke="darkgrey" stroke-width="0.1" d="M 506.11 177.76 L 510.48 184.71000000000004 L 514.8399999999999 191.63 L 523.6 205.53999999999996 L 509.6 213.48000000000002 L 504.36 216.45000000000005 L 494.76 221.92999999999995 L 490.59 224.29999999999995 L 485.12 227.39 L 477.29 218.11 L 461.59 199.58000000000004 L 453.73 190.33000000000004 L 470.76 180.27999999999997 L 479.55 192.90999999999997 L 490.05 186.75 L 506.11 177.76" stroke-linecap="round" fill="grey"/><path stroke="darkgrey" stroke-width="0.1" d="M 325.9 138.69000000000005 L 356.65 116.20000000000005 L 359.01 120.45000000000005 L 366.16 133.14 L 368.52 137.38 L 360.02 142.28999999999996 L 351.54 147.24 L 346.35 149.40999999999997 L 341.16 151.61 L 325.9 138.69000000000005" stroke-linecap="round" fill="grey"/><path stroke="darkgrey" stroke-width="0.1" d="M 508.17 601.4200000000001 L 501.74 603.65 L 432.33 627.98 L 457.79 700.03 L 460.79 708.55 L 478.6 758.94 L 449.0 767.84 L 454.14 779.64 L 458.2 788.67 L 489.05 778.56 L 486.15 771.5699999999999 L 567.43 743.03 L 572.59 741.34 L 610.2 728.42 L 604.58 715.85 L 597.28 699.52 L 513.28 511.73 L 509.81 503.98 L 499.38 507.39 L 469.99 516.96 L 473.64 524.5799999999999 L 482.48 544.36 L 508.17 601.4200000000001" stroke-linecap="round" fill="grey"/><path stroke="darkgrey" stroke-width="0.1" d="M 446.28 457.32 L 459.9 453.11 L 459.15 451.29 L 464.34 449.73 L 465.06 451.51 L 484.69 445.48 L 498.76 479.71000000000004 L 460.38 491.53999999999996 L 446.28 457.32" stroke-linecap="round" fill="grey"/><path stroke="darkgrey" stroke-width="0.1" d="M 514.9200000000001 432.85 L 521.8299999999999 449.82 L 525.0899999999999 448.8 L 526.61 452.5 L 527.95 455.79 L 524.6800000000001 456.81 L 531.49 473.52 L 517.03 477.78999999999996 L 500.05 482.79999999999995 L 483.32 442.14 L 500.51 437.1 L 514.9200000000001 432.85" stroke-linecap="round" fill="grey"/><path stroke="darkgrey" stroke-width="0.1" d="M 636.76 102.36000000000001 L 651.18 133.59000000000003 L 640.85 137.09000000000003 L 630.52 140.64 L 615.91 105.23000000000002 L 634.79 98.65999999999997 L 636.76 102.36000000000001" stroke-linecap="round" fill="grey"/><path stroke="darkgrey" stroke-width="0.1" d="M 419.43 271.59000000000003 L 207.17 385.67999999999995 L 128.76 426.89 L 77.9 455.15 L 50.0 470.15 L 50.0 384.23 L 51.36 383.48 L 61.07 377.84000000000003 L 75.38 369.73 L 90.15 362.27 L 110.65 352.41999999999996 L 124.7 346.03999999999996 L 183.33 315.20000000000005 L 219.47 292.14 L 243.39 276.63 L 275.5 256.53999999999996 L 290.16999999999996 248.22000000000003 L 319.97 231.5 L 357.63 210.96000000000004 L 361.66 216.58000000000004 L 401.48 195.24 L 405.05 200.21000000000004 L 407.9 204.07000000000005 L 413.63 211.76 L 415.76 214.60000000000002 L 417.87 217.47000000000003 L 422.59 223.77999999999997 L 427.3 230.13 L 432.28 236.86 L 405.1 251.25 L 411.86 260.88 L 415.5 266.04999999999995 L 419.43 271.59000000000003" stroke-linecap="round" fill="grey"/><path stroke="darkgrey" stroke-width="0.1" d="M 443.69 230.64 L 468.35 217.76 L 473.2 224.45000000000005 L 475.05 227.28999999999996 L 477.95 231.40999999999997 L 482.06 237.24 L 482.48 236.96000000000004 L 483.5 238.36 L 481.06 239.76 L 480.78 239.40999999999997 L 467.88 246.24 L 467.06 246.69000000000005 L 465.78 247.39 L 461.54 249.62 L 461.92 250.13 L 459.23 251.5 L 458.92 251.04999999999995 L 452.52 254.44000000000005 L 451.49 254.98000000000002 L 446.36 257.72 L 446.61 258.14 L 444.33 259.35 L 444.02 258.92999999999995 L 419.43 271.59000000000003 L 415.5 266.04999999999995 L 411.86 260.88 L 405.1 251.25 L 432.28 236.86 L 436.6 234.5 L 443.69 230.64" stroke-linecap="round" fill="grey"/><path stroke="darkgrey" stroke-width="0.1" d="M 451.96 199.35000000000002 L 430.02 211.60000000000002 L 425.6 205.45000000000005 L 423.39 202.35000000000002 L 444.61 190.45000000000005 L 448.28 194.89 L 451.96 199.35000000000002" stroke-linecap="round" fill="grey"/><path stroke="darkgrey" stroke-width="0.1" d="M 685.37 684.21 L 685.45 690.98 L 690.99 695.73 L 698.75 695.63 L 704.17 690.8199999999999 L 704.1 684.05 L 698.55 679.3299999999999 L 690.79 679.4 L 685.37 684.21" stroke-linecap="round" fill="grey"/><path stroke="darkgrey" stroke-width="0.1" d="M 620.3 704.91 L 620.4 711.6800000000001 L 625.92 716.4 L 633.71 716.33 L 639.13 711.48 L 639.05 704.72 L 633.5 700.0 L 625.74 700.0699999999999 L 620.3 704.91" stroke-linecap="round" fill="grey"/><path stroke="darkgrey" stroke-width="0.1" d="M 450.16 458.94 L 483.89 448.48 L 496.01 477.73 L 462.28 488.19000000000005 L 450.16 458.94" stroke-linecap="round" fill="grey"/><path stroke="darkgrey" stroke-width="0.1" d="M 556.15 141.04999999999995 L 531.3399999999999 151.83000000000004 L 526.1700000000001 142.79999999999995 L 523.06 144.01999999999998 L 530.05 155.90999999999997 L 507.09 165.10000000000002 L 503.34 159.13 L 499.56 153.14 L 495.81 147.16999999999996 L 492.03 141.21000000000004 L 499.64 138.01999999999998 L 507.24 134.83000000000004 L 514.8399999999999 131.64 L 522.47 128.48000000000002 L 530.0799999999999 125.28999999999996 L 537.6800000000001 122.10000000000002 L 545.29 118.90999999999997 L 556.15 141.04999999999995" stroke-linecap="round" fill="grey"/><path stroke="darkgrey" stroke-width="0.1" d="M 439.76 50.0 L 440.6 50.72000000000003 L 446.13 55.48000000000002 L 451.65 60.23000000000002 L 430.71 70.21000000000004 L 442.17 88.41999999999996 L 426.01 95.22000000000003 L 417.35 78.98000000000002 L 409.65 63.02999999999997 L 408.03 60.51999999999998 L 406.41 58.02999999999997 L 404.79 55.50999999999999 L 401.19 50.0" stroke-linecap="round" fill="grey"/><path stroke="darkgrey" stroke-width="0.1" d="M 503.49 80.0 L 530.5699999999999 69.96000000000004 L 537.3199999999999 67.52999999999997 L 544.0799999999999 65.08000000000004 L 559.13 59.64999999999998 L 568.3 73.97000000000003 L 577.47 88.29999999999995 L 571.95 90.37 L 560.88 94.51999999999998 L 550.27 98.47000000000003 L 539.6600000000001 102.41999999999996 L 529.05 106.40999999999997 L 518.44 110.37 L 510.19 93.64999999999998 L 503.49 80.0" stroke-linecap="round" fill="grey"/><path stroke="darkgrey" stroke-width="0.1" d="M 470.12 134.19000000000005 L 449.44 101.30999999999995 L 456.5 98.44000000000005 L 449.88 87.47000000000003 L 443.66 90.82000000000005 L 442.17 88.41999999999996 L 430.71 70.21000000000004 L 451.65 60.23000000000002 L 454.78 65.38999999999999 L 457.92 70.55999999999995 L 464.16 80.92999999999995 L 467.5 86.40999999999997 L 470.81 91.87 L 473.59 96.55999999999995 L 484.71 115.30999999999995 L 490.26 124.69000000000005 L 480.19 129.44000000000005 L 470.12 134.19000000000005" stroke-linecap="round" fill="grey"/><path stroke="darkgrey" stroke-width="0.1" d="M 479.29 87.01999999999998 L 475.59 80.74000000000001 L 468.19 68.16999999999996 L 491.29 55.440000000000055 L 492.65 58.0 L 501.95 76.90999999999997 L 503.49 80.0 L 510.19 93.64999999999998 L 518.44 110.37 L 511.99 113.59000000000003 L 505.54 116.80999999999995 L 499.1 120.02999999999997 L 495.58 114.38999999999999 L 492.03 108.76999999999998 L 488.51 103.13 L 485.43 97.76999999999998 L 482.37 92.38 L 479.29 87.01999999999998" stroke-linecap="round" fill="grey"/><path stroke="darkgrey" stroke-width="0.1" d="M 598.03 123.63999999999999 L 592.5 113.46000000000004 L 586.98 103.28999999999996 L 585.31 103.91999999999996 L 583.64 104.52999999999997 L 575.98 107.39999999999998 L 568.3 110.26999999999998 L 560.62 113.16999999999996 L 552.97 116.03999999999996 L 545.29 118.90999999999997 L 556.15 141.04999999999995 L 557.98 144.77999999999997 L 560.62 150.16999999999996 L 575.09 143.12 L 577.17 146.57000000000005 L 588.37 141.90999999999997 L 586.98 139.97000000000003 L 598.85 134.89 L 596.43 130.08000000000004 L 593.99 125.25999999999999 L 596.02 124.42999999999995 L 598.03 123.63999999999999" stroke-linecap="round" fill="grey"/><path stroke="darkgrey" stroke-width="0.1" d="M 589.65 168.73000000000002 L 592.71 173.97000000000003 L 589.75 175.69000000000005 L 589.09 174.05999999999995 L 586.0 175.59000000000003 L 582.89 177.12 L 583.49 177.95000000000005 L 580.58 179.41999999999996 L 579.97 178.37 L 573.49 181.36 L 574.11 182.28999999999996 L 571.05 183.76 L 570.51 182.70000000000005 L 567.69 184.11 L 564.84 185.53999999999996 L 565.5 186.65999999999997 L 562.5 188.13 L 561.01 187.36 L 550.81 192.29999999999995 L 530.39 202.19000000000005 L 526.2 195.39999999999998 L 521.99 188.64 L 507.09 165.10000000000002 L 530.05 155.90999999999997 L 557.98 144.77999999999997 L 560.62 150.16999999999996 L 575.09 143.12 L 577.17 146.57000000000005 L 589.65 168.73000000000002" stroke-linecap="round" fill="grey"/><path stroke="darkgrey" stroke-width="0.1" d="M 615.91 105.23000000000002 L 630.52 140.64 L 633.27 146.38 L 626.95 149.05999999999995 L 620.61 151.70000000000005 L 614.29 154.38 L 610.02 146.17999999999995 L 606.01 138.65999999999997 L 602.03 131.15999999999997 L 598.03 123.63999999999999 L 592.5 113.46000000000004 L 586.98 103.28999999999996 L 586.7 102.41999999999996 L 594.45 99.38999999999999 L 602.24 96.39999999999998 L 610.0 93.37 L 615.91 105.23000000000002" stroke-linecap="round" fill="grey"/><path stroke="darkgrey" stroke-width="0.1" d="M 577.17 146.57000000000005 L 588.37 141.90999999999997 L 586.98 139.97000000000003 L 598.85 134.89 L 609.97 159.84000000000003 L 605.19 161.94000000000005 L 595.61 166.12 L 589.65 168.73000000000002 L 577.17 146.57000000000005" stroke-linecap="round" fill="grey"/><path stroke="darkgrey" stroke-width="0.1" d="M 639.64 101.52999999999997 L 636.76 102.36000000000001 L 634.79 98.65999999999997 L 615.91 105.23000000000002 L 610.0 93.37 L 617.6 91.00999999999999 L 625.2 88.61000000000001 L 632.81 86.25 L 639.64 101.52999999999997" stroke-linecap="round" fill="grey"/><path stroke="darkgrey" stroke-width="0.1" d="M 430.48 130.11 L 425.63 122.03999999999996 L 437.26 116.71000000000004 L 426.01 95.22000000000003 L 442.17 88.41999999999996 L 443.66 90.82000000000005 L 449.44 101.30999999999995 L 470.12 134.19000000000005 L 463.21 138.34000000000003 L 456.27 142.51999999999998 L 449.36 146.65999999999997 L 442.45 150.84000000000003 L 430.48 130.11" stroke-linecap="round" fill="grey"/><path stroke="darkgrey" stroke-width="0.1" d="M 430.48 130.11 L 442.45 150.84000000000003 L 442.71 151.02999999999997 L 431.79 158.34000000000003 L 420.87 165.66999999999996 L 404.28 142.26 L 401.66 137.83000000000004 L 399.04 133.39 L 396.39 128.96000000000004 L 408.34 123.50999999999999 L 405.28 118.39999999999998 L 412.58 115.05999999999995 L 415.27 119.51999999999998 L 412.4 120.83000000000004 L 420.67 134.61 L 430.48 130.11" stroke-linecap="round" fill="grey"/><path stroke="darkgrey" stroke-width="0.1" d="M 506.11 177.76 L 490.05 186.75 L 479.55 192.90999999999997 L 470.76 180.27999999999997 L 453.73 190.33000000000004 L 437.24 171.09000000000003 L 444.76 167.03999999999996 L 452.29 162.99 L 459.79 158.97000000000003 L 467.32 154.91999999999996 L 473.43 151.66999999999996 L 485.69 145.20000000000005 L 489.77 151.70000000000005 L 493.86 158.21000000000004 L 497.94 164.75 L 502.03 171.25 L 506.11 177.76" stroke-linecap="round" fill="grey"/><path stroke="darkgrey" stroke-width="0.1" d="M 592.71 173.97000000000003 L 589.65 168.73000000000002 L 595.61 166.12 L 598.64 171.32000000000005 L 592.71 173.97000000000003" stroke-linecap="round" fill="grey"/><path stroke="darkgrey" stroke-width="0.1" d="M 444.61 190.45000000000005 L 423.39 202.35000000000002 L 413.19 188.0 L 410.65 184.39 L 430.66 173.71000000000004 L 434.15 177.89 L 444.61 190.45000000000005" stroke-linecap="round" fill="grey"/><path stroke="darkgrey" stroke-width="0.1" d="M 325.9 138.69000000000005 L 322.74 135.88 L 319.56 133.08000000000004 L 316.4 130.26999999999998 L 311.46 125.38999999999999 L 306.53 120.53999999999996 L 345.89 95.88999999999999 L 349.48 102.64999999999998 L 353.05 109.44000000000005 L 356.65 116.20000000000005 L 325.9 138.69000000000005" stroke-linecap="round" fill="grey"/><path stroke="darkgrey" stroke-width="0.1" d="M 451.96 199.35000000000002 L 455.43 203.55999999999995 L 459.61 208.38 L 463.41 212.59000000000003 L 468.35 217.76 L 443.69 230.64 L 434.46 217.78999999999996 L 430.02 211.60000000000002 L 451.96 199.35000000000002" stroke-linecap="round" fill="grey"/><path stroke="darkgrey" stroke-width="0.1" d="M 612.31 410.08000000000004 L 614.93 409.53999999999996 L 615.52 411.79999999999995 L 612.9 412.35 L 612.31 410.08000000000004" stroke-linecap="round" fill="grey"/><path stroke="darkgrey" stroke-width="0.1" d="M 483.2 394.96000000000004 L 488.2 403.66999999999996 L 497.99 399.4 L 493.01 390.72 L 483.2 394.96000000000004" stroke-linecap="round" fill="grey"/><path stroke="darkgrey" stroke-width="0.1" d="M 627.31 406.66999999999996 L 629.93 406.13 L 630.55 408.39 L 627.9 408.92999999999995 L 627.31 406.66999999999996" stroke-linecap="round" fill="grey"/><path stroke="darkgrey" stroke-width="0.1" d="M 462.08 357.74 L 467.04 366.48 L 476.8 362.11 L 471.87 353.4 L 462.08 357.74" stroke-linecap="round" fill="grey"/><path stroke="darkgrey" stroke-width="0.1" d="M 441.01 320.59000000000003 L 446.02 329.39 L 455.73 324.99 L 450.83 316.34000000000003 L 441.01 320.59000000000003" stroke-linecap="round" fill="grey"/><path stroke="darkgrey" stroke-width="0.1" d="M 379.8 99.77999999999997 L 385.99 110.77999999999997 L 392.23 121.90999999999997 L 390.33 122.80999999999995 L 374.22 130.24 L 371.52 124.39999999999998 L 368.83 118.55999999999995 L 366.13 112.70000000000005 L 363.41 106.83000000000004 L 379.8 99.77999999999997" stroke-linecap="round" fill="grey"/><path stroke="darkgrey" stroke-width="0.1" d="M 424.03 803.4 L 426.68 808.76 L 432.9 806.4 L 430.22 801.0699999999999 L 424.03 803.4" stroke-linecap="round" fill="grey"/><path stroke="#00ff00" stroke-width="4.615384615384615" d="M 443.4 809.4 L 509.4 785.54" stroke-linecap="round" fill="none"/><path stroke="#00ff00" stroke-width="5.769230769230768" d="M 167.32 334.59000000000003 L 160.32999999999998 325.02" stroke-linecap="round" fill="none"/><path stroke="#00ff00" stroke-width="5.769230769230768" d="M 207.17 385.67999999999995 L 205.98 383.9" stroke-linecap="round" fill="none"/><path stroke="#00ff00" stroke-width="5.769230769230768" d="M 128.76 426.89 L 127.99 425.71000000000004" stroke-linecap="round" fill="none"/><path stroke="#00ff00" stroke-width="5.769230769230768" d="M 148.20999999999998 308.5 L 144.64 303.62" stroke-linecap="round" fill="none"/><path stroke="#00ff00" stroke-width="5.769230769230768" d="M 162.42000000000002 303.03999999999996 L 157.41 306.20000000000005" stroke-linecap="round" fill="none"/><path stroke="#00ff00" stroke-width="4.615384615384615" d="M 160.32999999999998 325.02 L 154.66 317.29999999999995" stroke-linecap="round" fill="none"/><path stroke="#00ff00" stroke-width="5.769230769230768" d="M 154.66 317.29999999999995 L 151.37 312.79999999999995" stroke-linecap="round" fill="none"/><path stroke="#00ff00" stroke-width="4.615384615384615" d="M 157.41 306.20000000000005 L 149.93 310.86" stroke-linecap="round" fill="none"/><path stroke="#00ff00" stroke-width="4.615384615384615" d="M 151.37 312.79999999999995 L 149.93 310.86 L 148.20999999999998 308.5" stroke-linecap="round" fill="none"/><path stroke="#00ff00" stroke-width="5.769230769230768" d="M 780.21 383.1 L 816.87 373.55999999999995" stroke-linecap="round" fill="none"/><path stroke="#00ff00" stroke-width="4.615384615384615" d="M 135.72 779.83 L 174.34 768.5699999999999 L 207.32 759.01 L 243.88 748.42 L 291.16999999999996 734.7 L 360.53 714.61 L 387.2 706.89 L 403.02 719.33 L 409.06 733.75 L 417.3 737.09 L 422.47 747.62 L 421.8 758.69 L 411.11 773.14 L 402.15 782.74 L 390.05 786.21 L 365.64 793.2 L 320.76 807.17 L 274.68 821.49 L 256.95 828.28" stroke-linecap="round" fill="none"/><path stroke="#00ff00" stroke-width="4.615384615384615" d="M 254.74 840.53 L 256.85 836.7 L 257.62 832.49 L 256.95 828.28 L 255.1 824.6800000000001 L 252.25 821.65 L 248.55 819.35 L 244.29 818.04 L 239.77 817.72 L 235.35 818.49 L 230.83 820.56 L 227.2 823.72 L 224.87 827.64 L 223.97 832.04 L 224.63 836.45 L 227.1 840.88 L 231.08 844.3199999999999 L 236.19 846.46 L 241.79 846.97 L 247.29 845.89 L 251.45 843.69 L 254.74 840.53" stroke-linecap="round" fill="none"/><path stroke="#00ff00" stroke-width="4.615384615384615" d="M 207.32 759.01 L 224.25 795.81 L 235.35 818.49" stroke-linecap="round" fill="none"/><path stroke="#00ff00" stroke-width="4.615384615384615" d="M 243.88 748.42 L 258.9 784.17 L 274.68 821.49" stroke-linecap="round" fill="none"/><path stroke="#00ff00" stroke-width="4.615384615384615" d="M 256.98 218.20000000000005 L 271.11 212.14" stroke-linecap="round" fill="none"/><path stroke="#00ff00" stroke-width="4.615384615384615" d="M 409.06 733.75 L 258.9 784.17 L 224.25 795.81 L 190.57 807.13 L 128.22 828.06" stroke-linecap="round" fill="none"/><path stroke="#00ff00" stroke-width="5.769230769230768" d="M 526.61 452.5 L 515.87 455.4" stroke-linecap="round" fill="none"/><path stroke="#00ff00" stroke-width="5.769230769230768" d="M 232.8 598.1 L 233.45 599.28 L 233.91 600.0799999999999" stroke-linecap="round" fill="none"/><path stroke="#00ff00" stroke-width="5.769230769230768" d="M 174.36 618.1 L 174.98000000000002 619.1800000000001 L 175.65 620.3299999999999" stroke-linecap="round" fill="none"/><path stroke="#00ff00" stroke-width="4.615384615384615" d="M 515.87 455.4 L 508.76 457.57 L 499.43 460.38" stroke-linecap="round" fill="none"/><path stroke="#00ff00" stroke-width="5.769230769230768" d="M 116.28 636.02 L 117.64 638.7 L 119.13 641.5699999999999" stroke-linecap="round" fill="none"/><path stroke="#00ff00" stroke-width="5.769230769230768" d="M 326.44 566.0799999999999 L 327.19 567.35 L 328.7 569.97" stroke-linecap="round" fill="none"/><path stroke="#00ff00" stroke-width="5.769230769230768" d="M 598.39 729.22 L 600.98 734.77" stroke-linecap="round" fill="none"/><path stroke="#00ff00" stroke-width="5.769230769230768" d="M 602.55 716.4 L 604.58 715.85" stroke-linecap="round" fill="none"/><path stroke="#00ff00" stroke-width="5.769230769230768" d="M 510.12 512.81 L 513.28 511.73 L 518.8 509.85" stroke-linecap="round" fill="none"/><path stroke="#00ff00" stroke-width="5.769230769230768" d="M 578.58 736.6800000000001 L 580.97 740.86" stroke-linecap="round" fill="none"/><path stroke="#00ff00" stroke-width="5.769230769230768" d="M 597.28 699.52 L 595.25 700.23" stroke-linecap="round" fill="none"/><path stroke="#00ff00" stroke-width="4.615384615384615" d="M 291.16999999999996 734.7 L 320.76 807.17" stroke-linecap="round" fill="none"/><path stroke="#00ff00" stroke-width="4.615384615384615" d="M 360.53 714.61 L 390.05 786.21" stroke-linecap="round" fill="none"/><path stroke="#00ff00" stroke-width="5.769230769230768" d="M 500.15 509.11 L 499.89 508.56999999999994 L 499.38 507.39" stroke-linecap="round" fill="none"/></svg>