<svg xmlns="http://www.w3.org/2000/svg" viewBox="0 0 1000 1000" width="1000mm" height="1000mm"><style >

.small { font: 10px sans-serif; fill:black}
svg {background-color: white;}
.smallevidence { font: 10px sans-serif; fill:red}
.heavy { font: bold 30px sans-serif; }
.heavyevidence { font: bold 30px sans-serif; fill:red}

.title { font: italic 40px sans-serif; fill:red; }

</style><path stroke="darkgrey" stroke-width="0.1" d="M 241.0 547.1700000000001 L 255.48 546.76 L 255.97 564.03 L 241.5 564.45 L 241.0 547.1700000000001" stroke-linecap="round" fill="grey"/><path stroke="darkgrey" stroke-width="0.1" d="M 171.75 568.01 L 188.71 564.7 L 191.65 579.8 L 174.70999999999998 583.11 L 171.75 568.01" stroke-linecap="round" fill="grey"/><path stroke="darkgrey" stroke-width="0.1" d="M 179.41 604.9200000000001 L 200.9 602.05 L 203.26 619.47 L 181.76 622.3399999999999 L 179.41 604.9200000000001" stroke-linecap="round" fill="grey"/><path stroke="darkgrey" stroke-width="0.1" d="M 268.28999999999996 528.2 L 292.87 529.03 L 292.45 541.01 L 267.89 540.1600000000001 L 268.28999999999996 528.2" stroke-linecap="round" fill="grey"/><path stroke="darkgrey" stroke-width="0.1" d="M 264.15999999999997 599.97 L 277.8 598.3299999999999 L 280.59000000000003 621.1800000000001 L 266.93 622.8399999999999 L 264.15999999999997 599.97" stroke-linecap="round" fill="grey"/><path stroke="darkgrey" stroke-width="0.1" d="M 270.72 683.9200000000001 L 269.7 678.0 L 263.72 678.37 L 263.26 672.63 L 275.15 671.4200000000001 L 276.44 683.44 L 270.72 683.9200000000001" stroke-linecap="round" fill="grey"/><path stroke="darkgrey" stroke-width="0.1" d="M 187.81 632.51 L 190.76 655.89 L 174.8 657.88 L 172.03 635.9100000000001 L 181.08 634.78 L 180.91 633.38 L 187.81 632.51" stroke-linecap="round" fill="grey"/><path stroke="darkgrey" stroke-width="0.1" d="M 205.8 630.64 L 208.56 648.29 L 213.8 647.47 L 214.83 654.0799999999999 L 210.36 654.77 L 209.99 652.36 L 194.07 654.8299999999999 L 190.45 631.7 L 205.6 629.35 L 205.8 630.64" stroke-linecap="round" fill="grey"/><path stroke="darkgrey" stroke-width="0.1" d="M 233.17 630.8399999999999 L 236.47 648.9100000000001 L 230.99 649.9 L 231.17 650.89 L 220.46 652.8199999999999 L 216.67 632.06 L 230.51 629.54 L 230.82 631.26 L 233.17 630.8399999999999" stroke-linecap="round" fill="grey"/><path stroke="darkgrey" stroke-width="0.1" d="M 300.96000000000004 548.0799999999999 L 299.44 538.78 L 299.9 538.7 L 298.68 531.29 L 305.23 530.23 L 307.96 546.9300000000001 L 300.96000000000004 548.0799999999999" stroke-linecap="round" fill="grey"/><path stroke="darkgrey" stroke-width="0.1" d="M 326.73 539.23 L 308.45 542.12 L 305.43 523.0 L 306.36 522.86 L 305.74 518.9200000000001 L 307.0 518.71 L 323.1 516.1800000000001 L 323.28 517.4100000000001 L 326.73 539.23" stroke-linecap="round" fill="grey"/><path stroke="darkgrey" stroke-width="0.1" d="M 292.7 572.26 L 273.08000000000004 574.77 L 272.53 559.39 L 273.43 559.39 L 272.78999999999996 553.11 L 287.26 552.35 L 289.93 549.3 L 292.52 551.51 L 292.7 572.26" stroke-linecap="round" fill="grey"/><path stroke="darkgrey" stroke-width="0.1" d="M 257.87 559.03 L 263.59000000000003 558.94 L 264.78999999999996 577.63 L 248.93 580.04 L 248.0 566.0699999999999 L 253.26 565.79 L 253.81 570.7 L 258.51 570.98 L 257.87 559.03" stroke-linecap="round" fill="grey"/><path stroke="darkgrey" stroke-width="0.1" d="M 267.93 597.1700000000001 L 261.75 598.6600000000001 L 258.78999999999996 579.77 L 265.15999999999997 579.02 L 265.8 584.21 L 267.18 586.9 L 267.93 597.1700000000001" stroke-linecap="round" fill="grey"/><path stroke="darkgrey" stroke-width="0.1" d="M 250.68 581.25 L 251.7 591.06 L 252.44 598.38 L 249.59 598.75 L 249.03 599.86 L 230.23 602.37 L 227.73 584.78 L 250.68 581.25" stroke-linecap="round" fill="grey"/><path stroke="darkgrey" stroke-width="0.1" d="M 234.11 619.6800000000001 L 231.16 603.6700000000001 L 244.7 600.88 L 247.57 615.88 L 247.11 617.1800000000001 L 234.11 619.6800000000001" stroke-linecap="round" fill="grey"/><path stroke="darkgrey" stroke-width="0.1" d="M 222.31 620.3299999999999 L 212.64 621.63 L 212.55 620.98 L 208.22 621.45 L 207.94 619.96 L 206.83 620.15 L 206.56 615.4300000000001 L 205.82 615.4300000000001 L 204.71 602.01 L 211.06 602.01 L 210.96 600.3399999999999 L 226.36 599.04 L 228.21 617.27 L 227.38 617.36 L 227.56 619.22 L 221.86 619.5899999999999 L 222.31 620.3299999999999" stroke-linecap="round" fill="grey"/><path stroke="darkgrey" stroke-width="0.1" d="M 217.61 599.51 L 217.42 598.21 L 203.5 599.51 L 203.13 593.95 L 207.28 593.5799999999999 L 206.91 587.8399999999999 L 211.98 587.47 L 210.87 580.71 L 215.29 580.62 L 215.94 579.78 L 225.25 579.04 L 226.82 598.86 L 217.61 599.51" stroke-linecap="round" fill="grey"/><path stroke="darkgrey" stroke-width="0.1" d="M 174.39 622.95 L 155.69 624.62 L 155.69 623.88 L 154.03 624.06 L 153.84 618.69 L 153.1 618.69 L 152.36 609.1600000000001 L 172.82 606.75 L 174.39 622.95" stroke-linecap="round" fill="grey"/><path stroke="darkgrey" stroke-width="0.1" d="M 172.72 603.4100000000001 L 149.49 605.37 L 148.2 589.99 L 149.95999999999998 589.99 L 150.05 589.3399999999999 L 169.04000000000002 587.21 L 168.85 585.65 L 173.19 585.37 L 174.82999999999998 597.76 L 172.07999999999998 598.22 L 172.72 603.4100000000001" stroke-linecap="round" fill="grey"/><path stroke="darkgrey" stroke-width="0.1" d="M 192.07 591.1800000000001 L 193.64 602.76 L 179.18 604.89 L 176.22 584.9 L 190.14 582.5799999999999 L 192.07 582.8399999999999 L 192.99 590.72 L 192.07 591.1800000000001" stroke-linecap="round" fill="grey"/><path stroke="darkgrey" stroke-width="0.1" d="M 167.82 572.4 L 169.67000000000002 584.44 L 145.16 587.5 L 144.24 577.79 L 153.36 576.21 L 152.9 570.8399999999999 L 157.14 570.37 L 156.86 566.75 L 162.75 565.73 L 162.47 564.53 L 169.76 564.25 L 170.6 572.4 L 167.82 572.4" stroke-linecap="round" fill="grey"/><path stroke="darkgrey" stroke-width="0.1" d="M 179.8 545.8199999999999 L 181.74 561.56 L 156.68 564.1700000000001 L 155.11 547.88 L 165.23000000000002 546.49 L 165.32 547.12 L 179.15 545.36 L 179.8 545.8199999999999" stroke-linecap="round" fill="grey"/><path stroke="darkgrey" stroke-width="0.1" d="M 184.05 564.06 L 182.11 547.96 L 188.92 547.4 L 190.59 563.78 L 184.05 564.06" stroke-linecap="round" fill="grey"/><path stroke="darkgrey" stroke-width="0.1" d="M 222.38 578.6700000000001 L 200.27 581.1 L 198.79 564.7 L 215.37 562.8399999999999 L 215.83 564.88 L 220.81 564.3199999999999 L 222.38 578.6700000000001" stroke-linecap="round" fill="grey"/><path stroke="darkgrey" stroke-width="0.1" d="M 214.72 554.79 L 200.17 556.0 L 199.14 540.1700000000001 L 214.26 538.69 L 215.19 551.0799999999999 L 214.17 551.0799999999999 L 214.72 554.79" stroke-linecap="round" fill="grey"/><path stroke="darkgrey" stroke-width="0.1" d="M 237.21 544.6 L 219.7 541.8299999999999 L 219.8 538.77 L 220.81 538.77 L 221.72 527.6600000000001 L 227.53 528.21 L 227.81 527.1 L 239.69 528.31 L 239.69 529.51 L 244.95 530.3299999999999 L 243.49 540.89 L 244.49 541.0699999999999 L 243.86 544.97 L 237.21 544.13 L 237.21 544.6" stroke-linecap="round" fill="grey"/><path stroke="darkgrey" stroke-width="0.1" d="M 181.17 505.9200000000001 L 193.42 508.04999999999995 L 193.89 505.36 L 200.79 507.03 L 200.07 511.8399999999999 L 198.22 511.75 L 196.75 523.79 L 172.14 519.72 L 173.43 513.3299999999999 L 170.29000000000002 518.14 L 168.45 517.4100000000001 L 166.51 519.9100000000001 L 160.72 519.0899999999999 L 164.49 513.3299999999999 L 165.4 513.24 L 170.84 505.8399999999999 L 174.43 507.78 L 173.51 510.37 L 174.9 510.65 L 174.16 511.75 L 178.39 512.31 L 179.41 506.20000000000005 L 180.98 506.75 L 181.17 505.9200000000001" stroke-linecap="round" fill="grey"/><path stroke="darkgrey" stroke-width="0.1" d="M 214.43 515.54 L 211.67 529.3299999999999 L 197.94 526.74 L 199.97 512.49 L 200.42 512.49 L 200.79 510.36 L 214.15 513.4100000000001 L 216.28 504.25 L 222.45 504.51 L 221.07 516.46 L 214.43 515.54" stroke-linecap="round" fill="grey"/><path stroke="darkgrey" stroke-width="0.1" d="M 293.13 516.9300000000001 L 293.15 526.65 L 270.28999999999996 526.6800000000001 L 270.27 516.98 L 293.13 516.9300000000001" stroke-linecap="round" fill="grey"/><path stroke="darkgrey" stroke-width="0.1" d="M 246.88 525.8 L 228.44 523.31 L 228.53 521.1700000000001 L 226.52 520.9 L 227.8 511.18000000000006 L 229.55 511.64 L 230.2 506.54999999999995 L 250.75 508.6700000000001 L 250.75 509.31999999999994 L 252.5 509.6 L 251.58 517.1800000000001 L 250.1 517.01 L 249.84 521.73 L 247.43 521.73 L 246.88 525.8" stroke-linecap="round" fill="grey"/><path stroke="darkgrey" stroke-width="0.1" d="M 323.44 485.19000000000005 L 322.77 491.53 L 298.77 489.04999999999995 L 299.44 482.71000000000004 L 323.44 485.19000000000005" stroke-linecap="round" fill="grey"/><path stroke="darkgrey" stroke-width="0.1" d="M 181.89 497.6 L 183.84 491.29999999999995 L 188.91 492.5799999999999 L 193.04 482.77 L 203.83 486.6600000000001 L 199.68 496.02 L 200.51 496.37 L 197.85 503.6 L 188.26 500.8299999999999 L 188.35 499.62 L 181.89 497.6" stroke-linecap="round" fill="grey"/><path stroke="darkgrey" stroke-width="0.1" d="M 207.51 481.75 L 219.04 484.89 L 217.75 492.68000000000006 L 205.49 488.88 L 207.51 481.75" stroke-linecap="round" fill="grey"/><path stroke="darkgrey" stroke-width="0.1" d="M 221.71 481.74 L 221.43 483.30999999999995 L 210.09 479.99 L 211.29 475.73 L 208.81 475.0799999999999 L 206.4 483.04999999999995 L 198.66 480.36 L 200.87 473.6 L 202.44 472.96000000000004 L 208.53 474.53 L 209.62 468.88 L 217.45 470.54999999999995 L 218.47 470.36 L 218.56 470.9100000000001 L 225.67 472.48 L 223.36 482.39 L 221.71 481.74" stroke-linecap="round" fill="grey"/><path stroke="darkgrey" stroke-width="0.1" d="M 169.72 475.47 L 154.98000000000002 471.68000000000006 L 158.93 457.06 L 173.31 460.93 L 169.72 475.47" stroke-linecap="round" fill="grey"/><path stroke="darkgrey" stroke-width="0.1" d="M 177.44 422.14 L 195.97 425.28 L 195.23 433.05999999999995 L 194.22 432.69000000000005 L 193.48 442.87 L 167.13 438.54 L 171.07 412.89 L 178.64 414.0 L 177.44 422.14" stroke-linecap="round" fill="grey"/><path stroke="darkgrey" stroke-width="0.1" d="M 235.21 442.69 L 221.94 447.47 L 214.34 426.47 L 227.61 421.67999999999995 L 235.21 442.69" stroke-linecap="round" fill="grey"/><path stroke="darkgrey" stroke-width="0.1" d="M 294.4 407.65999999999997 L 278.53999999999996 409.78999999999996 L 275.76 391.46000000000004 L 276.69 390.9 L 276.03999999999996 384.88 L 289.87 382.84000000000003 L 290.7 388.77 L 291.71000000000004 388.86 L 294.4 407.65999999999997" stroke-linecap="round" fill="grey"/><path stroke="darkgrey" stroke-width="0.1" d="M 421.5 334.28 L 436.76 331.20000000000005 L 438.16 338.16999999999996 L 438.39 339.24 L 423.78 342.20000000000005 L 423.13 342.32000000000005 L 421.5 334.28" stroke-linecap="round" fill="grey"/><path stroke="darkgrey" stroke-width="0.1" d="M 283.1 282.4 L 283.65 287.29999999999995 L 285.4 287.21000000000004 L 286.23 298.03999999999996 L 278.49 298.88 L 277.47 282.21000000000004 L 283.1 282.4" stroke-linecap="round" fill="grey"/><path stroke="darkgrey" stroke-width="0.1" d="M 310.21 321.45000000000005 L 290.02 321.92999999999995 L 290.2 314.52 L 310.2 314.61 L 310.29 314.04999999999995 L 320.25 313.66999999999996 L 320.52 321.63 L 310.21 321.82000000000005 L 310.21 321.45000000000005" stroke-linecap="round" fill="grey"/><path stroke="darkgrey" stroke-width="0.1" d="M 298.84000000000003 348.03 L 294.65999999999997 347.02 L 298.05 333.07000000000005 L 302.61 334.17999999999995 L 303.27 331.44000000000005 L 307.22 332.39 L 306.77 334.21000000000004 L 313.37 335.82000000000005 L 312.83 338.1 L 315.85 338.82000000000005 L 312.49 352.66999999999996 L 298.53 349.29999999999995 L 298.84000000000003 348.03" stroke-linecap="round" fill="grey"/><path stroke="darkgrey" stroke-width="0.1" d="M 306.71 361.28999999999996 L 326.92 361.09000000000003 L 327.0 369.65999999999997 L 327.04 373.92999999999995 L 298.28 374.21000000000004 L 298.2 365.5 L 306.74 365.4 L 306.71 361.28999999999996" stroke-linecap="round" fill="grey"/><path stroke="darkgrey" stroke-width="0.1" d="M 234.92 326.59000000000003 L 235.36 322.59000000000003 L 252.43 322.5 L 252.43 329.79999999999995 L 251.96 330.36 L 244.69 330.19000000000005 L 244.95 326.48 L 234.92 326.59000000000003" stroke-linecap="round" fill="grey"/><path stroke="darkgrey" stroke-width="0.1" d="M 258.07 365.26 L 259.15999999999997 363.59000000000003 L 256.4 361.1 L 252.81 361.57000000000005 L 248.48 360.08000000000004 L 245.52 357.22 L 243.22 351.57000000000005 L 240.08 355.08000000000004 L 234.19 352.5 L 234.55 346.66999999999996 L 240.73 345.09000000000003 L 242.93 348.14 L 243.49 347.87 L 243.86 345.54999999999995 L 246.43 341.02 L 253.63 337.96000000000004 L 255.92 338.04999999999995 L 256.94 336.94000000000005 L 257.13 327.13 L 274.90999999999997 326.65 L 275.56 339.52 L 274.90999999999997 340.73 L 266.9 341.1 L 266.44 341.75 L 266.71000000000004 345.63 L 272.53 345.63 L 272.99 352.86 L 267.08000000000004 353.51 L 266.9 356.92999999999995 L 267.45 357.29999999999995 L 269.66999999999996 354.80999999999995 L 277.13 361.46000000000004 L 267.1 372.67999999999995 L 262.58000000000004 372.86 L 258.07 369.05999999999995 L 258.07 365.26" stroke-linecap="round" fill="grey"/><path stroke="darkgrey" stroke-width="0.1" d="M 191.6 321.36 L 191.76 311.30999999999995 L 205.78 311.52 L 206.56 311.53 L 206.4 321.55999999999995 L 191.6 321.36" stroke-linecap="round" fill="grey"/><path stroke="darkgrey" stroke-width="0.1" d="M 289.26 260.40999999999997 L 295.98 260.23 L 296.09000000000003 281.78999999999996 L 289.53999999999996 281.98 L 289.26 260.40999999999997" stroke-linecap="round" fill="grey"/><path stroke="darkgrey" stroke-width="0.1" d="M 280.05 244.21000000000004 L 281.14 244.59000000000003 L 277.01 257.36 L 284.84000000000003 259.66999999999996 L 283.08000000000004 264.95000000000005 L 275.15999999999997 262.91999999999996 L 274.33000000000004 266.42999999999995 L 256.26 260.79999999999995 L 257.37 258.39 L 251.38 256.53999999999996 L 252.95 252.37 L 251.75 251.80999999999995 L 257.82 233.94000000000005 L 260.23 232.01 L 270.90999999999997 235.79999999999995 L 270.63 237.19000000000005 L 280.86 240.70000000000005 L 280.05 244.21000000000004" stroke-linecap="round" fill="grey"/><path stroke="darkgrey" stroke-width="0.1" d="M 267.89 265.98 L 265.22 274.77 L 244.38 267.38 L 247.42 258.65999999999997 L 267.89 265.98" stroke-linecap="round" fill="grey"/><path stroke="darkgrey" stroke-width="0.1" d="M 388.8 166.04999999999995 L 385.84 133.64999999999998 L 391.46 133.14 L 391.33 131.66999999999996 L 395.39 131.29999999999995 L 395.29 130.22000000000003 L 398.51 129.91999999999996 L 398.61 130.99 L 403.08 130.59000000000003 L 404.85 150.01 L 409.5 149.59000000000003 L 411.46 149.39999999999998 L 412.28 158.35000000000002 L 406.95 158.83000000000004 L 407.45 164.36 L 388.8 166.04999999999995" stroke-linecap="round" fill="grey"/><path stroke="darkgrey" stroke-width="0.1" d="M 351.32 208.15999999999997 L 350.16 201.60000000000002 L 355.13 200.39999999999998 L 355.22 201.23000000000002 L 361.03 200.12 L 361.58 200.30999999999995 L 361.95 205.39999999999998 L 361.4 206.49 L 351.32 208.15999999999997" stroke-linecap="round" fill="grey"/><path stroke="darkgrey" stroke-width="0.1" d="M 359.66 212.66999999999996 L 361.21 244.32000000000005 L 350.12 244.86 L 349.02 222.62 L 348.71 222.63 L 348.36 215.40999999999997 L 346.99 215.47000000000003 L 346.71 209.79999999999995 L 351.47 209.57000000000005 L 351.64 213.04999999999995 L 357.45 212.77999999999997 L 359.66 212.66999999999996" stroke-linecap="round" fill="grey"/><path stroke="darkgrey" stroke-width="0.1" d="M 374.15 241.69000000000005 L 362.2 242.84000000000003 L 361.17 232.22000000000003 L 373.11 231.08000000000004 L 374.15 241.69000000000005" stroke-linecap="round" fill="grey"/><path stroke="darkgrey" stroke-width="0.1" d="M 373.81 231.26 L 380.68 230.39999999999998 L 380.77 231.14 L 381.82 239.5 L 374.95 240.35000000000002 L 373.81 231.26" stroke-linecap="round" fill="grey"/><path stroke="darkgrey" stroke-width="0.1" d="M 418.58 203.74 L 387.4 206.34000000000003 L 387.2 203.86 L 377.63 204.66999999999996 L 377.18 199.47000000000003 L 379.05 199.30999999999995 L 386.69 198.66999999999996 L 386.51 196.45000000000005 L 417.75 193.85000000000002 L 418.58 203.74" stroke-linecap="round" fill="grey"/><path stroke="darkgrey" stroke-width="0.1" d="M 445.17 207.39 L 448.04 229.78999999999996 L 438.47 231.27999999999997 L 435.77 208.32000000000005 L 445.17 207.39" stroke-linecap="round" fill="grey"/><path stroke="darkgrey" stroke-width="0.1" d="M 421.2 231.05999999999995 L 390.78 234.57000000000005 L 391.38 239.73000000000002 L 383.13 240.69000000000005 L 382.02 231.22000000000003 L 389.91 230.29999999999995 L 389.27 224.72000000000003 L 420.06 221.15999999999997 L 421.2 231.05999999999995" stroke-linecap="round" fill="grey"/><path stroke="darkgrey" stroke-width="0.1" d="M 439.58 261.25 L 438.27 250.85000000000002 L 438.94 250.76999999999998 L 445.08 250.0 L 445.33 252.01 L 446.42 251.89 L 447.47 260.27 L 439.58 261.25" stroke-linecap="round" fill="grey"/><path stroke="darkgrey" stroke-width="0.1" d="M 524.52 356.52 L 516.4300000000001 357.1 L 515.95 350.15999999999997 L 517.85 350.03999999999996 L 517.69 347.74 L 512.05 348.12 L 511.05 333.89 L 510.97 332.78999999999996 L 524.3199999999999 331.85 L 525.37 346.73 L 523.8299999999999 346.84000000000003 L 524.52 356.52" stroke-linecap="round" fill="grey"/><path stroke="darkgrey" stroke-width="0.1" d="M 568.96 314.27 L 551.0799999999999 315.92999999999995 L 548.8299999999999 291.74 L 543.1700000000001 292.27 L 543.56 296.4 L 517.95 298.77 L 519.65 316.96000000000004 L 497.3 319.03999999999996 L 490.36 244.42999999999995 L 442.8 248.82000000000005 L 441.84 238.47000000000003 L 488.71 234.14 L 485.11 195.37 L 498.02 194.17999999999995 L 496.67 179.55999999999995 L 496.53 178.07000000000005 L 530.3199999999999 174.95000000000005 L 528.31 153.36 L 553.79 151.0 L 568.96 314.27" stroke-linecap="round" fill="grey"/><path stroke="darkgrey" stroke-width="0.1" d="M 537.36 581.24 L 515.98 583.46 L 506.35 491.25 L 527.73 489.02 L 537.36 581.24" stroke-linecap="round" fill="grey"/><path stroke="darkgrey" stroke-width="0.1" d="M 495.76 540.95 L 499.04 571.35 L 483.69 572.99 L 480.41 542.6 L 495.76 540.95" stroke-linecap="round" fill="grey"/><path stroke="darkgrey" stroke-width="0.1" d="M 328.2 579.35 L 303.34000000000003 585.86 L 303.14 585.1 L 300.5 585.8 L 298.59000000000003 578.51 L 299.27 578.3299999999999 L 297.08000000000004 569.99 L 323.9 562.98 L 328.2 579.35" stroke-linecap="round" fill="grey"/><path stroke="darkgrey" stroke-width="0.1" d="M 312.18 602.74 L 306.67 603.64 L 304.48 590.22 L 320.71 587.5799999999999 L 322.9 600.95 L 316.13 602.05 L 316.01 601.3 L 312.06 601.95 L 312.18 602.74" stroke-linecap="round" fill="grey"/><path stroke="darkgrey" stroke-width="0.1" d="M 281.62 648.9200000000001 L 267.44 650.64 L 268.56 659.97 L 262.81 660.6700000000001 L 261.58000000000004 650.46 L 266.28 649.9 L 263.83000000000004 629.72 L 279.06 627.88 L 281.62 648.9200000000001" stroke-linecap="round" fill="grey"/><path stroke="darkgrey" stroke-width="0.1" d="M 311.27 652.2 L 296.22 654.31 L 294.38 641.2 L 294.87 641.14 L 293.53 631.53 L 305.94 629.8199999999999 L 307.39 629.62 L 308.02 634.1 L 308.72 639.0799999999999 L 322.51 637.1700000000001 L 323.28 642.64 L 322.23 642.78 L 323.4 651.2 L 311.37 652.87 L 311.27 652.2" stroke-linecap="round" fill="grey"/><path stroke="darkgrey" stroke-width="0.1" d="M 302.33000000000004 661.64 L 324.75 660.1600000000001 L 326.95 660.0 L 327.84 673.4 L 302.83000000000004 675.06 L 302.91999999999996 676.4300000000001 L 289.46000000000004 677.3199999999999 L 288.4 661.36 L 302.24 660.44 L 302.33000000000004 661.64" stroke-linecap="round" fill="grey"/><path stroke="darkgrey" stroke-width="0.1" d="M 304.72 689.6800000000001 L 305.73 698.48 L 300.82 699.05 L 301.75 707.01 L 284.40999999999997 708.99 L 284.27 707.75 L 275.78 708.72 L 275.13 703.03 L 283.31 702.09 L 282.90999999999997 698.65 L 286.2 698.28 L 284.27 681.54 L 284.03999999999996 679.56 L 303.03 677.38 L 304.16999999999996 687.3299999999999 L 297.63 688.0699999999999 L 297.90999999999997 690.47 L 304.72 689.6800000000001" stroke-linecap="round" fill="grey"/><path stroke="darkgrey" stroke-width="0.1" d="M 286.46000000000004 727.74 L 264.34000000000003 727.72 L 264.36 711.66 L 286.47 711.6800000000001 L 286.46000000000004 727.74" stroke-linecap="round" fill="grey"/><path stroke="darkgrey" stroke-width="0.1" d="M 259.96000000000004 716.64 L 247.52 716.75 L 246.97 712.58 L 260.15 710.72 L 259.96000000000004 716.64" stroke-linecap="round" fill="grey"/><path stroke="darkgrey" stroke-width="0.1" d="M 275.21000000000004 752.1800000000001 L 253.15 752.03 L 253.24 740.47 L 258.13 740.5 L 258.14 738.48 L 264.11 738.51 L 264.11 737.35 L 275.33000000000004 737.42 L 275.21000000000004 752.1800000000001" stroke-linecap="round" fill="grey"/><path stroke="darkgrey" stroke-width="0.1" d="M 313.89 788.6 L 313.93 809.61 L 296.77 809.63 L 296.77 809.8199999999999 L 291.47 809.83 L 291.45 800.29 L 296.59000000000003 800.27 L 296.57 786.73 L 307.78 786.7 L 307.78 787.35 L 313.49 787.35 L 313.49 788.6 L 313.89 788.6" stroke-linecap="round" fill="grey"/><path stroke="darkgrey" stroke-width="0.1" d="M 512.28 888.94 L 482.83 607.15 L 570.25 598.05 L 592.17 595.78 L 610.53 771.37 L 616.72 830.64 L 621.62 877.55 L 609.29 878.84 L 603.78 879.41 L 544.02 885.63 L 541.75 885.86 L 512.28 888.94" stroke-linecap="round" fill="grey"/><path stroke="darkgrey" stroke-width="0.1" d="M 239.17 564.74 L 239.73 564.77 L 241.0 574.23 L 243.76 573.5799999999999 L 245.34 577.55 L 242.21 579.04 L 242.48 581.53 L 234.19 582.74 L 232.9 581.8199999999999 L 228.01 582.6600000000001 L 225.51 565.62 L 239.17 564.74" stroke-linecap="round" fill="grey"/><path stroke="darkgrey" stroke-width="0.1" d="M 256.33000000000004 609.39 L 259.91999999999996 609.02 L 260.1 613.0 L 260.75 614.6700000000001 L 260.28999999999996 614.76 L 260.47 615.88 L 258.81 616.1600000000001 L 258.81 615.04 L 256.88 615.3199999999999 L 256.33000000000004 609.39" stroke-linecap="round" fill="grey"/><path stroke="darkgrey" stroke-width="0.1" d="M 372.77 341.45000000000005 L 372.96 346.82000000000005 L 367.7 346.73 L 367.7 342.57000000000005 L 368.89 341.73 L 372.77 341.45000000000005" stroke-linecap="round" fill="grey"/><path stroke="darkgrey" stroke-width="0.1" d="M 323.14 352.55999999999995 L 324.18 359.41999999999996 L 321.0 359.90999999999997 L 319.95 353.05999999999995 L 323.14 352.55999999999995" stroke-linecap="round" fill="grey"/><path stroke="darkgrey" stroke-width="0.1" d="M 318.8 329.97 L 320.17 337.6 L 316.15 338.33000000000004 L 314.77 330.69000000000005 L 318.8 329.97" stroke-linecap="round" fill="grey"/><path stroke="darkgrey" stroke-width="0.1" d="M 269.77 652.85 L 275.48 652.2 L 276.33000000000004 659.6600000000001 L 270.6 660.31 L 269.77 652.85" stroke-linecap="round" fill="grey"/><path stroke="darkgrey" stroke-width="0.1" d="M 286.46000000000004 649.96 L 287.51 657.81 L 286.6 657.9300000000001 L 281.02 658.6700000000001 L 279.97 650.8299999999999 L 286.46000000000004 649.96" stroke-linecap="round" fill="grey"/><path stroke="darkgrey" stroke-width="0.1" d="M 269.97 728.7 L 269.87 732.81 L 264.02 732.67 L 264.11 728.5699999999999 L 269.27 728.6800000000001 L 269.97 728.7" stroke-linecap="round" fill="grey"/><path stroke="darkgrey" stroke-width="0.1" d="M 259.64 733.45 L 260.01 737.72 L 249.79 738.74 L 249.51 734.65 L 259.64 733.45" stroke-linecap="round" fill="grey"/><path stroke="darkgrey" stroke-width="0.1" d="M 477.0 489.04999999999995 L 485.8 488.48 L 486.17 494.24 L 477.37 494.80999999999995 L 477.0 489.04999999999995" stroke-linecap="round" fill="grey"/><path stroke="darkgrey" stroke-width="0.1" d="M 477.32 481.8299999999999 L 482.53 481.35 L 483.18 488.1600000000001 L 477.97 488.64 L 477.32 481.8299999999999" stroke-linecap="round" fill="grey"/><path stroke="darkgrey" stroke-width="0.1" d="M 481.93 162.16999999999996 L 490.29 161.28999999999996 L 493.69 193.36 L 485.34 194.24 L 481.93 162.16999999999996" stroke-linecap="round" fill="grey"/><path stroke="darkgrey" stroke-width="0.1" d="M 436.11 469.85 L 437.11 481.9100000000001 L 446.48 481.13 L 445.48 469.0799999999999 L 436.11 469.85" stroke-linecap="round" fill="grey"/><path stroke="#408040" stroke-width="6.923076923076923" d="M 179.53 950.0 L 178.63 938.51 L 172.32 929.01 L 160.01999999999998 783.81 L 148.69 721.6 L 133.8 639.87 L 131.07999999999998 627.81 L 126.27 598.52 L 128.32999999999998 554.36 L 151.9 523.8399999999999 L 167.19 502.39 L 181.66 483.01 L 196.54 470.63 L 211.43 461.13 L 237.1 453.19 L 252.35 461.55 L 321.39 481.97 L 327.61 485.28999999999996 L 328.92 515.29" stroke-linecap="round" fill="none"/><path stroke="#408040" stroke-width="6.923076923076923" d="M 211.43 461.13 L 162.87 447.74 L 114.51 453.53 L 61.18 453.11 L 50.0 453.11" stroke-linecap="round" fill="none"/><path stroke="#408040" stroke-width="6.923076923076923" d="M 160.01999999999998 783.81 L 179.18 783.33 L 203.16 779.62 L 223.0 771.77 L 250.7 766.0 L 278.81 760.23 L 302.8 758.5699999999999 L 321.94 757.06" stroke-linecap="round" fill="none"/><path stroke="#408040" stroke-width="6.923076923076923" d="M 131.07999999999998 627.81 L 154.9 627.8399999999999 L 195.43 627.4200000000001 L 230.15 622.47 L 255.79 617.9300000000001" stroke-linecap="round" fill="none"/><path stroke="#408040" stroke-width="6.923076923076923" d="M 148.69 721.6 L 168.87 719.8199999999999 L 185.19 719.2 L 204.21 715.7 L 234.81 711.99 L 263.74 708.27 L 271.8 707.04" stroke-linecap="round" fill="none"/><path stroke="#408040" stroke-width="9.692307692307692" d="M 471.08 198.84000000000003 L 458.18 176.64999999999998 L 453.4 127.63 L 417.66 50.0" stroke-linecap="round" fill="none"/><path stroke="#408040" stroke-width="9.692307692307692" d="M 430.6 50.0 L 469.88 126.67999999999995 L 473.95 174.64999999999998 L 471.08 198.84000000000003" stroke-linecap="round" fill="none"/><path stroke="#408040" stroke-width="9.692307692307692" d="M 404.36 322.87 L 393.78 252.42999999999995" stroke-linecap="round" fill="none"/><path stroke="#00ff00" stroke-width="2.769230769230769" d="M 458.5 274.23 L 442.03 275.65" stroke-linecap="round" fill="none"/><path stroke="#408040" stroke-width="6.923076923076923" d="M 326.7 51.10000000000002 L 324.93 91.79999999999995 L 341.47 257.6 L 351.47 357.88 L 354.86 391.97 L 371.28 556.62 L 380.45 654.36" stroke-linecap="round" fill="none"/><path stroke="#408040" stroke-width="6.923076923076923" d="M 387.02 845.77 L 381.91 796.56 L 367.02 652.85 L 357.35 557.6600000000001 L 337.12 358.94000000000005 L 326.98 259.13 L 310.01 92.27999999999997 L 312.23 51.52999999999997" stroke-linecap="round" fill="none"/><path stroke="#408040" stroke-width="6.923076923076923" d="M 337.12 358.94000000000005 L 351.47 357.88" stroke-linecap="round" fill="none"/><path stroke="#408040" stroke-width="6.923076923076923" d="M 351.47 357.88 L 424.67 352.28 L 431.27 352.78999999999996 L 437.4 355.29999999999995 L 442.47 359.55999999999995 L 446.0 365.14 L 447.67 371.53 L 452.42 419.51 L 464.76 544.24 L 493.65 836.01 L 493.22 842.79 L 490.7 849.08 L 486.33 854.28 L 480.55 857.86 L 473.93 859.4300000000001 L 410.01 865.02 L 403.4 864.51 L 397.28 862.0 L 392.21 857.76 L 388.67 852.16 L 387.02 845.77" stroke-linecap="round" fill="none"/><path stroke="#408040" stroke-width="9.692307692307692" d="M 326.98 259.13 L 341.47 257.6 L 374.44 254.35000000000002 L 393.78 252.42999999999995 L 413.25 250.5 L 431.19 248.73000000000002 L 435.75 279.46000000000004 L 483.29 273.89" stroke-linecap="round" fill="none"/><path stroke="#408040" stroke-width="9.692307692307692" d="M 374.44 254.35000000000002 L 384.52 326.0" stroke-linecap="round" fill="none"/><path stroke="#408040" stroke-width="9.692307692307692" d="M 413.25 250.5 L 423.82 319.78999999999996" stroke-linecap="round" fill="none"/><path stroke="#408040" stroke-width="9.692307692307692" d="M 423.82 319.78999999999996 L 404.36 322.87 L 384.52 326.0" stroke-linecap="round" fill="none"/><path stroke="#408040" stroke-width="9.692307692307692" d="M 354.86 391.97 L 361.48 405.72 L 366.29 409.67999999999995 L 369.75 419.76 L 376.54 475.53 L 380.5 483.11 L 386.12 489.89 L 388.68 504.25" stroke-linecap="round" fill="none"/><path stroke="#408040" stroke-width="9.692307692307692" d="M 388.68 504.25 L 391.87 534.85 L 440.99 529.76 L 437.8 499.14 L 388.68 504.25" stroke-linecap="round" fill="none"/><path stroke="#408040" stroke-width="6.923076923076923" d="M 464.76 544.24 L 453.57 555.27 L 441.5 562.7 L 423.31 566.0 L 404.73 566.99 L 393.66 565.52 L 383.78 562.78 L 371.28 556.62 L 357.35 557.6600000000001" stroke-linecap="round" fill="none"/><path stroke="#408040" stroke-width="9.692307692307692" d="M 440.99 529.76 L 441.01 544.38 L 433.23 552.8 L 419.34 556.0899999999999 L 393.66 565.52" stroke-linecap="round" fill="none"/><path stroke="#408040" stroke-width="9.692307692307692" d="M 423.24 825.04 L 420.19 824.85 L 417.32 823.76 L 414.91 821.88 L 413.16 819.38 L 412.23 816.45 L 399.12 667.69" stroke-linecap="round" fill="none"/><path stroke="#408040" stroke-width="9.692307692307692" d="M 417.3 666.31 L 432.52 813.3 L 432.47 816.64 L 431.36 819.78 L 429.3 822.41 L 426.49 824.22 L 423.24 825.04" stroke-linecap="round" fill="none"/><path stroke="#408040" stroke-width="9.692307692307692" d="M 402.11 601.75 L 408.02 667.01" stroke-linecap="round" fill="none"/><path stroke="#408040" stroke-width="9.692307692307692" d="M 423.24 825.04 L 425.52 848.22" stroke-linecap="round" fill="none"/><path stroke="#408040" stroke-width="9.692307692307692" d="M 471.08 198.84000000000003 L 483.29 273.89 L 495.74 362.98 L 495.59 380.6 L 491.46 394.72 L 484.97 405.71000000000004 L 476.71 413.16999999999996 L 464.31 418.07000000000005 L 452.42 419.51" stroke-linecap="round" fill="none"/><path stroke="#00ff00" stroke-width="2.769230769230769" d="M 616.72 830.64 L 666.85 825.71 L 676.03 794.5" stroke-linecap="round" fill="none"/><path stroke="#00ff00" stroke-width="2.769230769230769" d="M 610.53 771.37 L 661.88 764.31 L 668.7 732.19" stroke-linecap="round" fill="none"/><path stroke="#408040" stroke-width="9.692307692307692" d="M 417.32 823.76 L 390.47 810.42 L 386.95 807.63 L 384.5 804.25 L 381.91 796.56" stroke-linecap="round" fill="none"/><path stroke="#408040" stroke-width="9.692307692307692" d="M 380.45 654.36 L 382.65 660.7 L 388.63 665.28 L 399.12 667.69 L 408.02 667.01 L 417.3 666.31" stroke-linecap="round" fill="none"/></svg>